<?xml version="1.0" encoding="utf-8" standalone="no"?>
<!DOCTYPE svg PUBLIC "-//W3C//DTD SVG 1.1//EN"
  "http://www.w3.org/Graphics/SVG/1.1/DTD/svg11.dtd">
<svg xmlns:xlink="http://www.w3.org/1999/xlink" width="360pt" height="216pt" viewBox="0 0 360 216" xmlns="http://www.w3.org/2000/svg" version="1.1">
 <metadata>
  <rdf:RDF xmlns:dc="http://purl.org/dc/elements/1.1/" xmlns:cc="http://creativecommons.org/ns#" xmlns:rdf="http://www.w3.org/1999/02/22-rdf-syntax-ns#">
   <cc:Work>
    <dc:type rdf:resource="http://purl.org/dc/dcmitype/StillImage"/>
    <dc:date>2024-12-02T21:06:57.020147</dc:date>
    <dc:format>image/svg+xml</dc:format>
    <dc:creator>
     <cc:Agent>
      <dc:title>Matplotlib v3.8.2, https://matplotlib.org/</dc:title>
     </cc:Agent>
    </dc:creator>
   </cc:Work>
  </rdf:RDF>
 </metadata>
 <defs>
  <style type="text/css">*{stroke-linejoin: round; stroke-linecap: butt}</style>
 </defs>
 <g id="figure_1">
  <g id="patch_1">
   <path d="M 0 216 
L 360 216 
L 360 0 
L 0 0 
z
" style="fill: #ffffff"/>
  </g>
  <g id="axes_1">
   <g id="patch_2">
    <path d="M 45 192.24 
L 324 192.24 
L 324 25.92 
L 45 25.92 
z
" style="fill: #ffffff"/>
   </g>
   <g id="PolyCollection_1">
    <path d="M 60.218182 39.918163 
L 60.218182 72.395651 
L 62.754545 184.677083 
L 65.290909 184.679001 
L 67.827273 184.676798 
L 70.363636 184.68 
L 72.9 184.679155 
L 75.436364 184.67957 
L 77.972727 184.68 
L 80.509091 184.677334 
L 83.045455 184.679365 
L 85.581818 184.672031 
L 88.118182 184.679073 
L 90.654545 184.68 
L 93.190909 184.68 
L 95.727273 184.678732 
L 95.727273 184.671065 
L 95.727273 184.671065 
L 93.190909 184.675075 
L 90.654545 184.664318 
L 88.118182 184.676419 
L 85.581818 184.667487 
L 83.045455 184.675161 
L 80.509091 184.674927 
L 77.972727 184.667102 
L 75.436364 184.67456 
L 72.9 184.666104 
L 70.363636 184.676419 
L 67.827273 184.661075 
L 65.290909 184.673936 
L 62.754545 141.918384 
L 60.218182 39.918163 
z
" clip-path="url(#pdd9f6031a6)" style="fill: #1f77b4; fill-opacity: 0.2; stroke: #1f77b4; stroke-opacity: 0.2"/>
    <path d="M 100.8 184.672667 
L 100.8 184.679878 
L 103.336364 184.67456 
L 105.872727 184.678349 
L 108.409091 184.68 
L 110.945455 184.68 
L 113.481818 184.68 
L 116.018182 184.678565 
L 118.554545 184.68 
L 121.090909 184.678893 
L 123.627273 184.679878 
L 123.627273 184.669759 
L 123.627273 184.669759 
L 121.090909 184.671321 
L 118.554545 184.679155 
L 116.018182 184.677052 
L 113.481818 184.677955 
L 110.945455 184.67718 
L 108.409091 184.677955 
L 105.872727 184.677566 
L 103.336364 184.672802 
L 100.8 184.672667 
z
" clip-path="url(#pdd9f6031a6)" style="fill: #1f77b4; fill-opacity: 0.2; stroke: #1f77b4; stroke-opacity: 0.2"/>
    <path d="M 133.772727 184.663412 
L 133.772727 184.68 
L 136.309091 184.68 
L 138.845455 184.679344 
L 141.381818 184.678441 
L 143.918182 184.68 
L 146.454545 184.68 
L 148.990909 184.679487 
L 148.990909 184.656412 
L 148.990909 184.656412 
L 146.454545 184.67837 
L 143.918182 184.677912 
L 141.381818 184.673816 
L 138.845455 184.666565 
L 136.309091 184.67957 
L 133.772727 184.663412 
z
" clip-path="url(#pdd9f6031a6)" style="fill: #1f77b4; fill-opacity: 0.2; stroke: #1f77b4; stroke-opacity: 0.2"/>
    <path d="M 154.063636 184.678728 
L 154.063636 184.68 
L 156.6 184.679155 
L 159.136364 184.68 
L 161.672727 184.68 
L 164.209091 184.677365 
L 164.209091 184.675598 
L 164.209091 184.675598 
L 161.672727 184.675669 
L 159.136364 184.674927 
L 156.6 184.654183 
L 154.063636 184.678728 
z
" clip-path="url(#pdd9f6031a6)" style="fill: #1f77b4; fill-opacity: 0.2; stroke: #1f77b4; stroke-opacity: 0.2"/>
    <path d="M 169.281818 184.677955 
L 169.281818 184.679607 
L 171.818182 184.679763 
L 174.354545 184.68 
L 176.890909 184.68 
L 179.427273 184.679577 
L 181.963636 184.679789 
L 184.5 184.67957 
L 184.5 184.67691 
L 184.5 184.67691 
L 181.963636 184.677387 
L 179.427273 184.675682 
L 176.890909 184.67957 
L 174.354545 184.679878 
L 171.818182 184.678036 
L 169.281818 184.677955 
z
" clip-path="url(#pdd9f6031a6)" style="fill: #1f77b4; fill-opacity: 0.2; stroke: #1f77b4; stroke-opacity: 0.2"/>
    <path d="M 189.572727 184.679084 
L 189.572727 184.679836 
L 192.109091 184.679607 
L 194.645455 184.675965 
L 197.181818 184.677566 
L 199.718182 184.679687 
L 202.254545 184.68 
L 204.790909 184.68 
L 207.327273 184.68 
L 209.863636 184.68 
L 212.4 184.68 
L 214.936364 184.679344 
L 214.936364 184.679344 
L 214.936364 184.679344 
L 212.4 184.675297 
L 209.863636 184.67957 
L 207.327273 184.670615 
L 204.790909 184.679088 
L 202.254545 184.678349 
L 199.718182 184.67885 
L 197.181818 184.669913 
L 194.645455 184.672995 
L 192.109091 184.660412 
L 189.572727 184.679084 
z
" clip-path="url(#pdd9f6031a6)" style="fill: #1f77b4; fill-opacity: 0.2; stroke: #1f77b4; stroke-opacity: 0.2"/>
    <path d="M 220.009091 184.677955 
L 220.009091 184.679344 
L 222.545455 184.679516 
L 225.081818 184.679789 
L 227.618182 184.679066 
L 230.154545 184.679869 
L 230.154545 184.677035 
L 230.154545 184.677035 
L 227.618182 184.673485 
L 225.081818 184.678106 
L 222.545455 184.67386 
L 220.009091 184.677955 
z
" clip-path="url(#pdd9f6031a6)" style="fill: #1f77b4; fill-opacity: 0.2; stroke: #1f77b4; stroke-opacity: 0.2"/>
    <path d="M 235.227273 184.677955 
L 235.227273 184.67957 
L 237.763636 184.679878 
L 240.3 184.68 
L 242.836364 184.679452 
L 245.372727 184.68 
L 247.909091 184.679724 
L 250.445455 184.679155 
L 252.981818 184.67975 
L 255.518182 184.68 
L 258.054545 184.677955 
L 260.590909 184.678104 
L 263.127273 184.68 
L 268.2 184.67957 
L 268.2 184.674927 
L 268.2 184.674927 
L 263.127273 184.675297 
L 260.590909 184.669428 
L 258.054545 184.658106 
L 255.518182 184.668522 
L 252.981818 184.677994 
L 250.445455 184.667143 
L 247.909091 184.673468 
L 245.372727 184.676419 
L 242.836364 184.677186 
L 240.3 184.678349 
L 237.763636 184.67718 
L 235.227273 184.677955 
z
" clip-path="url(#pdd9f6031a6)" style="fill: #1f77b4; fill-opacity: 0.2; stroke: #1f77b4; stroke-opacity: 0.2"/>
    <path d="M 273.272727 184.677573 
L 273.272727 184.68 
L 273.272727 184.677573 
L 273.272727 184.677573 
z
" clip-path="url(#pdd9f6031a6)" style="fill: #1f77b4; fill-opacity: 0.2; stroke: #1f77b4; stroke-opacity: 0.2"/>
    <path d="M 278.345455 184.678299 
L 278.345455 184.68 
L 280.881818 184.679607 
L 283.418182 184.679419 
L 285.954545 184.68 
L 288.490909 184.679697 
L 291.027273 184.68 
L 293.563636 184.67957 
L 296.1 184.677955 
L 298.636364 184.677618 
L 298.636364 184.674367 
L 298.636364 184.674367 
L 296.1 184.673106 
L 293.563636 184.670264 
L 291.027273 184.679061 
L 288.490909 184.679135 
L 285.954545 184.67718 
L 283.418182 184.660917 
L 280.881818 184.675636 
L 278.345455 184.678299 
z
" clip-path="url(#pdd9f6031a6)" style="fill: #1f77b4; fill-opacity: 0.2; stroke: #1f77b4; stroke-opacity: 0.2"/>
    <path d="M 303.709091 184.67456 
L 303.709091 184.68 
L 306.245455 184.676105 
L 308.781818 184.68 
L 311.318182 184.676419 
L 311.318182 184.676043 
L 311.318182 184.676043 
L 308.781818 184.675669 
L 306.245455 184.676043 
L 303.709091 184.67456 
z
" clip-path="url(#pdd9f6031a6)" style="fill: #1f77b4; fill-opacity: 0.2; stroke: #1f77b4; stroke-opacity: 0.2"/>
   </g>
   <g id="PolyCollection_2">
    <defs>
     <path id="m653eea2390" d="M 57.681818 -182.52 
L 57.681818 -182.52 
L 60.218182 -88.567189 
L 62.754545 -68.884241 
L 65.290909 -58.465601 
L 67.827273 -54.187189 
L 70.363636 -50.702494 
L 72.9 -48.204775 
L 75.436364 -46.312657 
L 77.972727 -44.825963 
L 80.509091 -43.669612 
L 83.045455 -42.7624 
L 85.581818 -41.969229 
L 88.118182 -41.346682 
L 90.654545 -40.880359 
L 93.190909 -40.347866 
L 95.727273 -39.923018 
L 98.263636 -39.57717 
L 100.8 -39.198193 
L 103.336364 -38.840665 
L 105.872727 -38.50988 
L 108.409091 -38.211553 
L 110.945455 -37.951301 
L 113.481818 -37.702373 
L 116.018182 -37.476457 
L 118.554545 -37.268684 
L 121.090909 -36.702944 
L 123.627273 -36.906913 
L 126.163636 -36.742419 
L 128.7 -36.589629 
L 131.236364 -36.441875 
L 133.772727 -36.294703 
L 136.309091 -36.146177 
L 138.845455 -36.006064 
L 141.381818 -35.61134 
L 143.918182 -35.747798 
L 146.454545 -35.628375 
L 148.990909 -35.499288 
L 151.527273 -35.384532 
L 154.063636 -35.30823 
L 156.6 -35.212941 
L 159.136364 -35.11513 
L 161.672727 -34.806696 
L 164.209091 -34.938733 
L 166.745455 -34.859378 
L 169.281818 -34.783267 
L 171.818182 -34.704335 
L 174.354545 -34.634269 
L 176.890909 -34.566923 
L 179.427273 -34.502072 
L 181.963636 -34.439716 
L 184.5 -34.379573 
L 187.036364 -34.32158 
L 189.572727 -34.265624 
L 192.109091 -34.211585 
L 194.645455 -34.148875 
L 197.181818 -34.098526 
L 199.718182 -34.049847 
L 202.254545 -34.002716 
L 204.790909 -33.963523 
L 207.327273 -33.919197 
L 209.863636 -33.876172 
L 212.4 -33.84899 
L 214.936364 -33.819592 
L 217.472727 -33.77988 
L 220.009091 -33.741292 
L 222.545455 -33.708315 
L 225.081818 -33.676301 
L 227.618182 -33.479023 
L 230.154545 -33.602257 
L 232.690909 -33.573137 
L 235.227273 -33.54488 
L 237.763636 -33.512743 
L 240.3 -33.487495 
L 242.836364 -33.456648 
L 245.372727 -33.426569 
L 247.909091 -33.396367 
L 250.445455 -33.374273 
L 252.981818 -33.340517 
L 255.518182 -33.313145 
L 258.054545 -33.135712 
L 260.590909 -33.260226 
L 263.127273 -33.234684 
L 265.663636 -33.2097 
L 268.2 -33.185221 
L 270.736364 -33.020797 
L 273.272727 -33.137843 
L 275.809091 -33.114903 
L 278.345455 -33.092434 
L 280.881818 -33.07043 
L 283.418182 -33.048867 
L 285.954545 -33.02773 
L 288.490909 -33.006978 
L 291.027273 -32.986656 
L 293.563636 -32.963392 
L 296.1 -32.947154 
L 298.636364 -32.927955 
L 301.172727 -32.798596 
L 303.709091 -32.890583 
L 306.245455 -32.872408 
L 308.781818 -32.854568 
L 311.318182 -32.841144 
L 311.318182 -33.691625 
L 311.318182 -33.691625 
L 308.781818 -33.76105 
L 306.245455 -33.737315 
L 303.709091 -33.762686 
L 301.172727 -33.788497 
L 298.636364 -33.814804 
L 296.1 -33.842529 
L 293.563636 -33.863212 
L 291.027273 -33.897735 
L 288.490909 -33.926138 
L 285.954545 -33.955176 
L 283.418182 -33.984739 
L 280.881818 -34.025053 
L 278.345455 -34.055956 
L 275.809091 -34.087525 
L 273.272727 -34.119751 
L 270.736364 -34.152677 
L 268.2 -34.186358 
L 265.663636 -34.279355 
L 263.127273 -34.255868 
L 260.590909 -34.291785 
L 258.054545 -34.32856 
L 255.518182 -34.366181 
L 252.981818 -34.465339 
L 250.445455 -34.444108 
L 247.909091 -34.484429 
L 245.372727 -34.525733 
L 242.836364 -34.56806 
L 240.3 -34.611496 
L 237.763636 -34.721308 
L 235.227273 -34.702881 
L 232.690909 -34.74975 
L 230.154545 -34.797852 
L 227.618182 -34.838077 
L 225.081818 -34.888727 
L 222.545455 -34.94081 
L 220.009091 -35.00392 
L 217.472727 -35.128086 
L 214.936364 -35.115997 
L 212.4 -35.174513 
L 209.863636 -35.234792 
L 207.327273 -35.296918 
L 204.790909 -35.361005 
L 202.254545 -35.416882 
L 199.718182 -35.483039 
L 197.181818 -35.634847 
L 194.645455 -35.708467 
L 192.109091 -35.72009 
L 189.572727 -35.79975 
L 187.036364 -35.88298 
L 184.5 -35.976424 
L 181.963636 -36.063485 
L 179.427273 -36.156191 
L 176.890909 -36.27049 
L 174.354545 -36.36581 
L 171.818182 -36.467639 
L 169.281818 -36.573692 
L 166.745455 -36.682355 
L 164.209091 -36.797568 
L 161.672727 -36.917931 
L 159.136364 -37.043561 
L 156.6 -37.175086 
L 154.063636 -37.444753 
L 151.527273 -37.473592 
L 148.990909 -37.74613 
L 146.454545 -37.785704 
L 143.918182 -37.953947 
L 141.381818 -38.131318 
L 138.845455 -38.318636 
L 136.309091 -38.651113 
L 133.772727 -38.727223 
L 131.236364 -38.950256 
L 128.7 -39.18754 
L 126.163636 -39.443468 
L 123.627273 -39.921299 
L 121.090909 -40.04099 
L 118.554545 -40.330339 
L 116.018182 -40.623197 
L 113.481818 -40.949575 
L 110.945455 -41.436931 
L 108.409091 -41.653903 
L 105.872727 -42.077224 
L 103.336364 -42.540572 
L 100.8 -43.056037 
L 98.263636 -43.627095 
L 95.727273 -44.205427 
L 93.190909 -44.864181 
L 90.654545 -45.651091 
L 88.118182 -46.570917 
L 85.581818 -47.298168 
L 83.045455 -48.386433 
L 80.509091 -49.593719 
L 77.972727 -51.216331 
L 75.436364 -53.257993 
L 72.9 -55.841962 
L 70.363636 -59.258896 
L 67.827273 -64.262992 
L 65.290909 -71.41968 
L 62.754545 -83.722434 
L 60.218182 -106.022114 
L 57.681818 -182.52 
z
" style="stroke: #ff7f0e; stroke-opacity: 0.2"/>
    </defs>
    <g clip-path="url(#pdd9f6031a6)">
     <use xlink:href="#m653eea2390" x="0" y="216" style="fill: #ff7f0e; fill-opacity: 0.2; stroke: #ff7f0e; stroke-opacity: 0.2"/>
    </g>
   </g>
   <g id="matplotlib.axis_1">
    <g id="xtick_1">
     <g id="line2d_1">
      <defs>
       <path id="me7a0978167" d="M 0 0 
L 0 3.5 
" style="stroke: #000000; stroke-width: 0.8"/>
      </defs>
      <g>
       <use xlink:href="#me7a0978167" x="57.681818" y="192.24" style="stroke: #000000; stroke-width: 0.8"/>
      </g>
     </g>
     <g id="text_1">
      <!-- 0 -->
      <g transform="translate(54.500568 206.838437) scale(0.1 -0.1)">
       <defs>
        <path id="DejaVuSans-30" d="M 2034 4250 
Q 1547 4250 1301 3770 
Q 1056 3291 1056 2328 
Q 1056 1369 1301 889 
Q 1547 409 2034 409 
Q 2525 409 2770 889 
Q 3016 1369 3016 2328 
Q 3016 3291 2770 3770 
Q 2525 4250 2034 4250 
z
M 2034 4750 
Q 2819 4750 3233 4129 
Q 3647 3509 3647 2328 
Q 3647 1150 3233 529 
Q 2819 -91 2034 -91 
Q 1250 -91 836 529 
Q 422 1150 422 2328 
Q 422 3509 836 4129 
Q 1250 4750 2034 4750 
z
" transform="scale(0.015625)"/>
       </defs>
       <use xlink:href="#DejaVuSans-30"/>
      </g>
     </g>
    </g>
    <g id="xtick_2">
     <g id="line2d_2">
      <g>
       <use xlink:href="#me7a0978167" x="108.409091" y="192.24" style="stroke: #000000; stroke-width: 0.8"/>
      </g>
     </g>
     <g id="text_2">
      <!-- 20 -->
      <g transform="translate(102.046591 206.838437) scale(0.1 -0.1)">
       <defs>
        <path id="DejaVuSans-32" d="M 1228 531 
L 3431 531 
L 3431 0 
L 469 0 
L 469 531 
Q 828 903 1448 1529 
Q 2069 2156 2228 2338 
Q 2531 2678 2651 2914 
Q 2772 3150 2772 3378 
Q 2772 3750 2511 3984 
Q 2250 4219 1831 4219 
Q 1534 4219 1204 4116 
Q 875 4013 500 3803 
L 500 4441 
Q 881 4594 1212 4672 
Q 1544 4750 1819 4750 
Q 2544 4750 2975 4387 
Q 3406 4025 3406 3419 
Q 3406 3131 3298 2873 
Q 3191 2616 2906 2266 
Q 2828 2175 2409 1742 
Q 1991 1309 1228 531 
z
" transform="scale(0.015625)"/>
       </defs>
       <use xlink:href="#DejaVuSans-32"/>
       <use xlink:href="#DejaVuSans-30" x="63.623047"/>
      </g>
     </g>
    </g>
    <g id="xtick_3">
     <g id="line2d_3">
      <g>
       <use xlink:href="#me7a0978167" x="159.136364" y="192.24" style="stroke: #000000; stroke-width: 0.8"/>
      </g>
     </g>
     <g id="text_3">
      <!-- 40 -->
      <g transform="translate(152.773864 206.838437) scale(0.1 -0.1)">
       <defs>
        <path id="DejaVuSans-34" d="M 2419 4116 
L 825 1625 
L 2419 1625 
L 2419 4116 
z
M 2253 4666 
L 3047 4666 
L 3047 1625 
L 3713 1625 
L 3713 1100 
L 3047 1100 
L 3047 0 
L 2419 0 
L 2419 1100 
L 313 1100 
L 313 1709 
L 2253 4666 
z
" transform="scale(0.015625)"/>
       </defs>
       <use xlink:href="#DejaVuSans-34"/>
       <use xlink:href="#DejaVuSans-30" x="63.623047"/>
      </g>
     </g>
    </g>
    <g id="xtick_4">
     <g id="line2d_4">
      <g>
       <use xlink:href="#me7a0978167" x="209.863636" y="192.24" style="stroke: #000000; stroke-width: 0.8"/>
      </g>
     </g>
     <g id="text_4">
      <!-- 60 -->
      <g transform="translate(203.501136 206.838437) scale(0.1 -0.1)">
       <defs>
        <path id="DejaVuSans-36" d="M 2113 2584 
Q 1688 2584 1439 2293 
Q 1191 2003 1191 1497 
Q 1191 994 1439 701 
Q 1688 409 2113 409 
Q 2538 409 2786 701 
Q 3034 994 3034 1497 
Q 3034 2003 2786 2293 
Q 2538 2584 2113 2584 
z
M 3366 4563 
L 3366 3988 
Q 3128 4100 2886 4159 
Q 2644 4219 2406 4219 
Q 1781 4219 1451 3797 
Q 1122 3375 1075 2522 
Q 1259 2794 1537 2939 
Q 1816 3084 2150 3084 
Q 2853 3084 3261 2657 
Q 3669 2231 3669 1497 
Q 3669 778 3244 343 
Q 2819 -91 2113 -91 
Q 1303 -91 875 529 
Q 447 1150 447 2328 
Q 447 3434 972 4092 
Q 1497 4750 2381 4750 
Q 2619 4750 2861 4703 
Q 3103 4656 3366 4563 
z
" transform="scale(0.015625)"/>
       </defs>
       <use xlink:href="#DejaVuSans-36"/>
       <use xlink:href="#DejaVuSans-30" x="63.623047"/>
      </g>
     </g>
    </g>
    <g id="xtick_5">
     <g id="line2d_5">
      <g>
       <use xlink:href="#me7a0978167" x="260.590909" y="192.24" style="stroke: #000000; stroke-width: 0.8"/>
      </g>
     </g>
     <g id="text_5">
      <!-- 80 -->
      <g transform="translate(254.228409 206.838437) scale(0.1 -0.1)">
       <defs>
        <path id="DejaVuSans-38" d="M 2034 2216 
Q 1584 2216 1326 1975 
Q 1069 1734 1069 1313 
Q 1069 891 1326 650 
Q 1584 409 2034 409 
Q 2484 409 2743 651 
Q 3003 894 3003 1313 
Q 3003 1734 2745 1975 
Q 2488 2216 2034 2216 
z
M 1403 2484 
Q 997 2584 770 2862 
Q 544 3141 544 3541 
Q 544 4100 942 4425 
Q 1341 4750 2034 4750 
Q 2731 4750 3128 4425 
Q 3525 4100 3525 3541 
Q 3525 3141 3298 2862 
Q 3072 2584 2669 2484 
Q 3125 2378 3379 2068 
Q 3634 1759 3634 1313 
Q 3634 634 3220 271 
Q 2806 -91 2034 -91 
Q 1263 -91 848 271 
Q 434 634 434 1313 
Q 434 1759 690 2068 
Q 947 2378 1403 2484 
z
M 1172 3481 
Q 1172 3119 1398 2916 
Q 1625 2713 2034 2713 
Q 2441 2713 2670 2916 
Q 2900 3119 2900 3481 
Q 2900 3844 2670 4047 
Q 2441 4250 2034 4250 
Q 1625 4250 1398 4047 
Q 1172 3844 1172 3481 
z
" transform="scale(0.015625)"/>
       </defs>
       <use xlink:href="#DejaVuSans-38"/>
       <use xlink:href="#DejaVuSans-30" x="63.623047"/>
      </g>
     </g>
    </g>
    <g id="xtick_6">
     <g id="line2d_6">
      <g>
       <use xlink:href="#me7a0978167" x="311.318182" y="192.24" style="stroke: #000000; stroke-width: 0.8"/>
      </g>
     </g>
     <g id="text_6">
      <!-- 100 -->
      <g transform="translate(301.774432 206.838437) scale(0.1 -0.1)">
       <defs>
        <path id="DejaVuSans-31" d="M 794 531 
L 1825 531 
L 1825 4091 
L 703 3866 
L 703 4441 
L 1819 4666 
L 2450 4666 
L 2450 531 
L 3481 531 
L 3481 0 
L 794 0 
L 794 531 
z
" transform="scale(0.015625)"/>
       </defs>
       <use xlink:href="#DejaVuSans-31"/>
       <use xlink:href="#DejaVuSans-30" x="63.623047"/>
       <use xlink:href="#DejaVuSans-30" x="127.246094"/>
      </g>
     </g>
    </g>
    <g id="text_7">
     <!-- None -->
     <g transform="translate(171.454688 220.516562) scale(0.1 -0.1)">
      <defs>
       <path id="DejaVuSans-4e" d="M 628 4666 
L 1478 4666 
L 3547 763 
L 3547 4666 
L 4159 4666 
L 4159 0 
L 3309 0 
L 1241 3903 
L 1241 0 
L 628 0 
L 628 4666 
z
" transform="scale(0.015625)"/>
       <path id="DejaVuSans-6f" d="M 1959 3097 
Q 1497 3097 1228 2736 
Q 959 2375 959 1747 
Q 959 1119 1226 758 
Q 1494 397 1959 397 
Q 2419 397 2687 759 
Q 2956 1122 2956 1747 
Q 2956 2369 2687 2733 
Q 2419 3097 1959 3097 
z
M 1959 3584 
Q 2709 3584 3137 3096 
Q 3566 2609 3566 1747 
Q 3566 888 3137 398 
Q 2709 -91 1959 -91 
Q 1206 -91 779 398 
Q 353 888 353 1747 
Q 353 2609 779 3096 
Q 1206 3584 1959 3584 
z
" transform="scale(0.015625)"/>
       <path id="DejaVuSans-6e" d="M 3513 2113 
L 3513 0 
L 2938 0 
L 2938 2094 
Q 2938 2591 2744 2837 
Q 2550 3084 2163 3084 
Q 1697 3084 1428 2787 
Q 1159 2491 1159 1978 
L 1159 0 
L 581 0 
L 581 3500 
L 1159 3500 
L 1159 2956 
Q 1366 3272 1645 3428 
Q 1925 3584 2291 3584 
Q 2894 3584 3203 3211 
Q 3513 2838 3513 2113 
z
" transform="scale(0.015625)"/>
       <path id="DejaVuSans-65" d="M 3597 1894 
L 3597 1613 
L 953 1613 
Q 991 1019 1311 708 
Q 1631 397 2203 397 
Q 2534 397 2845 478 
Q 3156 559 3463 722 
L 3463 178 
Q 3153 47 2828 -22 
Q 2503 -91 2169 -91 
Q 1331 -91 842 396 
Q 353 884 353 1716 
Q 353 2575 817 3079 
Q 1281 3584 2069 3584 
Q 2775 3584 3186 3129 
Q 3597 2675 3597 1894 
z
M 3022 2063 
Q 3016 2534 2758 2815 
Q 2500 3097 2075 3097 
Q 1594 3097 1305 2825 
Q 1016 2553 972 2059 
L 3022 2063 
z
" transform="scale(0.015625)"/>
      </defs>
      <use xlink:href="#DejaVuSans-4e"/>
      <use xlink:href="#DejaVuSans-6f" x="74.804688"/>
      <use xlink:href="#DejaVuSans-6e" x="135.986328"/>
      <use xlink:href="#DejaVuSans-65" x="199.365234"/>
     </g>
    </g>
   </g>
   <g id="matplotlib.axis_2">
    <g id="ytick_1">
     <g id="line2d_7">
      <defs>
       <path id="mb490fa0897" d="M 0 0 
L -3.5 0 
" style="stroke: #000000; stroke-width: 0.8"/>
      </defs>
      <g>
       <use xlink:href="#mb490fa0897" x="45" y="184.680467" style="stroke: #000000; stroke-width: 0.8"/>
      </g>
     </g>
     <g id="text_8">
      <!-- 0.0 -->
      <g transform="translate(22.096875 188.479686) scale(0.1 -0.1)">
       <defs>
        <path id="DejaVuSans-2e" d="M 684 794 
L 1344 794 
L 1344 0 
L 684 0 
L 684 794 
z
" transform="scale(0.015625)"/>
       </defs>
       <use xlink:href="#DejaVuSans-30"/>
       <use xlink:href="#DejaVuSans-2e" x="63.623047"/>
       <use xlink:href="#DejaVuSans-30" x="95.410156"/>
      </g>
     </g>
    </g>
    <g id="ytick_2">
     <g id="line2d_8">
      <g>
       <use xlink:href="#mb490fa0897" x="45" y="163.42306" style="stroke: #000000; stroke-width: 0.8"/>
      </g>
     </g>
     <g id="text_9">
      <!-- 0.1 -->
      <g transform="translate(22.096875 167.222278) scale(0.1 -0.1)">
       <use xlink:href="#DejaVuSans-30"/>
       <use xlink:href="#DejaVuSans-2e" x="63.623047"/>
       <use xlink:href="#DejaVuSans-31" x="95.410156"/>
      </g>
     </g>
    </g>
    <g id="ytick_3">
     <g id="line2d_9">
      <g>
       <use xlink:href="#mb490fa0897" x="45" y="142.165652" style="stroke: #000000; stroke-width: 0.8"/>
      </g>
     </g>
     <g id="text_10">
      <!-- 0.2 -->
      <g transform="translate(22.096875 145.964871) scale(0.1 -0.1)">
       <use xlink:href="#DejaVuSans-30"/>
       <use xlink:href="#DejaVuSans-2e" x="63.623047"/>
       <use xlink:href="#DejaVuSans-32" x="95.410156"/>
      </g>
     </g>
    </g>
    <g id="ytick_4">
     <g id="line2d_10">
      <g>
       <use xlink:href="#mb490fa0897" x="45" y="120.908244" style="stroke: #000000; stroke-width: 0.8"/>
      </g>
     </g>
     <g id="text_11">
      <!-- 0.3 -->
      <g transform="translate(22.096875 124.707463) scale(0.1 -0.1)">
       <defs>
        <path id="DejaVuSans-33" d="M 2597 2516 
Q 3050 2419 3304 2112 
Q 3559 1806 3559 1356 
Q 3559 666 3084 287 
Q 2609 -91 1734 -91 
Q 1441 -91 1130 -33 
Q 819 25 488 141 
L 488 750 
Q 750 597 1062 519 
Q 1375 441 1716 441 
Q 2309 441 2620 675 
Q 2931 909 2931 1356 
Q 2931 1769 2642 2001 
Q 2353 2234 1838 2234 
L 1294 2234 
L 1294 2753 
L 1863 2753 
Q 2328 2753 2575 2939 
Q 2822 3125 2822 3475 
Q 2822 3834 2567 4026 
Q 2313 4219 1838 4219 
Q 1578 4219 1281 4162 
Q 984 4106 628 3988 
L 628 4550 
Q 988 4650 1302 4700 
Q 1616 4750 1894 4750 
Q 2613 4750 3031 4423 
Q 3450 4097 3450 3541 
Q 3450 3153 3228 2886 
Q 3006 2619 2597 2516 
z
" transform="scale(0.015625)"/>
       </defs>
       <use xlink:href="#DejaVuSans-30"/>
       <use xlink:href="#DejaVuSans-2e" x="63.623047"/>
       <use xlink:href="#DejaVuSans-33" x="95.410156"/>
      </g>
     </g>
    </g>
    <g id="ytick_5">
     <g id="line2d_11">
      <g>
       <use xlink:href="#mb490fa0897" x="45" y="99.650837" style="stroke: #000000; stroke-width: 0.8"/>
      </g>
     </g>
     <g id="text_12">
      <!-- 0.4 -->
      <g transform="translate(22.096875 103.450055) scale(0.1 -0.1)">
       <use xlink:href="#DejaVuSans-30"/>
       <use xlink:href="#DejaVuSans-2e" x="63.623047"/>
       <use xlink:href="#DejaVuSans-34" x="95.410156"/>
      </g>
     </g>
    </g>
    <g id="ytick_6">
     <g id="line2d_12">
      <g>
       <use xlink:href="#mb490fa0897" x="45" y="78.393429" style="stroke: #000000; stroke-width: 0.8"/>
      </g>
     </g>
     <g id="text_13">
      <!-- 0.5 -->
      <g transform="translate(22.096875 82.192648) scale(0.1 -0.1)">
       <defs>
        <path id="DejaVuSans-35" d="M 691 4666 
L 3169 4666 
L 3169 4134 
L 1269 4134 
L 1269 2991 
Q 1406 3038 1543 3061 
Q 1681 3084 1819 3084 
Q 2600 3084 3056 2656 
Q 3513 2228 3513 1497 
Q 3513 744 3044 326 
Q 2575 -91 1722 -91 
Q 1428 -91 1123 -41 
Q 819 9 494 109 
L 494 744 
Q 775 591 1075 516 
Q 1375 441 1709 441 
Q 2250 441 2565 725 
Q 2881 1009 2881 1497 
Q 2881 1984 2565 2268 
Q 2250 2553 1709 2553 
Q 1456 2553 1204 2497 
Q 953 2441 691 2322 
L 691 4666 
z
" transform="scale(0.015625)"/>
       </defs>
       <use xlink:href="#DejaVuSans-30"/>
       <use xlink:href="#DejaVuSans-2e" x="63.623047"/>
       <use xlink:href="#DejaVuSans-35" x="95.410156"/>
      </g>
     </g>
    </g>
    <g id="ytick_7">
     <g id="line2d_13">
      <g>
       <use xlink:href="#mb490fa0897" x="45" y="57.136021" style="stroke: #000000; stroke-width: 0.8"/>
      </g>
     </g>
     <g id="text_14">
      <!-- 0.6 -->
      <g transform="translate(22.096875 60.93524) scale(0.1 -0.1)">
       <use xlink:href="#DejaVuSans-30"/>
       <use xlink:href="#DejaVuSans-2e" x="63.623047"/>
       <use xlink:href="#DejaVuSans-36" x="95.410156"/>
      </g>
     </g>
    </g>
    <g id="ytick_8">
     <g id="line2d_14">
      <g>
       <use xlink:href="#mb490fa0897" x="45" y="35.878614" style="stroke: #000000; stroke-width: 0.8"/>
      </g>
     </g>
     <g id="text_15">
      <!-- 0.7 -->
      <g transform="translate(22.096875 39.677833) scale(0.1 -0.1)">
       <defs>
        <path id="DejaVuSans-37" d="M 525 4666 
L 3525 4666 
L 3525 4397 
L 1831 0 
L 1172 0 
L 2766 4134 
L 525 4134 
L 525 4666 
z
" transform="scale(0.015625)"/>
       </defs>
       <use xlink:href="#DejaVuSans-30"/>
       <use xlink:href="#DejaVuSans-2e" x="63.623047"/>
       <use xlink:href="#DejaVuSans-37" x="95.410156"/>
      </g>
     </g>
    </g>
    <g id="text_16">
     <!-- eveness -->
     <g transform="translate(16.017187 129.647187) rotate(-90) scale(0.1 -0.1)">
      <defs>
       <path id="DejaVuSans-76" d="M 191 3500 
L 800 3500 
L 1894 563 
L 2988 3500 
L 3597 3500 
L 2284 0 
L 1503 0 
L 191 3500 
z
" transform="scale(0.015625)"/>
       <path id="DejaVuSans-73" d="M 2834 3397 
L 2834 2853 
Q 2591 2978 2328 3040 
Q 2066 3103 1784 3103 
Q 1356 3103 1142 2972 
Q 928 2841 928 2578 
Q 928 2378 1081 2264 
Q 1234 2150 1697 2047 
L 1894 2003 
Q 2506 1872 2764 1633 
Q 3022 1394 3022 966 
Q 3022 478 2636 193 
Q 2250 -91 1575 -91 
Q 1294 -91 989 -36 
Q 684 19 347 128 
L 347 722 
Q 666 556 975 473 
Q 1284 391 1588 391 
Q 1994 391 2212 530 
Q 2431 669 2431 922 
Q 2431 1156 2273 1281 
Q 2116 1406 1581 1522 
L 1381 1569 
Q 847 1681 609 1914 
Q 372 2147 372 2553 
Q 372 3047 722 3315 
Q 1072 3584 1716 3584 
Q 2034 3584 2315 3537 
Q 2597 3491 2834 3397 
z
" transform="scale(0.015625)"/>
      </defs>
      <use xlink:href="#DejaVuSans-65"/>
      <use xlink:href="#DejaVuSans-76" x="61.523438"/>
      <use xlink:href="#DejaVuSans-65" x="120.703125"/>
      <use xlink:href="#DejaVuSans-6e" x="182.226562"/>
      <use xlink:href="#DejaVuSans-65" x="245.605469"/>
      <use xlink:href="#DejaVuSans-73" x="307.128906"/>
      <use xlink:href="#DejaVuSans-73" x="359.228516"/>
     </g>
    </g>
   </g>
   <g id="line2d_15">
    <path d="M 60.218182 56.156907 
L 62.754545 163.297734 
L 65.290909 184.676934 
L 67.827273 184.667095 
L 70.363636 184.67821 
L 72.9 184.672629 
L 75.436364 184.677065 
L 77.972727 184.675419 
L 80.509091 184.676131 
L 83.045455 184.677826 
L 85.581818 184.669759 
L 88.118182 184.677558 
L 90.654545 184.67436 
L 93.190909 184.678358 
L 95.727273 184.675189 
L 98.263636 184.676434 
L 100.8 184.677293 
L 103.336364 184.673681 
L 105.872727 184.677958 
L 108.409091 184.679278 
L 110.945455 184.67859 
L 113.481818 184.678901 
L 116.018182 184.677808 
L 118.554545 184.679577 
L 121.090909 184.676275 
L 123.627273 184.674818 
L 126.163636 184.657124 
L 128.7 184.68 
L 131.236364 184.67718 
L 133.772727 184.673789 
L 136.309091 184.679785 
L 138.845455 184.671708 
L 141.381818 184.676652 
L 143.918182 184.679263 
L 146.454545 184.679344 
L 148.990909 184.669428 
L 151.527273 184.679344 
L 154.063636 184.679468 
L 156.6 184.66853 
L 159.136364 184.677464 
L 161.672727 184.677834 
L 164.209091 184.676482 
L 166.745455 184.678588 
L 169.281818 184.678906 
L 171.818182 184.6789 
L 174.354545 184.679939 
L 176.890909 184.679785 
L 179.427273 184.67788 
L 181.963636 184.678881 
L 184.5 184.67824 
L 187.036364 184.669913 
L 189.572727 184.679459 
L 192.109091 184.672322 
L 194.645455 184.67463 
L 197.181818 184.67374 
L 199.718182 184.679265 
L 202.254545 184.679033 
L 204.790909 184.679478 
L 207.327273 184.675553 
L 209.863636 184.679785 
L 212.4 184.677648 
L 214.936364 184.679344 
L 217.472727 184.68 
L 220.009091 184.67865 
L 222.545455 184.677296 
L 225.081818 184.679086 
L 227.618182 184.676768 
L 230.154545 184.678661 
L 232.690909 184.68 
L 235.227273 184.678625 
L 237.763636 184.678208 
L 240.3 184.67945 
L 242.836364 184.678239 
L 245.372727 184.678173 
L 247.909091 184.676638 
L 250.445455 184.673149 
L 252.981818 184.678812 
L 255.518182 184.67538 
L 258.054545 184.670085 
L 260.590909 184.673617 
L 263.127273 184.677718 
L 268.2 184.677249 
L 270.736364 184.677858 
L 273.272727 184.679191 
L 275.809091 184.679607 
L 278.345455 184.679016 
L 280.881818 184.677997 
L 283.418182 184.672496 
L 285.954545 184.678917 
L 288.490909 184.679329 
L 291.027273 184.67958 
L 293.563636 184.674917 
L 296.1 184.675531 
L 298.636364 184.676517 
L 301.172727 184.678941 
L 303.709091 184.676743 
L 306.245455 184.676074 
L 308.781818 184.677834 
L 311.318182 184.676231 
" clip-path="url(#pdd9f6031a6)" style="fill: none; stroke: #1f77b4; stroke-width: 1.5; stroke-linecap: square"/>
   </g>
   <g id="line2d_16">
    <path d="M 57.681818 33.48 
L 60.218182 117.897598 
L 62.754545 138.478398 
L 65.290909 149.65826 
L 67.827273 156.152793 
L 70.363636 160.482027 
L 72.9 163.541741 
L 75.436364 165.858925 
L 77.972727 167.677283 
L 80.509091 169.13246 
L 83.045455 170.268336 
L 85.581818 171.207776 
L 88.118182 171.998465 
L 90.654545 172.663947 
L 93.190909 173.341834 
L 95.727273 173.91246 
L 98.263636 174.397867 
L 100.8 174.872885 
L 103.336364 175.309381 
L 105.872727 175.706448 
L 108.409091 176.067272 
L 110.945455 176.387624 
L 113.481818 176.674026 
L 116.018182 176.950173 
L 118.554545 177.200489 
L 121.090909 177.437555 
L 123.627273 177.671697 
L 126.163636 177.907057 
L 128.7 178.111415 
L 131.236364 178.303934 
L 133.772727 178.489037 
L 136.309091 178.668417 
L 138.845455 178.83765 
L 141.381818 178.99762 
L 143.918182 179.149127 
L 146.454545 179.29296 
L 148.990909 179.437484 
L 151.527273 179.567777 
L 154.063636 179.68148 
L 156.6 179.805986 
L 159.136364 179.920655 
L 161.672727 180.026869 
L 164.209091 180.13185 
L 166.745455 180.229134 
L 169.281818 180.32152 
L 171.818182 180.414013 
L 174.354545 180.49996 
L 176.890909 180.582613 
L 179.427273 180.672045 
L 181.963636 180.7484 
L 184.5 180.822001 
L 187.036364 180.898922 
L 189.572727 180.967313 
L 192.109091 181.034162 
L 194.645455 181.112548 
L 197.181818 181.174034 
L 199.718182 181.233557 
L 202.254545 181.291195 
L 204.790909 181.337736 
L 207.327273 181.391942 
L 209.863636 181.444518 
L 212.4 181.488248 
L 214.936364 181.532205 
L 217.472727 181.580478 
L 220.009091 181.627394 
L 222.545455 181.675438 
L 225.081818 181.717486 
L 227.618182 181.760627 
L 230.154545 181.799946 
L 232.690909 181.838557 
L 235.227273 181.876119 
L 237.763636 181.915035 
L 240.3 181.948883 
L 242.836364 181.985944 
L 245.372727 182.022076 
L 247.909091 182.059602 
L 250.445455 182.09081 
L 252.981818 182.124448 
L 255.518182 182.157313 
L 258.054545 182.18943 
L 260.590909 182.220823 
L 263.127273 182.251499 
L 265.663636 182.279381 
L 268.2 182.308781 
L 270.736364 182.337557 
L 273.272727 182.363612 
L 275.809091 182.391193 
L 278.345455 182.418208 
L 280.881818 182.444664 
L 283.418182 182.475604 
L 285.954545 182.500955 
L 288.490909 182.521792 
L 291.027273 182.544117 
L 293.563636 182.56931 
L 296.1 182.589525 
L 298.636364 182.608796 
L 301.172727 182.631518 
L 303.709091 182.653808 
L 306.245455 182.675713 
L 308.781818 182.697225 
L 311.318182 182.714511 
" clip-path="url(#pdd9f6031a6)" style="fill: none; stroke: #ff7f0e; stroke-width: 1.5; stroke-linecap: square"/>
   </g>
   <g id="patch_3">
    <path d="M 45 192.24 
L 45 25.92 
" style="fill: none; stroke: #000000; stroke-width: 0.8; stroke-linejoin: miter; stroke-linecap: square"/>
   </g>
   <g id="patch_4">
    <path d="M 324 192.24 
L 324 25.92 
" style="fill: none; stroke: #000000; stroke-width: 0.8; stroke-linejoin: miter; stroke-linecap: square"/>
   </g>
   <g id="patch_5">
    <path d="M 45 192.24 
L 324 192.24 
" style="fill: none; stroke: #000000; stroke-width: 0.8; stroke-linejoin: miter; stroke-linecap: square"/>
   </g>
   <g id="patch_6">
    <path d="M 45 25.92 
L 324 25.92 
" style="fill: none; stroke: #000000; stroke-width: 0.8; stroke-linejoin: miter; stroke-linecap: square"/>
   </g>
  </g>
 </g>
 <defs>
  <clipPath id="pdd9f6031a6">
   <rect x="45" y="25.92" width="279" height="166.32"/>
  </clipPath>
 </defs>
</svg>
