<?xml version="1.0" encoding="utf-8" standalone="no"?>
<!DOCTYPE svg PUBLIC "-//W3C//DTD SVG 1.1//EN"
  "http://www.w3.org/Graphics/SVG/1.1/DTD/svg11.dtd">
<svg xmlns:xlink="http://www.w3.org/1999/xlink" width="288pt" height="216pt" viewBox="0 0 288 216" xmlns="http://www.w3.org/2000/svg" version="1.1">
 <metadata>
  <rdf:RDF xmlns:dc="http://purl.org/dc/elements/1.1/" xmlns:cc="http://creativecommons.org/ns#" xmlns:rdf="http://www.w3.org/1999/02/22-rdf-syntax-ns#">
   <cc:Work>
    <dc:type rdf:resource="http://purl.org/dc/dcmitype/StillImage"/>
    <dc:date>2024-12-02T21:10:17.042807</dc:date>
    <dc:format>image/svg+xml</dc:format>
    <dc:creator>
     <cc:Agent>
      <dc:title>Matplotlib v3.8.2, https://matplotlib.org/</dc:title>
     </cc:Agent>
    </dc:creator>
   </cc:Work>
  </rdf:RDF>
 </metadata>
 <defs>
  <style type="text/css">*{stroke-linejoin: round; stroke-linecap: butt}</style>
 </defs>
 <g id="figure_1">
  <g id="patch_1">
   <path d="M 0 216 
L 288 216 
L 288 0 
L 0 0 
z
" style="fill: #ffffff"/>
  </g>
  <g id="axes_1">
   <g id="patch_2">
    <path d="M 36 192.24 
L 259.2 192.24 
L 259.2 25.92 
L 36 25.92 
z
" style="fill: #ffffff"/>
   </g>
   <g id="PolyCollection_1">
    <path d="M 48.174545 101.601123 
L 48.174545 122.807594 
L 50.203636 91.721078 
L 52.232727 78.226415 
L 54.261818 72.779906 
L 56.290909 80.712018 
L 58.32 74.157737 
L 60.349091 72.779906 
L 62.378182 79.127009 
L 64.407273 66.146547 
L 66.436364 72.087238 
L 68.465455 72.087238 
L 70.494545 72.087238 
L 72.523636 66.146547 
L 74.552727 67.603457 
L 76.581818 67.603457 
L 78.610909 73.472575 
L 80.64 72.087238 
L 82.669091 67.603457 
L 84.698182 80.095331 
L 86.727273 72.087238 
L 88.756364 67.603457 
L 90.785455 72.087238 
L 92.814545 72.087238 
L 94.843636 66.146547 
L 96.872727 67.603457 
L 98.901818 66.146547 
L 100.930909 66.146547 
L 102.96 66.146547 
L 104.989091 72.087238 
L 107.018182 66.146547 
L 109.047273 80.712018 
L 111.076364 72.087238 
L 111.076364 59.420875 
L 111.076364 59.420875 
L 109.047273 59.420875 
L 107.018182 59.420875 
L 104.989091 59.420875 
L 102.96 38.147494 
L 100.930909 43.06282 
L 98.901818 59.420875 
L 96.872727 43.06282 
L 94.843636 59.420875 
L 92.814545 38.147494 
L 90.785455 59.420875 
L 88.756364 38.147494 
L 86.727273 38.147494 
L 84.698182 72.087238 
L 82.669091 66.146547 
L 80.64 43.06282 
L 78.610909 72.087238 
L 76.581818 33.48 
L 74.552727 38.147494 
L 72.523636 59.420875 
L 70.494545 69.973893 
L 68.465455 46.877063 
L 66.436364 38.147494 
L 64.407273 38.147494 
L 62.378182 43.06282 
L 60.349091 37.720869 
L 58.32 37.720869 
L 56.290909 38.147494 
L 54.261818 38.27141 
L 52.232727 53.450537 
L 50.203636 65.974779 
L 48.174545 101.601123 
z
" clip-path="url(#p77efc8f16a)" style="fill: #1f77b4; fill-opacity: 0.2; stroke: #1f77b4; stroke-opacity: 0.2"/>
    <path d="M 115.134545 43.06282 
L 115.134545 66.146547 
L 117.163636 73.472575 
L 119.192727 66.146547 
L 121.221818 66.146547 
L 123.250909 74.15241 
L 125.28 72.087238 
L 127.309091 72.087238 
L 129.338182 66.146547 
L 131.367273 69.237085 
L 133.396364 67.603457 
L 135.425455 79.626484 
L 137.454545 66.146547 
L 139.483636 73.472575 
L 141.512727 67.603457 
L 143.541818 69.973893 
L 145.570909 66.146547 
L 145.570909 59.420875 
L 145.570909 59.420875 
L 143.541818 66.146547 
L 141.512727 66.146547 
L 139.483636 72.087238 
L 137.454545 59.420875 
L 135.425455 59.420875 
L 133.396364 66.146547 
L 131.367273 66.146547 
L 129.338182 43.06282 
L 127.309091 67.603457 
L 125.28 43.06282 
L 123.250909 67.603457 
L 121.221818 38.147494 
L 119.192727 59.420875 
L 117.163636 38.147494 
L 115.134545 43.06282 
z
" clip-path="url(#p77efc8f16a)" style="fill: #1f77b4; fill-opacity: 0.2; stroke: #1f77b4; stroke-opacity: 0.2"/>
    <path d="M 149.629091 59.420875 
L 149.629091 66.146547 
L 151.658182 66.146547 
L 153.687273 69.973893 
L 155.716364 67.603457 
L 157.745455 66.146547 
L 159.774545 66.146547 
L 161.803636 66.146547 
L 161.803636 59.420875 
L 161.803636 59.420875 
L 159.774545 59.420875 
L 157.745455 59.420875 
L 155.716364 66.146547 
L 153.687273 66.146547 
L 151.658182 43.06282 
L 149.629091 59.420875 
z
" clip-path="url(#p77efc8f16a)" style="fill: #1f77b4; fill-opacity: 0.2; stroke: #1f77b4; stroke-opacity: 0.2"/>
    <path d="M 165.861818 59.420875 
L 165.861818 66.146547 
L 167.890909 66.146547 
L 167.890909 59.420875 
L 167.890909 59.420875 
L 165.861818 59.420875 
z
" clip-path="url(#p77efc8f16a)" style="fill: #1f77b4; fill-opacity: 0.2; stroke: #1f77b4; stroke-opacity: 0.2"/>
    <path d="M 171.949091 59.420875 
L 171.949091 66.146547 
L 173.978182 69.973893 
L 176.007273 67.603457 
L 178.036364 67.603457 
L 180.065455 72.087238 
L 182.094545 72.087238 
L 184.123636 66.146547 
L 186.152727 72.087238 
L 188.181818 72.087238 
L 190.210909 66.146547 
L 192.24 72.087238 
L 194.269091 66.146547 
L 196.298182 66.146547 
L 198.327273 66.146547 
L 200.356364 66.146547 
L 200.356364 59.420875 
L 200.356364 59.420875 
L 198.327273 59.420875 
L 196.298182 59.420875 
L 194.269091 59.420875 
L 192.24 69.237085 
L 190.210909 59.420875 
L 188.181818 67.603457 
L 186.152727 59.420875 
L 184.123636 59.420875 
L 182.094545 59.420875 
L 180.065455 59.420875 
L 178.036364 43.06282 
L 176.007273 66.146547 
L 173.978182 66.146547 
L 171.949091 59.420875 
z
" clip-path="url(#p77efc8f16a)" style="fill: #1f77b4; fill-opacity: 0.2; stroke: #1f77b4; stroke-opacity: 0.2"/>
    <path d="M 206.443636 43.06282 
L 206.443636 74.15241 
L 208.472727 79.626484 
L 208.472727 43.06282 
L 208.472727 43.06282 
L 206.443636 43.06282 
z
" clip-path="url(#p77efc8f16a)" style="fill: #1f77b4; fill-opacity: 0.2; stroke: #1f77b4; stroke-opacity: 0.2"/>
    <path d="M 212.530909 59.420875 
L 212.530909 79.626484 
L 214.56 66.146547 
L 214.56 59.420875 
L 214.56 59.420875 
L 212.530909 59.420875 
z
" clip-path="url(#p77efc8f16a)" style="fill: #1f77b4; fill-opacity: 0.2; stroke: #1f77b4; stroke-opacity: 0.2"/>
    <path d="M 220.647273 59.420875 
L 220.647273 66.146547 
L 222.676364 69.237085 
L 224.705455 66.146547 
L 224.705455 43.06282 
L 224.705455 43.06282 
L 222.676364 66.146547 
L 220.647273 59.420875 
z
" clip-path="url(#p77efc8f16a)" style="fill: #1f77b4; fill-opacity: 0.2; stroke: #1f77b4; stroke-opacity: 0.2"/>
    <path d="M 228.763636 59.420875 
L 228.763636 72.087238 
L 230.792727 66.146547 
L 232.821818 66.146547 
L 234.850909 72.087238 
L 234.850909 69.237085 
L 234.850909 69.237085 
L 232.821818 38.147494 
L 230.792727 59.420875 
L 228.763636 59.420875 
z
" clip-path="url(#p77efc8f16a)" style="fill: #1f77b4; fill-opacity: 0.2; stroke: #1f77b4; stroke-opacity: 0.2"/>
    <path d="M 238.909091 59.420875 
L 238.909091 66.146547 
L 238.909091 59.420875 
L 238.909091 59.420875 
z
" clip-path="url(#p77efc8f16a)" style="fill: #1f77b4; fill-opacity: 0.2; stroke: #1f77b4; stroke-opacity: 0.2"/>
    <path d="M 242.967273 59.420875 
L 242.967273 74.15241 
L 242.967273 59.420875 
L 242.967273 59.420875 
z
" clip-path="url(#p77efc8f16a)" style="fill: #1f77b4; fill-opacity: 0.2; stroke: #1f77b4; stroke-opacity: 0.2"/>
    <path d="M 247.025455 59.420875 
L 247.025455 66.146547 
L 249.054545 66.146547 
L 249.054545 59.420875 
L 249.054545 59.420875 
L 247.025455 59.420875 
z
" clip-path="url(#p77efc8f16a)" style="fill: #1f77b4; fill-opacity: 0.2; stroke: #1f77b4; stroke-opacity: 0.2"/>
   </g>
   <g id="PolyCollection_2">
    <defs>
     <path id="m1f7d861bf3" d="M 46.145455 -34.193361 
L 46.145455 -34.193361 
L 48.174545 -31.451193 
L 50.203636 -31.32 
L 52.232727 -33.664606 
L 54.261818 -33.568722 
L 56.290909 -33.694459 
L 58.32 -34.357953 
L 60.349091 -35.632438 
L 62.378182 -36.273782 
L 64.407273 -36.184899 
L 66.436364 -36.184899 
L 68.465455 -36.184899 
L 70.494545 -36.329978 
L 72.523636 -35.903842 
L 74.552727 -35.903842 
L 76.581818 -36.616902 
L 78.610909 -35.987073 
L 80.64 -35.987073 
L 82.669091 -35.407709 
L 84.698182 -36.942145 
L 86.727273 -36.942145 
L 88.756364 -36.97469 
L 90.785455 -36.97469 
L 92.814545 -36.619061 
L 94.843636 -36.619061 
L 96.872727 -36.306653 
L 98.901818 -36.306653 
L 100.930909 -36.199487 
L 102.96 -36.199487 
L 104.989091 -36.199487 
L 107.018182 -36.199487 
L 109.047273 -35.657666 
L 111.076364 -35.657666 
L 113.105455 -35.657666 
L 115.134545 -35.657666 
L 117.163636 -35.657666 
L 119.192727 -35.80243 
L 121.221818 -35.785851 
L 123.250909 -35.621047 
L 125.28 -35.621047 
L 127.309091 -35.76385 
L 129.338182 -35.621047 
L 131.367273 -35.599075 
L 133.396364 -35.621047 
L 135.425455 -35.621047 
L 137.454545 -35.621047 
L 139.483636 -35.621047 
L 141.512727 -35.76385 
L 143.541818 -35.621047 
L 145.570909 -35.621047 
L 147.6 -35.621047 
L 149.629091 -35.621047 
L 151.658182 -35.778653 
L 153.687273 -35.778653 
L 155.716364 -35.778653 
L 157.745455 -35.91028 
L 159.774545 -35.769283 
L 161.803636 -35.963139 
L 163.832727 -35.309851 
L 165.861818 -35.309851 
L 167.890909 -35.309851 
L 169.92 -35.309851 
L 171.949091 -35.309851 
L 173.978182 -35.306315 
L 176.007273 -35.309851 
L 178.036364 -35.309851 
L 180.065455 -35.309851 
L 182.094545 -35.309851 
L 184.123636 -35.309851 
L 186.152727 -35.168437 
L 188.181818 -35.309851 
L 190.210909 -35.309851 
L 192.24 -35.309851 
L 194.269091 -35.842857 
L 196.298182 -35.701443 
L 198.327273 -35.842857 
L 200.356364 -35.842857 
L 202.385455 -35.842857 
L 204.414545 -35.755192 
L 206.443636 -35.842857 
L 208.472727 -35.842857 
L 210.501818 -35.986058 
L 212.530909 -35.991978 
L 214.56 -35.991978 
L 216.589091 -35.991978 
L 218.618182 -35.991978 
L 220.647273 -35.755192 
L 222.676364 -35.991978 
L 224.705455 -35.755192 
L 226.734545 -35.991978 
L 228.763636 -35.755192 
L 230.792727 -35.991978 
L 232.821818 -35.991978 
L 234.850909 -35.991978 
L 236.88 -35.991978 
L 238.909091 -35.991978 
L 240.938182 -35.755192 
L 242.967273 -35.991978 
L 244.996364 -35.991978 
L 247.025455 -35.991978 
L 249.054545 -35.991978 
L 249.054545 -38.274992 
L 249.054545 -38.274992 
L 247.025455 -38.038206 
L 244.996364 -38.044126 
L 242.967273 -38.038206 
L 240.938182 -38.274992 
L 238.909091 -38.038206 
L 236.88 -38.038206 
L 234.850909 -38.380691 
L 232.821818 -37.992699 
L 230.792727 -37.992699 
L 228.763636 -37.992699 
L 226.734545 -38.101865 
L 224.705455 -38.101865 
L 222.676364 -38.101865 
L 220.647273 -38.101865 
L 218.618182 -38.101865 
L 216.589091 -38.101865 
L 214.56 -38.101865 
L 212.530909 -38.101865 
L 210.501818 -38.107785 
L 208.472727 -38.641996 
L 206.443636 -38.641996 
L 204.414545 -38.641996 
L 202.385455 -38.641996 
L 200.356364 -38.588248 
L 198.327273 -38.588248 
L 196.298182 -38.588248 
L 194.269091 -38.588248 
L 192.24 -38.588248 
L 190.210909 -38.588248 
L 188.181818 -37.586801 
L 186.152727 -37.586801 
L 184.123636 -37.586801 
L 182.094545 -37.586801 
L 180.065455 -37.586801 
L 178.036364 -37.586801 
L 176.007273 -37.586801 
L 173.978182 -37.586801 
L 171.949091 -37.590336 
L 169.92 -37.477512 
L 167.890909 -37.728215 
L 165.861818 -37.223188 
L 163.832727 -37.138025 
L 161.803636 -37.138025 
L 159.774545 -37.138025 
L 157.745455 -37.138025 
L 155.716364 -37.029332 
L 153.687273 -37.029332 
L 151.658182 -37.038702 
L 149.629091 -36.211699 
L 147.6 -36.831979 
L 145.570909 -36.831979 
L 143.541818 -36.831979 
L 141.512727 -36.831979 
L 139.483636 -36.831979 
L 137.454545 -36.831979 
L 135.425455 -36.686687 
L 133.396364 -36.665264 
L 131.367273 -36.665264 
L 129.338182 -36.664714 
L 127.309091 -36.664714 
L 125.28 -36.664714 
L 123.250909 -36.664714 
L 121.221818 -38.114976 
L 119.192727 -37.924566 
L 117.163636 -38.440016 
L 115.134545 -38.438242 
L 113.105455 -38.438242 
L 111.076364 -38.438242 
L 109.047273 -38.089153 
L 107.018182 -38.438242 
L 104.989091 -38.438242 
L 102.96 -38.438242 
L 100.930909 -38.438242 
L 98.901818 -38.425539 
L 96.872727 -38.61363 
L 94.843636 -38.733301 
L 92.814545 -38.733301 
L 90.785455 -38.767511 
L 88.756364 -38.733301 
L 86.727273 -38.733301 
L 84.698182 -38.733301 
L 82.669091 -38.682289 
L 80.64 -38.682289 
L 78.610909 -38.682289 
L 76.581818 -38.331622 
L 74.552727 -38.183784 
L 72.523636 -38.31388 
L 70.494545 -38.183784 
L 68.465455 -38.147515 
L 66.436364 -38.147515 
L 64.407273 -38.00382 
L 62.378182 -37.919567 
L 60.349091 -36.302681 
L 58.32 -35.497465 
L 56.290909 -36.356299 
L 54.261818 -36.338263 
L 52.232727 -35.75485 
L 50.203636 -33.809436 
L 48.174545 -34.269383 
L 46.145455 -34.193361 
z
" style="stroke: #ff7f0e; stroke-opacity: 0.2"/>
    </defs>
    <g clip-path="url(#p77efc8f16a)">
     <use xlink:href="#m1f7d861bf3" x="0" y="216" style="fill: #ff7f0e; fill-opacity: 0.2; stroke: #ff7f0e; stroke-opacity: 0.2"/>
    </g>
   </g>
   <g id="matplotlib.axis_1">
    <g id="xtick_1">
     <g id="line2d_1">
      <defs>
       <path id="m236f6206e1" d="M 0 0 
L 0 3.5 
" style="stroke: #000000; stroke-width: 0.8"/>
      </defs>
      <g>
       <use xlink:href="#m236f6206e1" x="46.145455" y="192.24" style="stroke: #000000; stroke-width: 0.8"/>
      </g>
     </g>
     <g id="text_1">
      <!-- 0 -->
      <g transform="translate(42.964205 206.838437) scale(0.1 -0.1)">
       <defs>
        <path id="DejaVuSans-30" d="M 2034 4250 
Q 1547 4250 1301 3770 
Q 1056 3291 1056 2328 
Q 1056 1369 1301 889 
Q 1547 409 2034 409 
Q 2525 409 2770 889 
Q 3016 1369 3016 2328 
Q 3016 3291 2770 3770 
Q 2525 4250 2034 4250 
z
M 2034 4750 
Q 2819 4750 3233 4129 
Q 3647 3509 3647 2328 
Q 3647 1150 3233 529 
Q 2819 -91 2034 -91 
Q 1250 -91 836 529 
Q 422 1150 422 2328 
Q 422 3509 836 4129 
Q 1250 4750 2034 4750 
z
" transform="scale(0.015625)"/>
       </defs>
       <use xlink:href="#DejaVuSans-30"/>
      </g>
     </g>
    </g>
    <g id="xtick_2">
     <g id="line2d_2">
      <g>
       <use xlink:href="#m236f6206e1" x="86.727273" y="192.24" style="stroke: #000000; stroke-width: 0.8"/>
      </g>
     </g>
     <g id="text_2">
      <!-- 20 -->
      <g transform="translate(80.364773 206.838437) scale(0.1 -0.1)">
       <defs>
        <path id="DejaVuSans-32" d="M 1228 531 
L 3431 531 
L 3431 0 
L 469 0 
L 469 531 
Q 828 903 1448 1529 
Q 2069 2156 2228 2338 
Q 2531 2678 2651 2914 
Q 2772 3150 2772 3378 
Q 2772 3750 2511 3984 
Q 2250 4219 1831 4219 
Q 1534 4219 1204 4116 
Q 875 4013 500 3803 
L 500 4441 
Q 881 4594 1212 4672 
Q 1544 4750 1819 4750 
Q 2544 4750 2975 4387 
Q 3406 4025 3406 3419 
Q 3406 3131 3298 2873 
Q 3191 2616 2906 2266 
Q 2828 2175 2409 1742 
Q 1991 1309 1228 531 
z
" transform="scale(0.015625)"/>
       </defs>
       <use xlink:href="#DejaVuSans-32"/>
       <use xlink:href="#DejaVuSans-30" x="63.623047"/>
      </g>
     </g>
    </g>
    <g id="xtick_3">
     <g id="line2d_3">
      <g>
       <use xlink:href="#m236f6206e1" x="127.309091" y="192.24" style="stroke: #000000; stroke-width: 0.8"/>
      </g>
     </g>
     <g id="text_3">
      <!-- 40 -->
      <g transform="translate(120.946591 206.838437) scale(0.1 -0.1)">
       <defs>
        <path id="DejaVuSans-34" d="M 2419 4116 
L 825 1625 
L 2419 1625 
L 2419 4116 
z
M 2253 4666 
L 3047 4666 
L 3047 1625 
L 3713 1625 
L 3713 1100 
L 3047 1100 
L 3047 0 
L 2419 0 
L 2419 1100 
L 313 1100 
L 313 1709 
L 2253 4666 
z
" transform="scale(0.015625)"/>
       </defs>
       <use xlink:href="#DejaVuSans-34"/>
       <use xlink:href="#DejaVuSans-30" x="63.623047"/>
      </g>
     </g>
    </g>
    <g id="xtick_4">
     <g id="line2d_4">
      <g>
       <use xlink:href="#m236f6206e1" x="167.890909" y="192.24" style="stroke: #000000; stroke-width: 0.8"/>
      </g>
     </g>
     <g id="text_4">
      <!-- 60 -->
      <g transform="translate(161.528409 206.838437) scale(0.1 -0.1)">
       <defs>
        <path id="DejaVuSans-36" d="M 2113 2584 
Q 1688 2584 1439 2293 
Q 1191 2003 1191 1497 
Q 1191 994 1439 701 
Q 1688 409 2113 409 
Q 2538 409 2786 701 
Q 3034 994 3034 1497 
Q 3034 2003 2786 2293 
Q 2538 2584 2113 2584 
z
M 3366 4563 
L 3366 3988 
Q 3128 4100 2886 4159 
Q 2644 4219 2406 4219 
Q 1781 4219 1451 3797 
Q 1122 3375 1075 2522 
Q 1259 2794 1537 2939 
Q 1816 3084 2150 3084 
Q 2853 3084 3261 2657 
Q 3669 2231 3669 1497 
Q 3669 778 3244 343 
Q 2819 -91 2113 -91 
Q 1303 -91 875 529 
Q 447 1150 447 2328 
Q 447 3434 972 4092 
Q 1497 4750 2381 4750 
Q 2619 4750 2861 4703 
Q 3103 4656 3366 4563 
z
" transform="scale(0.015625)"/>
       </defs>
       <use xlink:href="#DejaVuSans-36"/>
       <use xlink:href="#DejaVuSans-30" x="63.623047"/>
      </g>
     </g>
    </g>
    <g id="xtick_5">
     <g id="line2d_5">
      <g>
       <use xlink:href="#m236f6206e1" x="208.472727" y="192.24" style="stroke: #000000; stroke-width: 0.8"/>
      </g>
     </g>
     <g id="text_5">
      <!-- 80 -->
      <g transform="translate(202.110227 206.838437) scale(0.1 -0.1)">
       <defs>
        <path id="DejaVuSans-38" d="M 2034 2216 
Q 1584 2216 1326 1975 
Q 1069 1734 1069 1313 
Q 1069 891 1326 650 
Q 1584 409 2034 409 
Q 2484 409 2743 651 
Q 3003 894 3003 1313 
Q 3003 1734 2745 1975 
Q 2488 2216 2034 2216 
z
M 1403 2484 
Q 997 2584 770 2862 
Q 544 3141 544 3541 
Q 544 4100 942 4425 
Q 1341 4750 2034 4750 
Q 2731 4750 3128 4425 
Q 3525 4100 3525 3541 
Q 3525 3141 3298 2862 
Q 3072 2584 2669 2484 
Q 3125 2378 3379 2068 
Q 3634 1759 3634 1313 
Q 3634 634 3220 271 
Q 2806 -91 2034 -91 
Q 1263 -91 848 271 
Q 434 634 434 1313 
Q 434 1759 690 2068 
Q 947 2378 1403 2484 
z
M 1172 3481 
Q 1172 3119 1398 2916 
Q 1625 2713 2034 2713 
Q 2441 2713 2670 2916 
Q 2900 3119 2900 3481 
Q 2900 3844 2670 4047 
Q 2441 4250 2034 4250 
Q 1625 4250 1398 4047 
Q 1172 3844 1172 3481 
z
" transform="scale(0.015625)"/>
       </defs>
       <use xlink:href="#DejaVuSans-38"/>
       <use xlink:href="#DejaVuSans-30" x="63.623047"/>
      </g>
     </g>
    </g>
    <g id="xtick_6">
     <g id="line2d_6">
      <g>
       <use xlink:href="#m236f6206e1" x="249.054545" y="192.24" style="stroke: #000000; stroke-width: 0.8"/>
      </g>
     </g>
     <g id="text_6">
      <!-- 100 -->
      <g transform="translate(239.510795 206.838437) scale(0.1 -0.1)">
       <defs>
        <path id="DejaVuSans-31" d="M 794 531 
L 1825 531 
L 1825 4091 
L 703 3866 
L 703 4441 
L 1819 4666 
L 2450 4666 
L 2450 531 
L 3481 531 
L 3481 0 
L 794 0 
L 794 531 
z
" transform="scale(0.015625)"/>
       </defs>
       <use xlink:href="#DejaVuSans-31"/>
       <use xlink:href="#DejaVuSans-30" x="63.623047"/>
       <use xlink:href="#DejaVuSans-30" x="127.246094"/>
      </g>
     </g>
    </g>
    <g id="text_7">
     <!-- None -->
     <g transform="translate(134.554688 220.516562) scale(0.1 -0.1)">
      <defs>
       <path id="DejaVuSans-4e" d="M 628 4666 
L 1478 4666 
L 3547 763 
L 3547 4666 
L 4159 4666 
L 4159 0 
L 3309 0 
L 1241 3903 
L 1241 0 
L 628 0 
L 628 4666 
z
" transform="scale(0.015625)"/>
       <path id="DejaVuSans-6f" d="M 1959 3097 
Q 1497 3097 1228 2736 
Q 959 2375 959 1747 
Q 959 1119 1226 758 
Q 1494 397 1959 397 
Q 2419 397 2687 759 
Q 2956 1122 2956 1747 
Q 2956 2369 2687 2733 
Q 2419 3097 1959 3097 
z
M 1959 3584 
Q 2709 3584 3137 3096 
Q 3566 2609 3566 1747 
Q 3566 888 3137 398 
Q 2709 -91 1959 -91 
Q 1206 -91 779 398 
Q 353 888 353 1747 
Q 353 2609 779 3096 
Q 1206 3584 1959 3584 
z
" transform="scale(0.015625)"/>
       <path id="DejaVuSans-6e" d="M 3513 2113 
L 3513 0 
L 2938 0 
L 2938 2094 
Q 2938 2591 2744 2837 
Q 2550 3084 2163 3084 
Q 1697 3084 1428 2787 
Q 1159 2491 1159 1978 
L 1159 0 
L 581 0 
L 581 3500 
L 1159 3500 
L 1159 2956 
Q 1366 3272 1645 3428 
Q 1925 3584 2291 3584 
Q 2894 3584 3203 3211 
Q 3513 2838 3513 2113 
z
" transform="scale(0.015625)"/>
       <path id="DejaVuSans-65" d="M 3597 1894 
L 3597 1613 
L 953 1613 
Q 991 1019 1311 708 
Q 1631 397 2203 397 
Q 2534 397 2845 478 
Q 3156 559 3463 722 
L 3463 178 
Q 3153 47 2828 -22 
Q 2503 -91 2169 -91 
Q 1331 -91 842 396 
Q 353 884 353 1716 
Q 353 2575 817 3079 
Q 1281 3584 2069 3584 
Q 2775 3584 3186 3129 
Q 3597 2675 3597 1894 
z
M 3022 2063 
Q 3016 2534 2758 2815 
Q 2500 3097 2075 3097 
Q 1594 3097 1305 2825 
Q 1016 2553 972 2059 
L 3022 2063 
z
" transform="scale(0.015625)"/>
      </defs>
      <use xlink:href="#DejaVuSans-4e"/>
      <use xlink:href="#DejaVuSans-6f" x="74.804688"/>
      <use xlink:href="#DejaVuSans-6e" x="135.986328"/>
      <use xlink:href="#DejaVuSans-65" x="199.365234"/>
     </g>
    </g>
   </g>
   <g id="matplotlib.axis_2">
    <g id="ytick_1">
     <g id="line2d_7">
      <defs>
       <path id="md616276066" d="M 0 0 
L -3.5 0 
" style="stroke: #000000; stroke-width: 0.8"/>
      </defs>
      <g>
       <use xlink:href="#md616276066" x="36" y="158.678479" style="stroke: #000000; stroke-width: 0.8"/>
      </g>
     </g>
     <g id="text_8">
      <!-- 0.9 -->
      <g transform="translate(13.096875 162.477698) scale(0.1 -0.1)">
       <defs>
        <path id="DejaVuSans-2e" d="M 684 794 
L 1344 794 
L 1344 0 
L 684 0 
L 684 794 
z
" transform="scale(0.015625)"/>
        <path id="DejaVuSans-39" d="M 703 97 
L 703 672 
Q 941 559 1184 500 
Q 1428 441 1663 441 
Q 2288 441 2617 861 
Q 2947 1281 2994 2138 
Q 2813 1869 2534 1725 
Q 2256 1581 1919 1581 
Q 1219 1581 811 2004 
Q 403 2428 403 3163 
Q 403 3881 828 4315 
Q 1253 4750 1959 4750 
Q 2769 4750 3195 4129 
Q 3622 3509 3622 2328 
Q 3622 1225 3098 567 
Q 2575 -91 1691 -91 
Q 1453 -91 1209 -44 
Q 966 3 703 97 
z
M 1959 2075 
Q 2384 2075 2632 2365 
Q 2881 2656 2881 3163 
Q 2881 3666 2632 3958 
Q 2384 4250 1959 4250 
Q 1534 4250 1286 3958 
Q 1038 3666 1038 3163 
Q 1038 2656 1286 2365 
Q 1534 2075 1959 2075 
z
" transform="scale(0.015625)"/>
       </defs>
       <use xlink:href="#DejaVuSans-30"/>
       <use xlink:href="#DejaVuSans-2e" x="63.623047"/>
       <use xlink:href="#DejaVuSans-39" x="95.410156"/>
      </g>
     </g>
    </g>
    <g id="ytick_2">
     <g id="line2d_8">
      <g>
       <use xlink:href="#md616276066" x="36" y="121.138863" style="stroke: #000000; stroke-width: 0.8"/>
      </g>
     </g>
     <g id="text_9">
      <!-- 1.0 -->
      <g transform="translate(13.096875 124.938081) scale(0.1 -0.1)">
       <use xlink:href="#DejaVuSans-31"/>
       <use xlink:href="#DejaVuSans-2e" x="63.623047"/>
       <use xlink:href="#DejaVuSans-30" x="95.410156"/>
      </g>
     </g>
    </g>
    <g id="ytick_3">
     <g id="line2d_9">
      <g>
       <use xlink:href="#md616276066" x="36" y="83.599246" style="stroke: #000000; stroke-width: 0.8"/>
      </g>
     </g>
     <g id="text_10">
      <!-- 1.1 -->
      <g transform="translate(13.096875 87.398464) scale(0.1 -0.1)">
       <use xlink:href="#DejaVuSans-31"/>
       <use xlink:href="#DejaVuSans-2e" x="63.623047"/>
       <use xlink:href="#DejaVuSans-31" x="95.410156"/>
      </g>
     </g>
    </g>
    <g id="ytick_4">
     <g id="line2d_10">
      <g>
       <use xlink:href="#md616276066" x="36" y="46.059629" style="stroke: #000000; stroke-width: 0.8"/>
      </g>
     </g>
     <g id="text_11">
      <!-- 1.2 -->
      <g transform="translate(13.096875 49.858848) scale(0.1 -0.1)">
       <use xlink:href="#DejaVuSans-31"/>
       <use xlink:href="#DejaVuSans-2e" x="63.623047"/>
       <use xlink:href="#DejaVuSans-32" x="95.410156"/>
      </g>
     </g>
    </g>
    <g id="text_12">
     <!-- mean_fitness -->
     <g transform="translate(6.739062 142.32375) rotate(-90) scale(0.1 -0.1)">
      <defs>
       <path id="DejaVuSans-6d" d="M 3328 2828 
Q 3544 3216 3844 3400 
Q 4144 3584 4550 3584 
Q 5097 3584 5394 3201 
Q 5691 2819 5691 2113 
L 5691 0 
L 5113 0 
L 5113 2094 
Q 5113 2597 4934 2840 
Q 4756 3084 4391 3084 
Q 3944 3084 3684 2787 
Q 3425 2491 3425 1978 
L 3425 0 
L 2847 0 
L 2847 2094 
Q 2847 2600 2669 2842 
Q 2491 3084 2119 3084 
Q 1678 3084 1418 2786 
Q 1159 2488 1159 1978 
L 1159 0 
L 581 0 
L 581 3500 
L 1159 3500 
L 1159 2956 
Q 1356 3278 1631 3431 
Q 1906 3584 2284 3584 
Q 2666 3584 2933 3390 
Q 3200 3197 3328 2828 
z
" transform="scale(0.015625)"/>
       <path id="DejaVuSans-61" d="M 2194 1759 
Q 1497 1759 1228 1600 
Q 959 1441 959 1056 
Q 959 750 1161 570 
Q 1363 391 1709 391 
Q 2188 391 2477 730 
Q 2766 1069 2766 1631 
L 2766 1759 
L 2194 1759 
z
M 3341 1997 
L 3341 0 
L 2766 0 
L 2766 531 
Q 2569 213 2275 61 
Q 1981 -91 1556 -91 
Q 1019 -91 701 211 
Q 384 513 384 1019 
Q 384 1609 779 1909 
Q 1175 2209 1959 2209 
L 2766 2209 
L 2766 2266 
Q 2766 2663 2505 2880 
Q 2244 3097 1772 3097 
Q 1472 3097 1187 3025 
Q 903 2953 641 2809 
L 641 3341 
Q 956 3463 1253 3523 
Q 1550 3584 1831 3584 
Q 2591 3584 2966 3190 
Q 3341 2797 3341 1997 
z
" transform="scale(0.015625)"/>
       <path id="DejaVuSans-5f" d="M 3263 -1063 
L 3263 -1509 
L -63 -1509 
L -63 -1063 
L 3263 -1063 
z
" transform="scale(0.015625)"/>
       <path id="DejaVuSans-66" d="M 2375 4863 
L 2375 4384 
L 1825 4384 
Q 1516 4384 1395 4259 
Q 1275 4134 1275 3809 
L 1275 3500 
L 2222 3500 
L 2222 3053 
L 1275 3053 
L 1275 0 
L 697 0 
L 697 3053 
L 147 3053 
L 147 3500 
L 697 3500 
L 697 3744 
Q 697 4328 969 4595 
Q 1241 4863 1831 4863 
L 2375 4863 
z
" transform="scale(0.015625)"/>
       <path id="DejaVuSans-69" d="M 603 3500 
L 1178 3500 
L 1178 0 
L 603 0 
L 603 3500 
z
M 603 4863 
L 1178 4863 
L 1178 4134 
L 603 4134 
L 603 4863 
z
" transform="scale(0.015625)"/>
       <path id="DejaVuSans-74" d="M 1172 4494 
L 1172 3500 
L 2356 3500 
L 2356 3053 
L 1172 3053 
L 1172 1153 
Q 1172 725 1289 603 
Q 1406 481 1766 481 
L 2356 481 
L 2356 0 
L 1766 0 
Q 1100 0 847 248 
Q 594 497 594 1153 
L 594 3053 
L 172 3053 
L 172 3500 
L 594 3500 
L 594 4494 
L 1172 4494 
z
" transform="scale(0.015625)"/>
       <path id="DejaVuSans-73" d="M 2834 3397 
L 2834 2853 
Q 2591 2978 2328 3040 
Q 2066 3103 1784 3103 
Q 1356 3103 1142 2972 
Q 928 2841 928 2578 
Q 928 2378 1081 2264 
Q 1234 2150 1697 2047 
L 1894 2003 
Q 2506 1872 2764 1633 
Q 3022 1394 3022 966 
Q 3022 478 2636 193 
Q 2250 -91 1575 -91 
Q 1294 -91 989 -36 
Q 684 19 347 128 
L 347 722 
Q 666 556 975 473 
Q 1284 391 1588 391 
Q 1994 391 2212 530 
Q 2431 669 2431 922 
Q 2431 1156 2273 1281 
Q 2116 1406 1581 1522 
L 1381 1569 
Q 847 1681 609 1914 
Q 372 2147 372 2553 
Q 372 3047 722 3315 
Q 1072 3584 1716 3584 
Q 2034 3584 2315 3537 
Q 2597 3491 2834 3397 
z
" transform="scale(0.015625)"/>
      </defs>
      <use xlink:href="#DejaVuSans-6d"/>
      <use xlink:href="#DejaVuSans-65" x="97.412109"/>
      <use xlink:href="#DejaVuSans-61" x="158.935547"/>
      <use xlink:href="#DejaVuSans-6e" x="220.214844"/>
      <use xlink:href="#DejaVuSans-5f" x="283.59375"/>
      <use xlink:href="#DejaVuSans-66" x="333.59375"/>
      <use xlink:href="#DejaVuSans-69" x="368.798828"/>
      <use xlink:href="#DejaVuSans-74" x="396.582031"/>
      <use xlink:href="#DejaVuSans-6e" x="435.791016"/>
      <use xlink:href="#DejaVuSans-65" x="499.169922"/>
      <use xlink:href="#DejaVuSans-73" x="560.693359"/>
      <use xlink:href="#DejaVuSans-73" x="612.792969"/>
     </g>
    </g>
   </g>
   <g id="line2d_11">
    <path d="M 48.174545 111.862568 
L 50.203636 80.500018 
L 52.232727 65.707899 
L 54.261818 55.525658 
L 56.290909 66.318281 
L 58.32 55.939303 
L 60.349091 55.250387 
L 62.378182 64.759022 
L 64.407273 54.571639 
L 66.436364 60.069542 
L 68.465455 62.189253 
L 70.494545 71.030565 
L 72.523636 62.783711 
L 74.552727 57.299166 
L 76.581818 55.743334 
L 78.610909 72.779906 
L 80.64 57.575029 
L 82.669091 66.875002 
L 84.698182 76.091285 
L 86.727273 56.551869 
L 88.756364 57.299166 
L 90.785455 65.754056 
L 92.814545 56.551869 
L 94.843636 62.783711 
L 96.872727 58.937608 
L 98.901818 62.783711 
L 100.930909 56.21008 
L 102.96 54.571639 
L 104.989091 65.754056 
L 107.018182 62.783711 
L 109.047273 70.066446 
L 111.076364 65.754056 
L 113.105455 66.146547 
L 115.134545 54.604683 
L 117.163636 61.235769 
L 119.192727 62.783711 
L 121.221818 54.571639 
L 123.250909 70.877934 
L 125.28 60.917838 
L 127.309091 69.845347 
L 129.338182 56.21008 
L 131.367273 67.691816 
L 133.396364 66.875002 
L 135.425455 69.523679 
L 137.454545 62.783711 
L 139.483636 72.779906 
L 141.512727 66.875002 
L 143.541818 68.06022 
L 145.570909 62.783711 
L 147.6 66.146547 
L 149.629091 62.783711 
L 151.658182 56.21008 
L 153.687273 68.06022 
L 155.716364 66.875002 
L 157.745455 62.783711 
L 159.774545 62.783711 
L 161.803636 62.783711 
L 163.832727 66.146547 
L 165.861818 62.783711 
L 167.890909 62.783711 
L 169.92 66.146547 
L 171.949091 62.783711 
L 173.978182 68.06022 
L 176.007273 66.875002 
L 178.036364 58.937608 
L 180.065455 65.754056 
L 182.094545 65.754056 
L 184.123636 62.783711 
L 186.152727 65.754056 
L 188.181818 69.845347 
L 190.210909 62.783711 
L 192.24 70.662161 
L 194.269091 62.783711 
L 196.298182 62.783711 
L 198.327273 62.783711 
L 200.356364 62.783711 
L 202.385455 66.146547 
L 204.414545 66.146547 
L 206.443636 58.607615 
L 208.472727 60.703393 
L 210.501818 66.146547 
L 212.530909 69.523679 
L 214.56 62.783711 
L 216.589091 66.146547 
L 218.618182 66.146547 
L 220.647273 62.783711 
L 222.676364 67.691816 
L 224.705455 56.21008 
L 226.734545 66.146547 
L 228.763636 65.754056 
L 230.792727 62.783711 
L 232.821818 54.571639 
L 234.850909 70.662161 
L 236.88 66.146547 
L 238.909091 62.783711 
L 240.938182 67.603457 
L 242.967273 66.786643 
L 244.996364 66.146547 
L 247.025455 62.783711 
L 249.054545 62.783711 
" clip-path="url(#p77efc8f16a)" style="fill: none; stroke: #1f77b4; stroke-width: 1.5; stroke-linecap: square"/>
   </g>
   <g id="line2d_12">
    <path d="M 46.145455 181.806639 
L 48.174545 182.895975 
L 50.203636 183.251349 
L 52.232727 181.290272 
L 54.261818 180.971788 
L 56.290909 180.974621 
L 58.32 181.072291 
L 60.349091 179.999107 
L 62.378182 179.096034 
L 64.407273 179.122997 
L 66.436364 179.032201 
L 68.465455 179.032201 
L 70.494545 178.959661 
L 72.523636 179.107402 
L 74.552727 179.107402 
L 76.581818 178.534313 
L 78.610909 178.395475 
L 80.64 178.395475 
L 82.669091 178.748125 
L 84.698182 178.162277 
L 86.727273 178.162277 
L 88.756364 178.146004 
L 90.785455 178.146004 
L 92.814545 178.311065 
L 94.843636 178.311065 
L 96.872727 178.633904 
L 98.901818 178.633904 
L 100.930909 178.871769 
L 102.96 178.871769 
L 104.989091 178.871769 
L 107.018182 178.871769 
L 109.047273 179.042734 
L 111.076364 179.042734 
L 113.105455 179.042734 
L 115.134545 179.042734 
L 117.163636 179.042734 
L 119.192727 179.065426 
L 121.221818 179.19243 
L 123.250909 179.855303 
L 125.28 179.855303 
L 127.309091 179.855303 
L 129.338182 179.855303 
L 131.367273 179.855303 
L 133.396364 179.855303 
L 135.425455 179.855303 
L 137.454545 179.799548 
L 139.483636 179.799548 
L 141.512727 179.799548 
L 143.541818 179.799548 
L 145.570909 179.799548 
L 147.6 179.799548 
L 149.629091 179.997672 
L 151.658182 179.660333 
L 153.687273 179.660333 
L 155.716364 179.660333 
L 157.745455 179.475847 
L 159.774545 179.475847 
L 161.803636 179.423405 
L 163.832727 179.641168 
L 165.861818 179.641168 
L 167.890909 179.472826 
L 169.92 179.472826 
L 171.949091 179.472826 
L 173.978182 179.472826 
L 176.007273 179.472826 
L 178.036364 179.472826 
L 180.065455 179.472826 
L 182.094545 179.472826 
L 184.123636 179.472826 
L 186.152727 179.472826 
L 188.181818 179.472826 
L 190.210909 179.13901 
L 192.24 179.13901 
L 194.269091 178.961341 
L 196.298182 178.961341 
L 198.327273 178.961341 
L 200.356364 178.961341 
L 202.385455 178.907593 
L 204.414545 178.907593 
L 206.443636 178.907593 
L 208.472727 178.907593 
L 210.501818 178.938516 
L 212.530909 178.938516 
L 214.56 178.938516 
L 216.589091 178.938516 
L 218.618182 178.938516 
L 220.647273 178.938516 
L 222.676364 178.938516 
L 224.705455 178.938516 
L 226.734545 178.938516 
L 228.763636 178.982414 
L 230.792727 178.982414 
L 232.821818 178.982414 
L 234.850909 178.924503 
L 236.88 178.959736 
L 238.909091 178.959736 
L 240.938182 178.959736 
L 242.967273 178.959736 
L 244.996364 178.959736 
L 247.025455 178.959736 
L 249.054545 178.959736 
" clip-path="url(#p77efc8f16a)" style="fill: none; stroke: #ff7f0e; stroke-width: 1.5; stroke-linecap: square"/>
   </g>
   <g id="patch_3">
    <path d="M 36 192.24 
L 36 25.92 
" style="fill: none; stroke: #000000; stroke-width: 0.8; stroke-linejoin: miter; stroke-linecap: square"/>
   </g>
   <g id="patch_4">
    <path d="M 259.2 192.24 
L 259.2 25.92 
" style="fill: none; stroke: #000000; stroke-width: 0.8; stroke-linejoin: miter; stroke-linecap: square"/>
   </g>
   <g id="patch_5">
    <path d="M 36 192.24 
L 259.2 192.24 
" style="fill: none; stroke: #000000; stroke-width: 0.8; stroke-linejoin: miter; stroke-linecap: square"/>
   </g>
   <g id="patch_6">
    <path d="M 36 25.92 
L 259.2 25.92 
" style="fill: none; stroke: #000000; stroke-width: 0.8; stroke-linejoin: miter; stroke-linecap: square"/>
   </g>
  </g>
 </g>
 <defs>
  <clipPath id="p77efc8f16a">
   <rect x="36" y="25.92" width="223.2" height="166.32"/>
  </clipPath>
 </defs>
</svg>
