<?xml version="1.0" encoding="utf-8" standalone="no"?>
<!DOCTYPE svg PUBLIC "-//W3C//DTD SVG 1.1//EN"
  "http://www.w3.org/Graphics/SVG/1.1/DTD/svg11.dtd">
<svg xmlns:xlink="http://www.w3.org/1999/xlink" width="288pt" height="216pt" viewBox="0 0 288 216" xmlns="http://www.w3.org/2000/svg" version="1.1">
 <metadata>
  <rdf:RDF xmlns:dc="http://purl.org/dc/elements/1.1/" xmlns:cc="http://creativecommons.org/ns#" xmlns:rdf="http://www.w3.org/1999/02/22-rdf-syntax-ns#">
   <cc:Work>
    <dc:type rdf:resource="http://purl.org/dc/dcmitype/StillImage"/>
    <dc:date>2024-12-02T21:09:19.382541</dc:date>
    <dc:format>image/svg+xml</dc:format>
    <dc:creator>
     <cc:Agent>
      <dc:title>Matplotlib v3.8.2, https://matplotlib.org/</dc:title>
     </cc:Agent>
    </dc:creator>
   </cc:Work>
  </rdf:RDF>
 </metadata>
 <defs>
  <style type="text/css">*{stroke-linejoin: round; stroke-linecap: butt}</style>
 </defs>
 <g id="figure_1">
  <g id="patch_1">
   <path d="M 0 216 
L 288 216 
L 288 0 
L 0 0 
z
" style="fill: #ffffff"/>
  </g>
  <g id="axes_1">
   <g id="patch_2">
    <path d="M 36 192.24 
L 259.2 192.24 
L 259.2 25.92 
L 36 25.92 
z
" style="fill: #ffffff"/>
   </g>
   <g id="PolyCollection_1">
    <defs>
     <path id="maff4c270df" d="M 48.174545 -43.538182 
L 48.174545 -39.872727 
L 50.203636 -32.541818 
L 52.232727 -32.847273 
L 54.261818 -31.625455 
L 56.290909 -31.32 
L 58.32 -31.32 
L 60.349091 -31.32 
L 62.378182 -31.625455 
L 64.407273 -31.32 
L 66.436364 -31.930909 
L 68.465455 -31.32 
L 70.494545 -31.625455 
L 72.523636 -31.930909 
L 74.552727 -31.625455 
L 76.581818 -31.930909 
L 78.610909 -31.32 
L 80.64 -32.236364 
L 82.669091 -31.32 
L 84.698182 -31.32 
L 86.727273 -31.625455 
L 88.756364 -31.32 
L 90.785455 -31.625455 
L 92.814545 -31.32 
L 94.843636 -31.32 
L 96.872727 -31.625455 
L 98.901818 -31.930909 
L 100.930909 -31.32 
L 102.96 -31.32 
L 104.989091 -31.32 
L 107.018182 -31.625455 
L 109.047273 -31.32 
L 111.076364 -31.625455 
L 113.105455 -31.930909 
L 115.134545 -31.625455 
L 117.163636 -32.847273 
L 119.192727 -32.847273 
L 121.221818 -31.32 
L 123.250909 -31.930909 
L 125.28 -31.625455 
L 127.309091 -31.32 
L 129.338182 -31.32 
L 131.367273 -31.32 
L 133.396364 -31.32 
L 135.425455 -31.625455 
L 137.454545 -33.152727 
L 139.483636 -31.32 
L 141.512727 -31.32 
L 143.541818 -31.930909 
L 145.570909 -31.930909 
L 147.6 -31.32 
L 149.629091 -31.32 
L 151.658182 -32.236364 
L 153.687273 -31.625455 
L 155.716364 -31.930909 
L 157.745455 -31.32 
L 159.774545 -31.930909 
L 161.803636 -31.625455 
L 163.832727 -31.625455 
L 165.861818 -31.625455 
L 167.890909 -31.32 
L 169.92 -31.32 
L 171.949091 -31.32 
L 173.978182 -31.32 
L 176.007273 -31.32 
L 178.036364 -32.236364 
L 180.065455 -32.236364 
L 182.094545 -32.236364 
L 184.123636 -32.847273 
L 186.152727 -31.32 
L 188.181818 -31.625455 
L 190.210909 -31.625455 
L 192.24 -31.625455 
L 194.269091 -31.930909 
L 196.298182 -31.625455 
L 198.327273 -32.228727 
L 200.356364 -31.32 
L 202.385455 -32.847273 
L 204.414545 -31.625455 
L 206.443636 -31.625455 
L 208.472727 -32.236364 
L 210.501818 -31.625455 
L 212.530909 -31.32 
L 214.56 -31.32 
L 216.589091 -31.32 
L 218.618182 -31.625455 
L 220.647273 -31.32 
L 222.676364 -31.625455 
L 224.705455 -31.625455 
L 226.734545 -32.847273 
L 228.763636 -31.625455 
L 230.792727 -32.236364 
L 232.821818 -31.930909 
L 234.850909 -31.32 
L 236.88 -31.32 
L 238.909091 -31.625455 
L 240.938182 -31.32 
L 242.967273 -31.625455 
L 244.996364 -31.32 
L 247.025455 -31.32 
L 249.054545 -31.32 
L 249.054545 -32.541818 
L 249.054545 -32.541818 
L 247.025455 -32.541818 
L 244.996364 -34.374545 
L 242.967273 -32.847273 
L 240.938182 -34.069091 
L 238.909091 -34.68 
L 236.88 -32.541818 
L 234.850909 -32.541818 
L 232.821818 -32.847273 
L 230.792727 -34.985455 
L 228.763636 -32.847273 
L 226.734545 -32.847273 
L 224.705455 -34.069091 
L 222.676364 -33.458182 
L 220.647273 -33.152727 
L 218.618182 -34.374545 
L 216.589091 -33.152727 
L 214.56 -32.541818 
L 212.530909 -31.32 
L 210.501818 -33.458182 
L 208.472727 -34.069091 
L 206.443636 -32.847273 
L 204.414545 -33.458182 
L 202.385455 -34.68 
L 200.356364 -32.541818 
L 198.327273 -34.069091 
L 196.298182 -33.458182 
L 194.269091 -33.763636 
L 192.24 -32.847273 
L 190.210909 -33.458182 
L 188.181818 -32.847273 
L 186.152727 -32.236364 
L 184.123636 -34.069091 
L 182.094545 -34.985455 
L 180.065455 -33.763636 
L 178.036364 -34.374545 
L 176.007273 -33.458182 
L 173.978182 -32.236364 
L 171.949091 -33.763636 
L 169.92 -32.541818 
L 167.890909 -32.541818 
L 165.861818 -32.847273 
L 163.832727 -34.069091 
L 161.803636 -32.847273 
L 159.774545 -32.847273 
L 157.745455 -32.541818 
L 155.716364 -33.763636 
L 153.687273 -34.68 
L 151.658182 -34.985455 
L 149.629091 -32.236364 
L 147.6 -33.458182 
L 145.570909 -32.847273 
L 143.541818 -35.596364 
L 141.512727 -32.541818 
L 139.483636 -33.458182 
L 137.454545 -34.985455 
L 135.425455 -33.458182 
L 133.396364 -33.152727 
L 131.367273 -34.68 
L 129.338182 -32.541818 
L 127.309091 -32.541818 
L 125.28 -34.069091 
L 123.250909 -34.68 
L 121.221818 -33.152727 
L 119.192727 -33.763636 
L 117.163636 -32.847273 
L 115.134545 -34.687636 
L 113.105455 -34.069091 
L 111.076364 -34.68 
L 109.047273 -32.541818 
L 107.018182 -32.847273 
L 104.989091 -32.236364 
L 102.96 -32.236364 
L 100.930909 -32.236364 
L 98.901818 -34.069091 
L 96.872727 -32.847273 
L 94.843636 -32.541818 
L 92.814545 -33.763636 
L 90.785455 -32.847273 
L 88.756364 -32.541818 
L 86.727273 -33.458182 
L 84.698182 -32.541818 
L 82.669091 -33.458182 
L 80.64 -34.069091 
L 78.610909 -34.069091 
L 76.581818 -33.763636 
L 74.552727 -33.458182 
L 72.523636 -32.847273 
L 70.494545 -33.458182 
L 68.465455 -32.541818 
L 66.436364 -32.847273 
L 64.407273 -34.374545 
L 62.378182 -33.458182 
L 60.349091 -32.541818 
L 58.32 -33.152727 
L 56.290909 -32.541818 
L 54.261818 -32.847273 
L 52.232727 -34.069091 
L 50.203636 -37.429091 
L 48.174545 -43.538182 
z
" style="stroke: #1f77b4; stroke-opacity: 0.2"/>
    </defs>
    <g clip-path="url(#p44ae4bf0e4)">
     <use xlink:href="#maff4c270df" x="0" y="216" style="fill: #1f77b4; fill-opacity: 0.2; stroke: #1f77b4; stroke-opacity: 0.2"/>
    </g>
   </g>
   <g id="PolyCollection_2">
    <defs>
     <path id="me19dc72e1e" d="M 46.145455 -182.52 
L 46.145455 -182.52 
L 48.174545 -158.465455 
L 50.203636 -153.501818 
L 52.232727 -146.629091 
L 54.261818 -140.901818 
L 56.290909 -137.465455 
L 58.32 -132.12 
L 60.349091 -128.301818 
L 62.378182 -124.483636 
L 64.407273 -121.429091 
L 66.436364 -117.229091 
L 68.465455 -112.265455 
L 70.494545 -106.156364 
L 72.523636 -101.956364 
L 74.552727 -100.429091 
L 76.581818 -98.52 
L 78.610909 -96.229091 
L 80.64 -95.083636 
L 82.669091 -93.909545 
L 84.698182 -92.792727 
L 86.727273 -91.647273 
L 88.756364 -90.12 
L 90.785455 -86.683636 
L 92.814545 -87.017727 
L 94.843636 -85.538182 
L 96.872727 -84.774545 
L 98.901818 -84.010909 
L 100.930909 -84.010909 
L 102.96 -83.247273 
L 104.989091 -82.483636 
L 107.018182 -81.72 
L 109.047273 -81.72 
L 111.076364 -81.72 
L 113.105455 -81.72 
L 115.134545 -81.72 
L 117.163636 -81.72 
L 119.192727 -82.483636 
L 121.221818 -82.483636 
L 123.250909 -81.72 
L 125.28 -81.72 
L 127.309091 -81.72 
L 129.338182 -81.72 
L 131.367273 -81.72 
L 133.396364 -81.700909 
L 135.425455 -81.72 
L 137.454545 -81.72 
L 139.483636 -81.700909 
L 141.512727 -81.72 
L 143.541818 -82.483636 
L 145.570909 -81.338182 
L 147.6 -82.483636 
L 149.629091 -82.483636 
L 151.658182 -81.338182 
L 153.687273 -82.483636 
L 155.716364 -84.010909 
L 157.745455 -84.010909 
L 159.774545 -84.010909 
L 161.803636 -82.865455 
L 163.832727 -84.010909 
L 165.861818 -84.010909 
L 167.890909 -84.010909 
L 169.92 -83.247273 
L 171.949091 -83.247273 
L 173.978182 -81.72 
L 176.007273 -83.247273 
L 178.036364 -83.209091 
L 180.065455 -83.247273 
L 182.094545 -83.247273 
L 184.123636 -84.010909 
L 186.152727 -84.010909 
L 188.181818 -84.010909 
L 190.210909 -84.010909 
L 192.24 -84.010909 
L 194.269091 -84.010909 
L 196.298182 -84.010909 
L 198.327273 -84.010909 
L 200.356364 -84.010909 
L 202.385455 -82.865455 
L 204.414545 -84.010909 
L 206.443636 -83.982273 
L 208.472727 -84.010909 
L 210.501818 -84.010909 
L 212.530909 -82.865455 
L 214.56 -84.010909 
L 216.589091 -84.010909 
L 218.618182 -84.010909 
L 220.647273 -84.010909 
L 222.676364 -84.010909 
L 224.705455 -84.010909 
L 226.734545 -84.774545 
L 228.763636 -84.774545 
L 230.792727 -84.774545 
L 232.821818 -84.774545 
L 234.850909 -84.774545 
L 236.88 -84.774545 
L 238.909091 -84.774545 
L 240.938182 -84.774545 
L 242.967273 -84.774545 
L 244.996364 -84.774545 
L 247.025455 -84.774545 
L 249.054545 -84.774545 
L 249.054545 -107.683636 
L 249.054545 -107.683636 
L 247.025455 -107.683636 
L 244.996364 -107.683636 
L 242.967273 -107.683636 
L 240.938182 -107.683636 
L 238.909091 -107.683636 
L 236.88 -109.592727 
L 234.850909 -109.974545 
L 232.821818 -110.738182 
L 230.792727 -115.32 
L 228.763636 -114.174545 
L 226.734545 -114.174545 
L 224.705455 -113.792727 
L 222.676364 -117.610909 
L 220.647273 -113.792727 
L 218.618182 -113.792727 
L 216.589091 -114.938182 
L 214.56 -114.938182 
L 212.530909 -114.938182 
L 210.501818 -116.083636 
L 208.472727 -116.083636 
L 206.443636 -116.083636 
L 204.414545 -116.083636 
L 202.385455 -116.083636 
L 200.356364 -116.083636 
L 198.327273 -117.229091 
L 196.298182 -116.083636 
L 194.269091 -116.083636 
L 192.24 -116.083636 
L 190.210909 -118.374545 
L 188.181818 -118.374545 
L 186.152727 -119.52 
L 184.123636 -120.760909 
L 182.094545 -121.810909 
L 180.065455 -121.915909 
L 178.036364 -122.956364 
L 176.007273 -124.101818 
L 173.978182 -124.101818 
L 171.949091 -124.101818 
L 169.92 -126.392727 
L 167.890909 -127.538182 
L 165.861818 -127.538182 
L 163.832727 -127.538182 
L 161.803636 -128.683636 
L 159.774545 -128.683636 
L 157.745455 -128.683636 
L 155.716364 -128.683636 
L 153.687273 -128.301818 
L 151.658182 -128.301818 
L 149.629091 -128.301818 
L 147.6 -128.301818 
L 145.570909 -128.301818 
L 143.541818 -128.301818 
L 141.512727 -128.034545 
L 139.483636 -127.92 
L 137.454545 -127.92 
L 135.425455 -126.774545 
L 133.396364 -126.774545 
L 131.367273 -131.356364 
L 129.338182 -125.629091 
L 127.309091 -125.629091 
L 125.28 -124.483636 
L 123.250909 -124.483636 
L 121.221818 -124.483636 
L 119.192727 -124.483636 
L 117.163636 -124.483636 
L 115.134545 -124.483636 
L 113.105455 -124.483636 
L 111.076364 -123.739091 
L 109.047273 -124.483636 
L 107.018182 -124.483636 
L 104.989091 -127.538182 
L 102.96 -123.338182 
L 100.930909 -123.72 
L 98.901818 -124.101818 
L 96.872727 -127.538182 
L 94.843636 -126.010909 
L 92.814545 -126.392727 
L 90.785455 -126.774545 
L 88.756364 -127.156364 
L 86.727273 -128.683636 
L 84.698182 -130.592727 
L 82.669091 -130.592727 
L 80.64 -129.829091 
L 78.610909 -130.592727 
L 76.581818 -129.895909 
L 74.552727 -133.265455 
L 72.523636 -133.647273 
L 70.494545 -135.938182 
L 68.465455 -136.701818 
L 66.436364 -138.992727 
L 64.407273 -142.429091 
L 62.378182 -142.429091 
L 60.349091 -142.810909 
L 58.32 -143.574545 
L 56.290909 -145.483636 
L 54.261818 -148.538182 
L 52.232727 -151.974545 
L 50.203636 -155.792727 
L 48.174545 -161.901818 
L 46.145455 -182.52 
z
" style="stroke: #ff7f0e; stroke-opacity: 0.2"/>
    </defs>
    <g clip-path="url(#p44ae4bf0e4)">
     <use xlink:href="#me19dc72e1e" x="0" y="216" style="fill: #ff7f0e; fill-opacity: 0.2; stroke: #ff7f0e; stroke-opacity: 0.2"/>
    </g>
   </g>
   <g id="matplotlib.axis_1">
    <g id="xtick_1">
     <g id="line2d_1">
      <defs>
       <path id="m1512f0f155" d="M 0 0 
L 0 3.5 
" style="stroke: #000000; stroke-width: 0.8"/>
      </defs>
      <g>
       <use xlink:href="#m1512f0f155" x="46.145455" y="192.24" style="stroke: #000000; stroke-width: 0.8"/>
      </g>
     </g>
     <g id="text_1">
      <!-- 0 -->
      <g transform="translate(42.964205 206.838437) scale(0.1 -0.1)">
       <defs>
        <path id="DejaVuSans-30" d="M 2034 4250 
Q 1547 4250 1301 3770 
Q 1056 3291 1056 2328 
Q 1056 1369 1301 889 
Q 1547 409 2034 409 
Q 2525 409 2770 889 
Q 3016 1369 3016 2328 
Q 3016 3291 2770 3770 
Q 2525 4250 2034 4250 
z
M 2034 4750 
Q 2819 4750 3233 4129 
Q 3647 3509 3647 2328 
Q 3647 1150 3233 529 
Q 2819 -91 2034 -91 
Q 1250 -91 836 529 
Q 422 1150 422 2328 
Q 422 3509 836 4129 
Q 1250 4750 2034 4750 
z
" transform="scale(0.015625)"/>
       </defs>
       <use xlink:href="#DejaVuSans-30"/>
      </g>
     </g>
    </g>
    <g id="xtick_2">
     <g id="line2d_2">
      <g>
       <use xlink:href="#m1512f0f155" x="86.727273" y="192.24" style="stroke: #000000; stroke-width: 0.8"/>
      </g>
     </g>
     <g id="text_2">
      <!-- 20 -->
      <g transform="translate(80.364773 206.838437) scale(0.1 -0.1)">
       <defs>
        <path id="DejaVuSans-32" d="M 1228 531 
L 3431 531 
L 3431 0 
L 469 0 
L 469 531 
Q 828 903 1448 1529 
Q 2069 2156 2228 2338 
Q 2531 2678 2651 2914 
Q 2772 3150 2772 3378 
Q 2772 3750 2511 3984 
Q 2250 4219 1831 4219 
Q 1534 4219 1204 4116 
Q 875 4013 500 3803 
L 500 4441 
Q 881 4594 1212 4672 
Q 1544 4750 1819 4750 
Q 2544 4750 2975 4387 
Q 3406 4025 3406 3419 
Q 3406 3131 3298 2873 
Q 3191 2616 2906 2266 
Q 2828 2175 2409 1742 
Q 1991 1309 1228 531 
z
" transform="scale(0.015625)"/>
       </defs>
       <use xlink:href="#DejaVuSans-32"/>
       <use xlink:href="#DejaVuSans-30" x="63.623047"/>
      </g>
     </g>
    </g>
    <g id="xtick_3">
     <g id="line2d_3">
      <g>
       <use xlink:href="#m1512f0f155" x="127.309091" y="192.24" style="stroke: #000000; stroke-width: 0.8"/>
      </g>
     </g>
     <g id="text_3">
      <!-- 40 -->
      <g transform="translate(120.946591 206.838437) scale(0.1 -0.1)">
       <defs>
        <path id="DejaVuSans-34" d="M 2419 4116 
L 825 1625 
L 2419 1625 
L 2419 4116 
z
M 2253 4666 
L 3047 4666 
L 3047 1625 
L 3713 1625 
L 3713 1100 
L 3047 1100 
L 3047 0 
L 2419 0 
L 2419 1100 
L 313 1100 
L 313 1709 
L 2253 4666 
z
" transform="scale(0.015625)"/>
       </defs>
       <use xlink:href="#DejaVuSans-34"/>
       <use xlink:href="#DejaVuSans-30" x="63.623047"/>
      </g>
     </g>
    </g>
    <g id="xtick_4">
     <g id="line2d_4">
      <g>
       <use xlink:href="#m1512f0f155" x="167.890909" y="192.24" style="stroke: #000000; stroke-width: 0.8"/>
      </g>
     </g>
     <g id="text_4">
      <!-- 60 -->
      <g transform="translate(161.528409 206.838437) scale(0.1 -0.1)">
       <defs>
        <path id="DejaVuSans-36" d="M 2113 2584 
Q 1688 2584 1439 2293 
Q 1191 2003 1191 1497 
Q 1191 994 1439 701 
Q 1688 409 2113 409 
Q 2538 409 2786 701 
Q 3034 994 3034 1497 
Q 3034 2003 2786 2293 
Q 2538 2584 2113 2584 
z
M 3366 4563 
L 3366 3988 
Q 3128 4100 2886 4159 
Q 2644 4219 2406 4219 
Q 1781 4219 1451 3797 
Q 1122 3375 1075 2522 
Q 1259 2794 1537 2939 
Q 1816 3084 2150 3084 
Q 2853 3084 3261 2657 
Q 3669 2231 3669 1497 
Q 3669 778 3244 343 
Q 2819 -91 2113 -91 
Q 1303 -91 875 529 
Q 447 1150 447 2328 
Q 447 3434 972 4092 
Q 1497 4750 2381 4750 
Q 2619 4750 2861 4703 
Q 3103 4656 3366 4563 
z
" transform="scale(0.015625)"/>
       </defs>
       <use xlink:href="#DejaVuSans-36"/>
       <use xlink:href="#DejaVuSans-30" x="63.623047"/>
      </g>
     </g>
    </g>
    <g id="xtick_5">
     <g id="line2d_5">
      <g>
       <use xlink:href="#m1512f0f155" x="208.472727" y="192.24" style="stroke: #000000; stroke-width: 0.8"/>
      </g>
     </g>
     <g id="text_5">
      <!-- 80 -->
      <g transform="translate(202.110227 206.838437) scale(0.1 -0.1)">
       <defs>
        <path id="DejaVuSans-38" d="M 2034 2216 
Q 1584 2216 1326 1975 
Q 1069 1734 1069 1313 
Q 1069 891 1326 650 
Q 1584 409 2034 409 
Q 2484 409 2743 651 
Q 3003 894 3003 1313 
Q 3003 1734 2745 1975 
Q 2488 2216 2034 2216 
z
M 1403 2484 
Q 997 2584 770 2862 
Q 544 3141 544 3541 
Q 544 4100 942 4425 
Q 1341 4750 2034 4750 
Q 2731 4750 3128 4425 
Q 3525 4100 3525 3541 
Q 3525 3141 3298 2862 
Q 3072 2584 2669 2484 
Q 3125 2378 3379 2068 
Q 3634 1759 3634 1313 
Q 3634 634 3220 271 
Q 2806 -91 2034 -91 
Q 1263 -91 848 271 
Q 434 634 434 1313 
Q 434 1759 690 2068 
Q 947 2378 1403 2484 
z
M 1172 3481 
Q 1172 3119 1398 2916 
Q 1625 2713 2034 2713 
Q 2441 2713 2670 2916 
Q 2900 3119 2900 3481 
Q 2900 3844 2670 4047 
Q 2441 4250 2034 4250 
Q 1625 4250 1398 4047 
Q 1172 3844 1172 3481 
z
" transform="scale(0.015625)"/>
       </defs>
       <use xlink:href="#DejaVuSans-38"/>
       <use xlink:href="#DejaVuSans-30" x="63.623047"/>
      </g>
     </g>
    </g>
    <g id="xtick_6">
     <g id="line2d_6">
      <g>
       <use xlink:href="#m1512f0f155" x="249.054545" y="192.24" style="stroke: #000000; stroke-width: 0.8"/>
      </g>
     </g>
     <g id="text_6">
      <!-- 100 -->
      <g transform="translate(239.510795 206.838437) scale(0.1 -0.1)">
       <defs>
        <path id="DejaVuSans-31" d="M 794 531 
L 1825 531 
L 1825 4091 
L 703 3866 
L 703 4441 
L 1819 4666 
L 2450 4666 
L 2450 531 
L 3481 531 
L 3481 0 
L 794 0 
L 794 531 
z
" transform="scale(0.015625)"/>
       </defs>
       <use xlink:href="#DejaVuSans-31"/>
       <use xlink:href="#DejaVuSans-30" x="63.623047"/>
       <use xlink:href="#DejaVuSans-30" x="127.246094"/>
      </g>
     </g>
    </g>
    <g id="text_7">
     <!-- None -->
     <g transform="translate(134.554688 220.516562) scale(0.1 -0.1)">
      <defs>
       <path id="DejaVuSans-4e" d="M 628 4666 
L 1478 4666 
L 3547 763 
L 3547 4666 
L 4159 4666 
L 4159 0 
L 3309 0 
L 1241 3903 
L 1241 0 
L 628 0 
L 628 4666 
z
" transform="scale(0.015625)"/>
       <path id="DejaVuSans-6f" d="M 1959 3097 
Q 1497 3097 1228 2736 
Q 959 2375 959 1747 
Q 959 1119 1226 758 
Q 1494 397 1959 397 
Q 2419 397 2687 759 
Q 2956 1122 2956 1747 
Q 2956 2369 2687 2733 
Q 2419 3097 1959 3097 
z
M 1959 3584 
Q 2709 3584 3137 3096 
Q 3566 2609 3566 1747 
Q 3566 888 3137 398 
Q 2709 -91 1959 -91 
Q 1206 -91 779 398 
Q 353 888 353 1747 
Q 353 2609 779 3096 
Q 1206 3584 1959 3584 
z
" transform="scale(0.015625)"/>
       <path id="DejaVuSans-6e" d="M 3513 2113 
L 3513 0 
L 2938 0 
L 2938 2094 
Q 2938 2591 2744 2837 
Q 2550 3084 2163 3084 
Q 1697 3084 1428 2787 
Q 1159 2491 1159 1978 
L 1159 0 
L 581 0 
L 581 3500 
L 1159 3500 
L 1159 2956 
Q 1366 3272 1645 3428 
Q 1925 3584 2291 3584 
Q 2894 3584 3203 3211 
Q 3513 2838 3513 2113 
z
" transform="scale(0.015625)"/>
       <path id="DejaVuSans-65" d="M 3597 1894 
L 3597 1613 
L 953 1613 
Q 991 1019 1311 708 
Q 1631 397 2203 397 
Q 2534 397 2845 478 
Q 3156 559 3463 722 
L 3463 178 
Q 3153 47 2828 -22 
Q 2503 -91 2169 -91 
Q 1331 -91 842 396 
Q 353 884 353 1716 
Q 353 2575 817 3079 
Q 1281 3584 2069 3584 
Q 2775 3584 3186 3129 
Q 3597 2675 3597 1894 
z
M 3022 2063 
Q 3016 2534 2758 2815 
Q 2500 3097 2075 3097 
Q 1594 3097 1305 2825 
Q 1016 2553 972 2059 
L 3022 2063 
z
" transform="scale(0.015625)"/>
      </defs>
      <use xlink:href="#DejaVuSans-4e"/>
      <use xlink:href="#DejaVuSans-6f" x="74.804688"/>
      <use xlink:href="#DejaVuSans-6e" x="135.986328"/>
      <use xlink:href="#DejaVuSans-65" x="199.365234"/>
     </g>
    </g>
   </g>
   <g id="matplotlib.axis_2">
    <g id="ytick_1">
     <g id="line2d_7">
      <defs>
       <path id="m373e2c79a7" d="M 0 0 
L -3.5 0 
" style="stroke: #000000; stroke-width: 0.8"/>
      </defs>
      <g>
       <use xlink:href="#m373e2c79a7" x="36" y="186.207273" style="stroke: #000000; stroke-width: 0.8"/>
      </g>
     </g>
     <g id="text_8">
      <!-- 0 -->
      <g transform="translate(22.6375 190.006491) scale(0.1 -0.1)">
       <use xlink:href="#DejaVuSans-30"/>
      </g>
     </g>
    </g>
    <g id="ytick_2">
     <g id="line2d_8">
      <g>
       <use xlink:href="#m373e2c79a7" x="36" y="155.661818" style="stroke: #000000; stroke-width: 0.8"/>
      </g>
     </g>
     <g id="text_9">
      <!-- 20 -->
      <g transform="translate(16.275 159.461037) scale(0.1 -0.1)">
       <use xlink:href="#DejaVuSans-32"/>
       <use xlink:href="#DejaVuSans-30" x="63.623047"/>
      </g>
     </g>
    </g>
    <g id="ytick_3">
     <g id="line2d_9">
      <g>
       <use xlink:href="#m373e2c79a7" x="36" y="125.116364" style="stroke: #000000; stroke-width: 0.8"/>
      </g>
     </g>
     <g id="text_10">
      <!-- 40 -->
      <g transform="translate(16.275 128.915582) scale(0.1 -0.1)">
       <use xlink:href="#DejaVuSans-34"/>
       <use xlink:href="#DejaVuSans-30" x="63.623047"/>
      </g>
     </g>
    </g>
    <g id="ytick_4">
     <g id="line2d_10">
      <g>
       <use xlink:href="#m373e2c79a7" x="36" y="94.570909" style="stroke: #000000; stroke-width: 0.8"/>
      </g>
     </g>
     <g id="text_11">
      <!-- 60 -->
      <g transform="translate(16.275 98.370128) scale(0.1 -0.1)">
       <use xlink:href="#DejaVuSans-36"/>
       <use xlink:href="#DejaVuSans-30" x="63.623047"/>
      </g>
     </g>
    </g>
    <g id="ytick_5">
     <g id="line2d_11">
      <g>
       <use xlink:href="#m373e2c79a7" x="36" y="64.025455" style="stroke: #000000; stroke-width: 0.8"/>
      </g>
     </g>
     <g id="text_12">
      <!-- 80 -->
      <g transform="translate(16.275 67.824673) scale(0.1 -0.1)">
       <use xlink:href="#DejaVuSans-38"/>
       <use xlink:href="#DejaVuSans-30" x="63.623047"/>
      </g>
     </g>
    </g>
    <g id="ytick_6">
     <g id="line2d_12">
      <g>
       <use xlink:href="#m373e2c79a7" x="36" y="33.48" style="stroke: #000000; stroke-width: 0.8"/>
      </g>
     </g>
     <g id="text_13">
      <!-- 100 -->
      <g transform="translate(9.9125 37.279219) scale(0.1 -0.1)">
       <use xlink:href="#DejaVuSans-31"/>
       <use xlink:href="#DejaVuSans-30" x="63.623047"/>
       <use xlink:href="#DejaVuSans-30" x="127.246094"/>
      </g>
     </g>
    </g>
    <g id="text_14">
     <!-- richness -->
     <g transform="translate(3.832812 129.897187) rotate(-90) scale(0.1 -0.1)">
      <defs>
       <path id="DejaVuSans-72" d="M 2631 2963 
Q 2534 3019 2420 3045 
Q 2306 3072 2169 3072 
Q 1681 3072 1420 2755 
Q 1159 2438 1159 1844 
L 1159 0 
L 581 0 
L 581 3500 
L 1159 3500 
L 1159 2956 
Q 1341 3275 1631 3429 
Q 1922 3584 2338 3584 
Q 2397 3584 2469 3576 
Q 2541 3569 2628 3553 
L 2631 2963 
z
" transform="scale(0.015625)"/>
       <path id="DejaVuSans-69" d="M 603 3500 
L 1178 3500 
L 1178 0 
L 603 0 
L 603 3500 
z
M 603 4863 
L 1178 4863 
L 1178 4134 
L 603 4134 
L 603 4863 
z
" transform="scale(0.015625)"/>
       <path id="DejaVuSans-63" d="M 3122 3366 
L 3122 2828 
Q 2878 2963 2633 3030 
Q 2388 3097 2138 3097 
Q 1578 3097 1268 2742 
Q 959 2388 959 1747 
Q 959 1106 1268 751 
Q 1578 397 2138 397 
Q 2388 397 2633 464 
Q 2878 531 3122 666 
L 3122 134 
Q 2881 22 2623 -34 
Q 2366 -91 2075 -91 
Q 1284 -91 818 406 
Q 353 903 353 1747 
Q 353 2603 823 3093 
Q 1294 3584 2113 3584 
Q 2378 3584 2631 3529 
Q 2884 3475 3122 3366 
z
" transform="scale(0.015625)"/>
       <path id="DejaVuSans-68" d="M 3513 2113 
L 3513 0 
L 2938 0 
L 2938 2094 
Q 2938 2591 2744 2837 
Q 2550 3084 2163 3084 
Q 1697 3084 1428 2787 
Q 1159 2491 1159 1978 
L 1159 0 
L 581 0 
L 581 4863 
L 1159 4863 
L 1159 2956 
Q 1366 3272 1645 3428 
Q 1925 3584 2291 3584 
Q 2894 3584 3203 3211 
Q 3513 2838 3513 2113 
z
" transform="scale(0.015625)"/>
       <path id="DejaVuSans-73" d="M 2834 3397 
L 2834 2853 
Q 2591 2978 2328 3040 
Q 2066 3103 1784 3103 
Q 1356 3103 1142 2972 
Q 928 2841 928 2578 
Q 928 2378 1081 2264 
Q 1234 2150 1697 2047 
L 1894 2003 
Q 2506 1872 2764 1633 
Q 3022 1394 3022 966 
Q 3022 478 2636 193 
Q 2250 -91 1575 -91 
Q 1294 -91 989 -36 
Q 684 19 347 128 
L 347 722 
Q 666 556 975 473 
Q 1284 391 1588 391 
Q 1994 391 2212 530 
Q 2431 669 2431 922 
Q 2431 1156 2273 1281 
Q 2116 1406 1581 1522 
L 1381 1569 
Q 847 1681 609 1914 
Q 372 2147 372 2553 
Q 372 3047 722 3315 
Q 1072 3584 1716 3584 
Q 2034 3584 2315 3537 
Q 2597 3491 2834 3397 
z
" transform="scale(0.015625)"/>
      </defs>
      <use xlink:href="#DejaVuSans-72"/>
      <use xlink:href="#DejaVuSans-69" x="41.113281"/>
      <use xlink:href="#DejaVuSans-63" x="68.896484"/>
      <use xlink:href="#DejaVuSans-68" x="123.876953"/>
      <use xlink:href="#DejaVuSans-6e" x="187.255859"/>
      <use xlink:href="#DejaVuSans-65" x="250.634766"/>
      <use xlink:href="#DejaVuSans-73" x="312.158203"/>
      <use xlink:href="#DejaVuSans-73" x="364.257812"/>
     </g>
    </g>
   </g>
   <g id="line2d_13">
    <path d="M 48.174545 174.294545 
L 50.203636 181.014545 
L 52.232727 182.541818 
L 54.261818 183.763636 
L 56.290909 184.069091 
L 58.32 183.763636 
L 60.349091 184.069091 
L 62.378182 183.458182 
L 64.407273 183.458182 
L 66.436364 183.458182 
L 68.465455 184.069091 
L 70.494545 183.458182 
L 72.523636 183.458182 
L 74.552727 183.458182 
L 76.581818 183.152727 
L 78.610909 183.763636 
L 80.64 182.847273 
L 82.669091 183.763636 
L 84.698182 184.069091 
L 86.727273 183.458182 
L 88.756364 184.069091 
L 90.785455 183.763636 
L 92.814545 183.458182 
L 94.843636 184.069091 
L 96.872727 183.763636 
L 98.901818 182.847273 
L 100.930909 184.374545 
L 102.96 184.374545 
L 104.989091 184.374545 
L 107.018182 183.763636 
L 109.047273 184.069091 
L 111.076364 182.847273 
L 113.105455 182.847273 
L 115.134545 182.847273 
L 117.163636 183.152727 
L 119.192727 182.847273 
L 121.221818 184.069091 
L 123.250909 182.847273 
L 125.28 183.152727 
L 127.309091 184.069091 
L 129.338182 184.069091 
L 131.367273 183.152727 
L 133.396364 184.069091 
L 135.425455 183.458182 
L 137.454545 181.930909 
L 139.483636 183.763636 
L 141.512727 184.069091 
L 143.541818 182.541818 
L 145.570909 183.458182 
L 147.6 183.763636 
L 149.629091 184.374545 
L 151.658182 182.541818 
L 153.687273 182.847273 
L 155.716364 183.152727 
L 157.745455 184.069091 
L 159.774545 183.458182 
L 161.803636 183.763636 
L 163.832727 183.152727 
L 165.861818 183.763636 
L 167.890909 184.069091 
L 169.92 184.069091 
L 171.949091 183.458182 
L 173.978182 184.374545 
L 176.007273 183.763636 
L 178.036364 182.541818 
L 180.065455 183.152727 
L 182.094545 182.541818 
L 184.123636 182.541818 
L 186.152727 184.374545 
L 188.181818 183.763636 
L 190.210909 183.458182 
L 192.24 183.763636 
L 194.269091 183.152727 
L 196.298182 183.458182 
L 198.327273 182.847273 
L 200.356364 184.069091 
L 202.385455 182.541818 
L 204.414545 183.458182 
L 206.443636 183.763636 
L 208.472727 182.847273 
L 210.501818 183.458182 
L 212.530909 184.68 
L 214.56 184.069091 
L 216.589091 184.069091 
L 218.618182 183.152727 
L 220.647273 184.069091 
L 222.676364 183.458182 
L 224.705455 183.152727 
L 226.734545 183.152727 
L 228.763636 183.763636 
L 230.792727 182.541818 
L 232.821818 183.458182 
L 234.850909 184.069091 
L 236.88 184.069091 
L 238.909091 182.847273 
L 240.938182 183.763636 
L 242.967273 183.763636 
L 244.996364 183.458182 
L 247.025455 184.069091 
L 249.054545 184.069091 
" clip-path="url(#p44ae4bf0e4)" style="fill: none; stroke: #1f77b4; stroke-width: 1.5; stroke-linecap: square"/>
   </g>
   <g id="line2d_14">
    <path d="M 46.145455 33.48 
L 48.174545 56.007273 
L 50.203636 61.734545 
L 52.232727 67.08 
L 54.261818 71.661818 
L 56.290909 75.098182 
L 58.32 78.534545 
L 60.349091 80.825455 
L 62.378182 82.734545 
L 64.407273 85.025455 
L 66.436364 88.843636 
L 68.465455 92.28 
L 70.494545 96.098182 
L 72.523636 100.298182 
L 74.552727 101.443636 
L 76.581818 103.352727 
L 78.610909 106.025455 
L 80.64 107.170909 
L 82.669091 107.934545 
L 84.698182 108.698182 
L 86.727273 109.461818 
L 88.756364 110.607273 
L 90.785455 111.752727 
L 92.814545 112.516364 
L 94.843636 113.28 
L 96.872727 114.425455 
L 98.901818 114.807273 
L 100.930909 114.807273 
L 102.96 115.189091 
L 104.989091 115.570909 
L 107.018182 115.570909 
L 109.047273 115.570909 
L 111.076364 115.570909 
L 113.105455 115.570909 
L 115.134545 115.570909 
L 117.163636 115.570909 
L 119.192727 115.189091 
L 121.221818 115.189091 
L 123.250909 115.570909 
L 125.28 115.189091 
L 127.309091 114.807273 
L 129.338182 114.807273 
L 131.367273 114.425455 
L 133.396364 114.425455 
L 135.425455 114.425455 
L 137.454545 114.043636 
L 139.483636 114.043636 
L 141.512727 114.043636 
L 143.541818 113.661818 
L 145.570909 113.661818 
L 147.6 113.661818 
L 149.629091 113.28 
L 151.658182 113.28 
L 153.687273 113.28 
L 155.716364 112.516364 
L 157.745455 112.516364 
L 159.774545 112.516364 
L 161.803636 112.516364 
L 163.832727 113.28 
L 165.861818 113.28 
L 167.890909 113.28 
L 169.92 114.043636 
L 171.949091 114.807273 
L 173.978182 114.807273 
L 176.007273 114.807273 
L 178.036364 114.807273 
L 180.065455 115.189091 
L 182.094545 115.189091 
L 184.123636 115.570909 
L 186.152727 115.952727 
L 188.181818 116.334545 
L 190.210909 116.334545 
L 192.24 117.098182 
L 194.269091 117.098182 
L 196.298182 117.098182 
L 198.327273 116.716364 
L 200.356364 117.098182 
L 202.385455 117.098182 
L 204.414545 117.098182 
L 206.443636 117.098182 
L 208.472727 117.098182 
L 210.501818 117.098182 
L 212.530909 117.48 
L 214.56 117.48 
L 216.589091 117.48 
L 218.618182 117.861818 
L 220.647273 117.861818 
L 222.676364 117.861818 
L 224.705455 117.861818 
L 226.734545 117.48 
L 228.763636 117.48 
L 230.792727 118.243636 
L 232.821818 118.625455 
L 234.850909 118.625455 
L 236.88 119.007273 
L 238.909091 119.770909 
L 240.938182 119.770909 
L 242.967273 119.770909 
L 244.996364 119.770909 
L 247.025455 119.770909 
L 249.054545 119.770909 
" clip-path="url(#p44ae4bf0e4)" style="fill: none; stroke: #ff7f0e; stroke-width: 1.5; stroke-linecap: square"/>
   </g>
   <g id="patch_3">
    <path d="M 36 192.24 
L 36 25.92 
" style="fill: none; stroke: #000000; stroke-width: 0.8; stroke-linejoin: miter; stroke-linecap: square"/>
   </g>
   <g id="patch_4">
    <path d="M 259.2 192.24 
L 259.2 25.92 
" style="fill: none; stroke: #000000; stroke-width: 0.8; stroke-linejoin: miter; stroke-linecap: square"/>
   </g>
   <g id="patch_5">
    <path d="M 36 192.24 
L 259.2 192.24 
" style="fill: none; stroke: #000000; stroke-width: 0.8; stroke-linejoin: miter; stroke-linecap: square"/>
   </g>
   <g id="patch_6">
    <path d="M 36 25.92 
L 259.2 25.92 
" style="fill: none; stroke: #000000; stroke-width: 0.8; stroke-linejoin: miter; stroke-linecap: square"/>
   </g>
  </g>
 </g>
 <defs>
  <clipPath id="p44ae4bf0e4">
   <rect x="36" y="25.92" width="223.2" height="166.32"/>
  </clipPath>
 </defs>
</svg>
