<?xml version="1.0" encoding="utf-8" standalone="no"?>
<!DOCTYPE svg PUBLIC "-//W3C//DTD SVG 1.1//EN"
  "http://www.w3.org/Graphics/SVG/1.1/DTD/svg11.dtd">
<svg xmlns:xlink="http://www.w3.org/1999/xlink" width="288pt" height="216pt" viewBox="0 0 288 216" xmlns="http://www.w3.org/2000/svg" version="1.1">
 <metadata>
  <rdf:RDF xmlns:dc="http://purl.org/dc/elements/1.1/" xmlns:cc="http://creativecommons.org/ns#" xmlns:rdf="http://www.w3.org/1999/02/22-rdf-syntax-ns#">
   <cc:Work>
    <dc:type rdf:resource="http://purl.org/dc/dcmitype/StillImage"/>
    <dc:date>2024-12-02T20:38:41.206079</dc:date>
    <dc:format>image/svg+xml</dc:format>
    <dc:creator>
     <cc:Agent>
      <dc:title>Matplotlib v3.8.2, https://matplotlib.org/</dc:title>
     </cc:Agent>
    </dc:creator>
   </cc:Work>
  </rdf:RDF>
 </metadata>
 <defs>
  <style type="text/css">*{stroke-linejoin: round; stroke-linecap: butt}</style>
 </defs>
 <g id="figure_1">
  <g id="patch_1">
   <path d="M 0 216 
L 288 216 
L 288 0 
L 0 0 
z
" style="fill: #ffffff"/>
  </g>
  <g id="axes_1">
   <g id="patch_2">
    <path d="M 36 192.24 
L 259.2 192.24 
L 259.2 25.92 
L 36 25.92 
z
" style="fill: #ffffff"/>
   </g>
   <g id="PolyCollection_1">
    <path d="M 48.174545 40.307412 
L 48.174545 50.109109 
L 50.203636 82.66708 
L 52.232727 155.613544 
L 54.261818 184.670779 
L 56.290909 184.437952 
L 58.32 184.676343 
L 60.349091 184.672617 
L 62.378182 184.667813 
L 64.407273 184.447974 
L 66.436364 184.581859 
L 68.465455 184.679017 
L 70.494545 176.189857 
L 72.523636 155.02305 
L 74.552727 184.578521 
L 76.581818 160.631184 
L 78.610909 162.522415 
L 80.64 184.679091 
L 82.669091 163.382525 
L 84.698182 184.112411 
L 86.727273 184.644932 
L 88.756364 184.66355 
L 90.785455 182.009692 
L 92.814545 184.512252 
L 94.843636 182.076081 
L 96.872727 184.679389 
L 98.901818 180.894463 
L 100.930909 184.679091 
L 102.96 184.173485 
L 104.989091 173.140496 
L 107.018182 172.966666 
L 109.047273 181.821055 
L 111.076364 183.98426 
L 111.076364 112.115456 
L 111.076364 112.115456 
L 109.047273 159.521651 
L 107.018182 72.272637 
L 104.989091 76.050004 
L 102.96 127.432436 
L 100.930909 125.67048 
L 98.901818 137.18613 
L 96.872727 73.72336 
L 94.843636 114.964977 
L 92.814545 138.921266 
L 90.785455 132.381324 
L 88.756364 119.687325 
L 86.727273 106.206589 
L 84.698182 126.311293 
L 82.669091 86.196379 
L 80.64 119.57872 
L 78.610909 137.49592 
L 76.581818 110.421396 
L 74.552727 68.378803 
L 72.523636 75.901505 
L 70.494545 93.518294 
L 68.465455 134.216799 
L 66.436364 128.667671 
L 64.407273 76.549501 
L 62.378182 98.778592 
L 60.349091 128.537256 
L 58.32 116.165993 
L 56.290909 118.814275 
L 54.261818 103.339349 
L 52.232727 97.949649 
L 50.203636 61.435341 
L 48.174545 40.307412 
z
" clip-path="url(#p3eff562166)" style="fill: #1f77b4; fill-opacity: 0.2; stroke: #1f77b4; stroke-opacity: 0.2"/>
    <path d="M 115.134545 58.163811 
L 115.134545 184.678796 
L 117.163636 184.64936 
L 119.192727 178.392123 
L 121.221818 184.645163 
L 123.250909 184.377324 
L 125.28 184.68 
L 127.309091 176.980093 
L 129.338182 184.662314 
L 131.367273 184.613158 
L 133.396364 175.724844 
L 135.425455 147.43109 
L 137.454545 162.029495 
L 139.483636 171.018015 
L 141.512727 178.5918 
L 143.541818 178.128046 
L 145.570909 172.401462 
L 145.570909 85.802577 
L 145.570909 85.802577 
L 143.541818 107.783045 
L 141.512727 157.8325 
L 139.483636 162.788843 
L 137.454545 131.278379 
L 135.425455 147.282759 
L 133.396364 135.00066 
L 131.367273 131.897679 
L 129.338182 169.148416 
L 127.309091 129.22611 
L 125.28 160.10023 
L 123.250909 164.057105 
L 121.221818 154.641713 
L 119.192727 113.233584 
L 117.163636 156.422418 
L 115.134545 58.163811 
z
" clip-path="url(#p3eff562166)" style="fill: #1f77b4; fill-opacity: 0.2; stroke: #1f77b4; stroke-opacity: 0.2"/>
    <path d="M 149.629091 141.842323 
L 149.629091 152.777256 
L 151.658182 184.679389 
L 153.687273 183.244137 
L 155.716364 184.381943 
L 157.745455 169.705218 
L 159.774545 178.111854 
L 161.803636 179.077964 
L 161.803636 105.800952 
L 161.803636 105.800952 
L 159.774545 154.95319 
L 157.745455 104.515926 
L 155.716364 129.496003 
L 153.687273 106.951933 
L 151.658182 157.193133 
L 149.629091 141.842323 
z
" clip-path="url(#p3eff562166)" style="fill: #1f77b4; fill-opacity: 0.2; stroke: #1f77b4; stroke-opacity: 0.2"/>
    <path d="M 165.861818 60.725271 
L 165.861818 165.797966 
L 167.890909 184.600016 
L 167.890909 102.405285 
L 167.890909 102.405285 
L 165.861818 60.725271 
z
" clip-path="url(#p3eff562166)" style="fill: #1f77b4; fill-opacity: 0.2; stroke: #1f77b4; stroke-opacity: 0.2"/>
    <path d="M 171.949091 127.444648 
L 171.949091 181.249471 
L 173.978182 184.300521 
L 176.007273 180.997028 
L 178.036364 184.679389 
L 180.065455 172.559302 
L 182.094545 176.377876 
L 184.123636 180.532028 
L 186.152727 179.446646 
L 188.181818 175.868286 
L 190.210909 180.681512 
L 192.24 184.632835 
L 194.269091 184.616866 
L 196.298182 184.563849 
L 198.327273 179.828986 
L 200.356364 153.255285 
L 200.356364 76.782632 
L 200.356364 76.782632 
L 198.327273 167.846906 
L 196.298182 117.05582 
L 194.269091 144.308775 
L 192.24 184.212937 
L 190.210909 118.81006 
L 188.181818 128.976461 
L 186.152727 151.174447 
L 184.123636 93.542684 
L 182.094545 150.447577 
L 180.065455 148.527217 
L 178.036364 115.307811 
L 176.007273 100.88744 
L 173.978182 136.072013 
L 171.949091 127.444648 
z
" clip-path="url(#p3eff562166)" style="fill: #1f77b4; fill-opacity: 0.2; stroke: #1f77b4; stroke-opacity: 0.2"/>
    <path d="M 206.443636 184.236726 
L 206.443636 184.648189 
L 208.472727 184.676796 
L 208.472727 162.800041 
L 208.472727 162.800041 
L 206.443636 184.236726 
z
" clip-path="url(#p3eff562166)" style="fill: #1f77b4; fill-opacity: 0.2; stroke: #1f77b4; stroke-opacity: 0.2"/>
    <path d="M 212.530909 169.354523 
L 212.530909 171.405657 
L 214.56 183.600689 
L 214.56 94.774366 
L 214.56 94.774366 
L 212.530909 169.354523 
z
" clip-path="url(#p3eff562166)" style="fill: #1f77b4; fill-opacity: 0.2; stroke: #1f77b4; stroke-opacity: 0.2"/>
    <path d="M 220.647273 143.521695 
L 220.647273 169.760008 
L 222.676364 184.67624 
L 224.705455 184.674871 
L 224.705455 174.818146 
L 224.705455 174.818146 
L 222.676364 112.92557 
L 220.647273 143.521695 
z
" clip-path="url(#p3eff562166)" style="fill: #1f77b4; fill-opacity: 0.2; stroke: #1f77b4; stroke-opacity: 0.2"/>
    <path d="M 228.763636 149.35244 
L 228.763636 177.605733 
L 230.792727 166.001861 
L 232.821818 184.57665 
L 234.850909 184.530684 
L 234.850909 136.418378 
L 234.850909 136.418378 
L 232.821818 141.154431 
L 230.792727 125.519106 
L 228.763636 149.35244 
z
" clip-path="url(#p3eff562166)" style="fill: #1f77b4; fill-opacity: 0.2; stroke: #1f77b4; stroke-opacity: 0.2"/>
    <path d="M 238.909091 70.453326 
L 238.909091 155.737488 
L 238.909091 70.453326 
L 238.909091 70.453326 
z
" clip-path="url(#p3eff562166)" style="fill: #1f77b4; fill-opacity: 0.2; stroke: #1f77b4; stroke-opacity: 0.2"/>
    <path d="M 242.967273 181.542161 
L 242.967273 184.413202 
L 242.967273 181.542161 
L 242.967273 181.542161 
z
" clip-path="url(#p3eff562166)" style="fill: #1f77b4; fill-opacity: 0.2; stroke: #1f77b4; stroke-opacity: 0.2"/>
    <path d="M 247.025455 143.475793 
L 247.025455 149.621771 
L 249.054545 178.30367 
L 249.054545 172.561322 
L 249.054545 172.561322 
L 247.025455 143.475793 
z
" clip-path="url(#p3eff562166)" style="fill: #1f77b4; fill-opacity: 0.2; stroke: #1f77b4; stroke-opacity: 0.2"/>
   </g>
   <g id="PolyCollection_2">
    <defs>
     <path id="md94d14d7f2" d="M 46.145455 -152.448927 
L 46.145455 -152.448927 
L 48.174545 -102.458495 
L 50.203636 -93.170566 
L 52.232727 -85.701872 
L 54.261818 -78.312256 
L 56.290909 -72.171731 
L 58.32 -67.554868 
L 60.349091 -64.054613 
L 62.378182 -61.235358 
L 64.407273 -58.852946 
L 66.436364 -56.735701 
L 68.465455 -54.935834 
L 70.494545 -53.445473 
L 72.523636 -52.184537 
L 74.552727 -51.00542 
L 76.581818 -50.029125 
L 78.610909 -49.204229 
L 80.64 -48.362775 
L 82.669091 -47.570004 
L 84.698182 -46.91134 
L 86.727273 -46.34194 
L 88.756364 -45.805581 
L 90.785455 -45.269741 
L 92.814545 -44.847368 
L 94.843636 -44.316794 
L 96.872727 -43.943184 
L 98.901818 -43.544873 
L 100.930909 -43.185163 
L 102.96 -42.837456 
L 104.989091 -42.509804 
L 107.018182 -42.201857 
L 109.047273 -41.922961 
L 111.076364 -41.648649 
L 113.105455 -41.388282 
L 115.134545 -41.143286 
L 117.163636 -40.910105 
L 119.192727 -40.688487 
L 121.221818 -40.573899 
L 123.250909 -40.315054 
L 125.28 -40.122581 
L 127.309091 -39.938728 
L 129.338182 -39.762985 
L 131.367273 -39.59472 
L 133.396364 -39.433542 
L 135.425455 -39.278963 
L 137.454545 -39.155981 
L 139.483636 -39.012914 
L 141.512727 -38.875377 
L 143.541818 -38.743015 
L 145.570909 -38.615532 
L 147.6 -38.492652 
L 149.629091 -38.397616 
L 151.658182 -38.282835 
L 153.687273 -38.171913 
L 155.716364 -38.064755 
L 157.745455 -37.983785 
L 159.774545 -37.883178 
L 161.803636 -37.792933 
L 163.832727 -37.698363 
L 165.861818 -37.606795 
L 167.890909 -37.517998 
L 169.92 -37.418914 
L 171.949091 -37.348142 
L 173.978182 -37.26692 
L 176.007273 -37.188003 
L 178.036364 -37.111297 
L 180.065455 -37.036694 
L 182.094545 -36.964119 
L 184.123636 -36.893464 
L 186.152727 -36.824692 
L 188.181818 -36.757707 
L 190.210909 -36.692441 
L 192.24 -36.628824 
L 194.269091 -36.566795 
L 196.298182 -36.506289 
L 198.327273 -36.447253 
L 200.356364 -36.389633 
L 202.385455 -36.339077 
L 204.414545 -36.284071 
L 206.443636 -36.230343 
L 208.472727 -36.177838 
L 210.501818 -36.14327 
L 212.530909 -36.092913 
L 214.56 -36.043664 
L 216.589091 -35.995484 
L 218.618182 -35.982543 
L 220.647273 -35.902195 
L 222.676364 -35.85702 
L 224.705455 -35.84606 
L 226.734545 -35.769457 
L 228.763636 -35.727008 
L 230.792727 -35.685409 
L 232.821818 -35.64471 
L 234.850909 -35.604741 
L 236.88 -35.565549 
L 238.909091 -35.518709 
L 240.938182 -35.489355 
L 242.967273 -35.452157 
L 244.996364 -35.416062 
L 247.025455 -35.380424 
L 249.054545 -35.345633 
L 249.054545 -44.129876 
L 249.054545 -44.129876 
L 247.025455 -44.207446 
L 244.996364 -44.274026 
L 242.967273 -44.360394 
L 240.938182 -44.45584 
L 238.909091 -44.552898 
L 236.88 -44.530955 
L 234.850909 -44.579371 
L 232.821818 -44.574102 
L 230.792727 -44.646718 
L 228.763636 -44.705324 
L 226.734545 -44.726903 
L 224.705455 -44.746889 
L 222.676364 -44.841267 
L 220.647273 -44.890142 
L 218.618182 -44.973097 
L 216.589091 -45.071828 
L 214.56 -45.109417 
L 212.530909 -45.137091 
L 210.501818 -45.241114 
L 208.472727 -45.223235 
L 206.443636 -45.321795 
L 204.414545 -45.394137 
L 202.385455 -45.515242 
L 200.356364 -45.514276 
L 198.327273 -45.516736 
L 196.298182 -45.648228 
L 194.269091 -45.720701 
L 192.24 -45.821931 
L 190.210909 -45.963113 
L 188.181818 -46.001305 
L 186.152727 -46.049798 
L 184.123636 -46.100337 
L 182.094545 -46.199781 
L 180.065455 -46.305703 
L 178.036364 -46.409843 
L 176.007273 -46.49962 
L 173.978182 -46.568059 
L 171.949091 -46.704889 
L 169.92 -46.821253 
L 167.890909 -46.923492 
L 165.861818 -46.960578 
L 163.832727 -46.944567 
L 161.803636 -47.053224 
L 159.774545 -47.096861 
L 157.745455 -47.320135 
L 155.716364 -47.420879 
L 153.687273 -47.568449 
L 151.658182 -47.681506 
L 149.629091 -47.82176 
L 147.6 -47.95637 
L 145.570909 -48.092301 
L 143.541818 -48.175726 
L 141.512727 -48.313443 
L 139.483636 -48.560769 
L 137.454545 -48.800748 
L 135.425455 -49.003827 
L 133.396364 -49.204456 
L 131.367273 -49.430257 
L 129.338182 -49.659845 
L 127.309091 -49.952277 
L 125.28 -50.127276 
L 123.250909 -50.410337 
L 121.221818 -50.698813 
L 119.192727 -51.019478 
L 117.163636 -51.249246 
L 115.134545 -51.573856 
L 113.105455 -51.648468 
L 111.076364 -51.606587 
L 109.047273 -51.812741 
L 107.018182 -52.134173 
L 104.989091 -52.381294 
L 102.96 -52.232969 
L 100.930909 -52.63988 
L 98.901818 -53.013001 
L 96.872727 -53.495831 
L 94.843636 -53.786831 
L 92.814545 -54.310486 
L 90.785455 -54.769431 
L 88.756364 -55.343201 
L 86.727273 -55.903494 
L 84.698182 -56.311358 
L 82.669091 -56.898268 
L 80.64 -57.530056 
L 78.610909 -58.223867 
L 76.581818 -59.111305 
L 74.552727 -60.106001 
L 72.523636 -61.005863 
L 70.494545 -62.061294 
L 68.465455 -62.966259 
L 66.436364 -64.564311 
L 64.407273 -66.287437 
L 62.378182 -68.233836 
L 60.349091 -70.214829 
L 58.32 -72.91974 
L 56.290909 -75.331278 
L 54.261818 -80.249094 
L 52.232727 -88.699154 
L 50.203636 -98.904344 
L 48.174545 -106.441781 
L 46.145455 -152.448927 
z
" style="stroke: #ff7f0e; stroke-opacity: 0.2"/>
    </defs>
    <g clip-path="url(#p3eff562166)">
     <use xlink:href="#md94d14d7f2" x="0" y="216" style="fill: #ff7f0e; fill-opacity: 0.2; stroke: #ff7f0e; stroke-opacity: 0.2"/>
    </g>
   </g>
   <g id="matplotlib.axis_1">
    <g id="xtick_1">
     <g id="line2d_1">
      <defs>
       <path id="md34e243cc1" d="M 0 0 
L 0 3.5 
" style="stroke: #000000; stroke-width: 0.8"/>
      </defs>
      <g>
       <use xlink:href="#md34e243cc1" x="46.145455" y="192.24" style="stroke: #000000; stroke-width: 0.8"/>
      </g>
     </g>
     <g id="text_1">
      <!-- 0 -->
      <g transform="translate(42.964205 206.838437) scale(0.1 -0.1)">
       <defs>
        <path id="DejaVuSans-30" d="M 2034 4250 
Q 1547 4250 1301 3770 
Q 1056 3291 1056 2328 
Q 1056 1369 1301 889 
Q 1547 409 2034 409 
Q 2525 409 2770 889 
Q 3016 1369 3016 2328 
Q 3016 3291 2770 3770 
Q 2525 4250 2034 4250 
z
M 2034 4750 
Q 2819 4750 3233 4129 
Q 3647 3509 3647 2328 
Q 3647 1150 3233 529 
Q 2819 -91 2034 -91 
Q 1250 -91 836 529 
Q 422 1150 422 2328 
Q 422 3509 836 4129 
Q 1250 4750 2034 4750 
z
" transform="scale(0.015625)"/>
       </defs>
       <use xlink:href="#DejaVuSans-30"/>
      </g>
     </g>
    </g>
    <g id="xtick_2">
     <g id="line2d_2">
      <g>
       <use xlink:href="#md34e243cc1" x="86.727273" y="192.24" style="stroke: #000000; stroke-width: 0.8"/>
      </g>
     </g>
     <g id="text_2">
      <!-- 20 -->
      <g transform="translate(80.364773 206.838437) scale(0.1 -0.1)">
       <defs>
        <path id="DejaVuSans-32" d="M 1228 531 
L 3431 531 
L 3431 0 
L 469 0 
L 469 531 
Q 828 903 1448 1529 
Q 2069 2156 2228 2338 
Q 2531 2678 2651 2914 
Q 2772 3150 2772 3378 
Q 2772 3750 2511 3984 
Q 2250 4219 1831 4219 
Q 1534 4219 1204 4116 
Q 875 4013 500 3803 
L 500 4441 
Q 881 4594 1212 4672 
Q 1544 4750 1819 4750 
Q 2544 4750 2975 4387 
Q 3406 4025 3406 3419 
Q 3406 3131 3298 2873 
Q 3191 2616 2906 2266 
Q 2828 2175 2409 1742 
Q 1991 1309 1228 531 
z
" transform="scale(0.015625)"/>
       </defs>
       <use xlink:href="#DejaVuSans-32"/>
       <use xlink:href="#DejaVuSans-30" x="63.623047"/>
      </g>
     </g>
    </g>
    <g id="xtick_3">
     <g id="line2d_3">
      <g>
       <use xlink:href="#md34e243cc1" x="127.309091" y="192.24" style="stroke: #000000; stroke-width: 0.8"/>
      </g>
     </g>
     <g id="text_3">
      <!-- 40 -->
      <g transform="translate(120.946591 206.838437) scale(0.1 -0.1)">
       <defs>
        <path id="DejaVuSans-34" d="M 2419 4116 
L 825 1625 
L 2419 1625 
L 2419 4116 
z
M 2253 4666 
L 3047 4666 
L 3047 1625 
L 3713 1625 
L 3713 1100 
L 3047 1100 
L 3047 0 
L 2419 0 
L 2419 1100 
L 313 1100 
L 313 1709 
L 2253 4666 
z
" transform="scale(0.015625)"/>
       </defs>
       <use xlink:href="#DejaVuSans-34"/>
       <use xlink:href="#DejaVuSans-30" x="63.623047"/>
      </g>
     </g>
    </g>
    <g id="xtick_4">
     <g id="line2d_4">
      <g>
       <use xlink:href="#md34e243cc1" x="167.890909" y="192.24" style="stroke: #000000; stroke-width: 0.8"/>
      </g>
     </g>
     <g id="text_4">
      <!-- 60 -->
      <g transform="translate(161.528409 206.838437) scale(0.1 -0.1)">
       <defs>
        <path id="DejaVuSans-36" d="M 2113 2584 
Q 1688 2584 1439 2293 
Q 1191 2003 1191 1497 
Q 1191 994 1439 701 
Q 1688 409 2113 409 
Q 2538 409 2786 701 
Q 3034 994 3034 1497 
Q 3034 2003 2786 2293 
Q 2538 2584 2113 2584 
z
M 3366 4563 
L 3366 3988 
Q 3128 4100 2886 4159 
Q 2644 4219 2406 4219 
Q 1781 4219 1451 3797 
Q 1122 3375 1075 2522 
Q 1259 2794 1537 2939 
Q 1816 3084 2150 3084 
Q 2853 3084 3261 2657 
Q 3669 2231 3669 1497 
Q 3669 778 3244 343 
Q 2819 -91 2113 -91 
Q 1303 -91 875 529 
Q 447 1150 447 2328 
Q 447 3434 972 4092 
Q 1497 4750 2381 4750 
Q 2619 4750 2861 4703 
Q 3103 4656 3366 4563 
z
" transform="scale(0.015625)"/>
       </defs>
       <use xlink:href="#DejaVuSans-36"/>
       <use xlink:href="#DejaVuSans-30" x="63.623047"/>
      </g>
     </g>
    </g>
    <g id="xtick_5">
     <g id="line2d_5">
      <g>
       <use xlink:href="#md34e243cc1" x="208.472727" y="192.24" style="stroke: #000000; stroke-width: 0.8"/>
      </g>
     </g>
     <g id="text_5">
      <!-- 80 -->
      <g transform="translate(202.110227 206.838437) scale(0.1 -0.1)">
       <defs>
        <path id="DejaVuSans-38" d="M 2034 2216 
Q 1584 2216 1326 1975 
Q 1069 1734 1069 1313 
Q 1069 891 1326 650 
Q 1584 409 2034 409 
Q 2484 409 2743 651 
Q 3003 894 3003 1313 
Q 3003 1734 2745 1975 
Q 2488 2216 2034 2216 
z
M 1403 2484 
Q 997 2584 770 2862 
Q 544 3141 544 3541 
Q 544 4100 942 4425 
Q 1341 4750 2034 4750 
Q 2731 4750 3128 4425 
Q 3525 4100 3525 3541 
Q 3525 3141 3298 2862 
Q 3072 2584 2669 2484 
Q 3125 2378 3379 2068 
Q 3634 1759 3634 1313 
Q 3634 634 3220 271 
Q 2806 -91 2034 -91 
Q 1263 -91 848 271 
Q 434 634 434 1313 
Q 434 1759 690 2068 
Q 947 2378 1403 2484 
z
M 1172 3481 
Q 1172 3119 1398 2916 
Q 1625 2713 2034 2713 
Q 2441 2713 2670 2916 
Q 2900 3119 2900 3481 
Q 2900 3844 2670 4047 
Q 2441 4250 2034 4250 
Q 1625 4250 1398 4047 
Q 1172 3844 1172 3481 
z
" transform="scale(0.015625)"/>
       </defs>
       <use xlink:href="#DejaVuSans-38"/>
       <use xlink:href="#DejaVuSans-30" x="63.623047"/>
      </g>
     </g>
    </g>
    <g id="xtick_6">
     <g id="line2d_6">
      <g>
       <use xlink:href="#md34e243cc1" x="249.054545" y="192.24" style="stroke: #000000; stroke-width: 0.8"/>
      </g>
     </g>
     <g id="text_6">
      <!-- 100 -->
      <g transform="translate(239.510795 206.838437) scale(0.1 -0.1)">
       <defs>
        <path id="DejaVuSans-31" d="M 794 531 
L 1825 531 
L 1825 4091 
L 703 3866 
L 703 4441 
L 1819 4666 
L 2450 4666 
L 2450 531 
L 3481 531 
L 3481 0 
L 794 0 
L 794 531 
z
" transform="scale(0.015625)"/>
       </defs>
       <use xlink:href="#DejaVuSans-31"/>
       <use xlink:href="#DejaVuSans-30" x="63.623047"/>
       <use xlink:href="#DejaVuSans-30" x="127.246094"/>
      </g>
     </g>
    </g>
    <g id="text_7">
     <!-- None -->
     <g transform="translate(134.554688 220.516562) scale(0.1 -0.1)">
      <defs>
       <path id="DejaVuSans-4e" d="M 628 4666 
L 1478 4666 
L 3547 763 
L 3547 4666 
L 4159 4666 
L 4159 0 
L 3309 0 
L 1241 3903 
L 1241 0 
L 628 0 
L 628 4666 
z
" transform="scale(0.015625)"/>
       <path id="DejaVuSans-6f" d="M 1959 3097 
Q 1497 3097 1228 2736 
Q 959 2375 959 1747 
Q 959 1119 1226 758 
Q 1494 397 1959 397 
Q 2419 397 2687 759 
Q 2956 1122 2956 1747 
Q 2956 2369 2687 2733 
Q 2419 3097 1959 3097 
z
M 1959 3584 
Q 2709 3584 3137 3096 
Q 3566 2609 3566 1747 
Q 3566 888 3137 398 
Q 2709 -91 1959 -91 
Q 1206 -91 779 398 
Q 353 888 353 1747 
Q 353 2609 779 3096 
Q 1206 3584 1959 3584 
z
" transform="scale(0.015625)"/>
       <path id="DejaVuSans-6e" d="M 3513 2113 
L 3513 0 
L 2938 0 
L 2938 2094 
Q 2938 2591 2744 2837 
Q 2550 3084 2163 3084 
Q 1697 3084 1428 2787 
Q 1159 2491 1159 1978 
L 1159 0 
L 581 0 
L 581 3500 
L 1159 3500 
L 1159 2956 
Q 1366 3272 1645 3428 
Q 1925 3584 2291 3584 
Q 2894 3584 3203 3211 
Q 3513 2838 3513 2113 
z
" transform="scale(0.015625)"/>
       <path id="DejaVuSans-65" d="M 3597 1894 
L 3597 1613 
L 953 1613 
Q 991 1019 1311 708 
Q 1631 397 2203 397 
Q 2534 397 2845 478 
Q 3156 559 3463 722 
L 3463 178 
Q 3153 47 2828 -22 
Q 2503 -91 2169 -91 
Q 1331 -91 842 396 
Q 353 884 353 1716 
Q 353 2575 817 3079 
Q 1281 3584 2069 3584 
Q 2775 3584 3186 3129 
Q 3597 2675 3597 1894 
z
M 3022 2063 
Q 3016 2534 2758 2815 
Q 2500 3097 2075 3097 
Q 1594 3097 1305 2825 
Q 1016 2553 972 2059 
L 3022 2063 
z
" transform="scale(0.015625)"/>
      </defs>
      <use xlink:href="#DejaVuSans-4e"/>
      <use xlink:href="#DejaVuSans-6f" x="74.804688"/>
      <use xlink:href="#DejaVuSans-6e" x="135.986328"/>
      <use xlink:href="#DejaVuSans-65" x="199.365234"/>
     </g>
    </g>
   </g>
   <g id="matplotlib.axis_2">
    <g id="ytick_1">
     <g id="line2d_7">
      <defs>
       <path id="m9c7248d050" d="M 0 0 
L -3.5 0 
" style="stroke: #000000; stroke-width: 0.8"/>
      </defs>
      <g>
       <use xlink:href="#m9c7248d050" x="36" y="184.680995" style="stroke: #000000; stroke-width: 0.8"/>
      </g>
     </g>
     <g id="text_8">
      <!-- 0.0 -->
      <g transform="translate(13.096875 188.480213) scale(0.1 -0.1)">
       <defs>
        <path id="DejaVuSans-2e" d="M 684 794 
L 1344 794 
L 1344 0 
L 684 0 
L 684 794 
z
" transform="scale(0.015625)"/>
       </defs>
       <use xlink:href="#DejaVuSans-30"/>
       <use xlink:href="#DejaVuSans-2e" x="63.623047"/>
       <use xlink:href="#DejaVuSans-30" x="95.410156"/>
      </g>
     </g>
    </g>
    <g id="ytick_2">
     <g id="line2d_8">
      <g>
       <use xlink:href="#m9c7248d050" x="36" y="152.457728" style="stroke: #000000; stroke-width: 0.8"/>
      </g>
     </g>
     <g id="text_9">
      <!-- 0.2 -->
      <g transform="translate(13.096875 156.256947) scale(0.1 -0.1)">
       <use xlink:href="#DejaVuSans-30"/>
       <use xlink:href="#DejaVuSans-2e" x="63.623047"/>
       <use xlink:href="#DejaVuSans-32" x="95.410156"/>
      </g>
     </g>
    </g>
    <g id="ytick_3">
     <g id="line2d_9">
      <g>
       <use xlink:href="#m9c7248d050" x="36" y="120.234461" style="stroke: #000000; stroke-width: 0.8"/>
      </g>
     </g>
     <g id="text_10">
      <!-- 0.4 -->
      <g transform="translate(13.096875 124.03368) scale(0.1 -0.1)">
       <use xlink:href="#DejaVuSans-30"/>
       <use xlink:href="#DejaVuSans-2e" x="63.623047"/>
       <use xlink:href="#DejaVuSans-34" x="95.410156"/>
      </g>
     </g>
    </g>
    <g id="ytick_4">
     <g id="line2d_10">
      <g>
       <use xlink:href="#m9c7248d050" x="36" y="88.011195" style="stroke: #000000; stroke-width: 0.8"/>
      </g>
     </g>
     <g id="text_11">
      <!-- 0.6 -->
      <g transform="translate(13.096875 91.810414) scale(0.1 -0.1)">
       <use xlink:href="#DejaVuSans-30"/>
       <use xlink:href="#DejaVuSans-2e" x="63.623047"/>
       <use xlink:href="#DejaVuSans-36" x="95.410156"/>
      </g>
     </g>
    </g>
    <g id="ytick_5">
     <g id="line2d_11">
      <g>
       <use xlink:href="#m9c7248d050" x="36" y="55.787928" style="stroke: #000000; stroke-width: 0.8"/>
      </g>
     </g>
     <g id="text_12">
      <!-- 0.8 -->
      <g transform="translate(13.096875 59.587147) scale(0.1 -0.1)">
       <use xlink:href="#DejaVuSans-30"/>
       <use xlink:href="#DejaVuSans-2e" x="63.623047"/>
       <use xlink:href="#DejaVuSans-38" x="95.410156"/>
      </g>
     </g>
    </g>
    <g id="text_13">
     <!-- eveness -->
     <g transform="translate(7.017187 129.647187) rotate(-90) scale(0.1 -0.1)">
      <defs>
       <path id="DejaVuSans-76" d="M 191 3500 
L 800 3500 
L 1894 563 
L 2988 3500 
L 3597 3500 
L 2284 0 
L 1503 0 
L 191 3500 
z
" transform="scale(0.015625)"/>
       <path id="DejaVuSans-73" d="M 2834 3397 
L 2834 2853 
Q 2591 2978 2328 3040 
Q 2066 3103 1784 3103 
Q 1356 3103 1142 2972 
Q 928 2841 928 2578 
Q 928 2378 1081 2264 
Q 1234 2150 1697 2047 
L 1894 2003 
Q 2506 1872 2764 1633 
Q 3022 1394 3022 966 
Q 3022 478 2636 193 
Q 2250 -91 1575 -91 
Q 1294 -91 989 -36 
Q 684 19 347 128 
L 347 722 
Q 666 556 975 473 
Q 1284 391 1588 391 
Q 1994 391 2212 530 
Q 2431 669 2431 922 
Q 2431 1156 2273 1281 
Q 2116 1406 1581 1522 
L 1381 1569 
Q 847 1681 609 1914 
Q 372 2147 372 2553 
Q 372 3047 722 3315 
Q 1072 3584 1716 3584 
Q 2034 3584 2315 3537 
Q 2597 3491 2834 3397 
z
" transform="scale(0.015625)"/>
      </defs>
      <use xlink:href="#DejaVuSans-65"/>
      <use xlink:href="#DejaVuSans-76" x="61.523438"/>
      <use xlink:href="#DejaVuSans-65" x="120.703125"/>
      <use xlink:href="#DejaVuSans-6e" x="182.226562"/>
      <use xlink:href="#DejaVuSans-65" x="245.605469"/>
      <use xlink:href="#DejaVuSans-73" x="307.128906"/>
      <use xlink:href="#DejaVuSans-73" x="359.228516"/>
     </g>
    </g>
   </g>
   <g id="line2d_12">
    <path d="M 48.174545 45.39876 
L 50.203636 72.330363 
L 52.232727 126.419503 
L 54.261818 144.005064 
L 56.290909 144.012206 
L 58.32 153.720865 
L 60.349091 157.214486 
L 62.378182 142.41129 
L 64.407273 124.88286 
L 66.436364 158.977408 
L 68.465455 161.691978 
L 70.494545 134.854076 
L 72.523636 115.462277 
L 74.552727 126.001359 
L 76.581818 135.878316 
L 78.610909 150.009168 
L 80.64 152.128905 
L 82.669091 124.789452 
L 84.698182 155.211852 
L 86.727273 148.077916 
L 88.756364 157.689766 
L 90.785455 157.195508 
L 92.814545 163.851604 
L 94.843636 148.520529 
L 96.872727 144.80132 
L 98.901818 159.040297 
L 100.930909 160.6127 
L 102.96 164.655356 
L 104.989091 124.59525 
L 107.018182 122.619651 
L 109.047273 170.671353 
L 111.076364 148.049858 
L 113.105455 33.48 
L 115.134545 121.421303 
L 117.163636 173.670951 
L 119.192727 145.812854 
L 121.221818 174.243893 
L 123.250909 174.217214 
L 125.28 176.011072 
L 127.309091 153.103102 
L 129.338182 177.139077 
L 131.367273 158.255418 
L 133.396364 155.362752 
L 135.425455 147.356925 
L 137.454545 146.653937 
L 139.483636 166.903429 
L 141.512727 168.21215 
L 143.541818 142.955546 
L 145.570909 129.102019 
L 147.6 111.535594 
L 149.629091 147.30979 
L 151.658182 175.358557 
L 153.687273 145.098035 
L 155.716364 156.938973 
L 157.745455 137.110572 
L 159.774545 166.532522 
L 161.803636 142.439458 
L 163.832727 119.710658 
L 165.861818 113.261619 
L 167.890909 143.502651 
L 169.92 124.542146 
L 171.949091 154.347059 
L 173.978182 160.186267 
L 176.007273 140.942234 
L 178.036364 158.662632 
L 180.065455 160.543259 
L 182.094545 163.412726 
L 184.123636 137.037356 
L 186.152727 165.310546 
L 188.181818 152.422373 
L 190.210909 149.745786 
L 192.24 184.422886 
L 194.269091 164.46282 
L 196.298182 150.809835 
L 198.327273 173.837946 
L 200.356364 115.018958 
L 202.385455 75.244727 
L 204.414545 118.557276 
L 206.443636 184.442458 
L 208.472727 176.719414 
L 210.501818 91.082516 
L 212.530909 170.38009 
L 214.56 139.187528 
L 216.589091 101.828834 
L 218.618182 160.164502 
L 220.647273 156.640851 
L 222.676364 148.800905 
L 224.705455 179.97523 
L 226.734545 87.752407 
L 228.763636 163.479086 
L 230.792727 145.760483 
L 232.821818 165.459486 
L 234.850909 160.474531 
L 236.88 168.134356 
L 238.909091 113.095407 
L 240.938182 179.296282 
L 242.967273 182.977682 
L 244.996364 169.050262 
L 247.025455 146.548782 
L 249.054545 175.432496 
" clip-path="url(#p3eff562166)" style="fill: none; stroke: #1f77b4; stroke-width: 1.5; stroke-linecap: square"/>
   </g>
   <g id="line2d_13">
    <path d="M 46.145455 63.551073 
L 48.174545 111.474804 
L 50.203636 119.375384 
L 52.232727 128.822996 
L 54.261818 136.719325 
L 56.290909 142.403765 
L 58.32 146.28091 
L 60.349091 149.523259 
L 62.378182 152.111129 
L 64.407273 154.417873 
L 66.436364 156.424522 
L 68.465455 158.169137 
L 70.494545 159.469534 
L 72.523636 160.694657 
L 74.552727 161.790145 
L 76.581818 162.779149 
L 78.610909 163.642431 
L 80.64 164.441946 
L 82.669091 165.139013 
L 84.698182 165.765516 
L 86.727273 166.328986 
L 88.756364 166.912057 
L 90.785455 167.444894 
L 92.814545 167.934971 
L 94.843636 168.405639 
L 96.872727 168.755055 
L 98.901818 169.18472 
L 100.930909 169.547777 
L 102.96 169.91858 
L 104.989091 170.104249 
L 107.018182 170.380597 
L 109.047273 170.67781 
L 111.076364 170.919044 
L 113.105455 171.08056 
L 115.134545 171.283592 
L 117.163636 171.549238 
L 119.192727 171.757322 
L 121.221818 171.987299 
L 123.250909 172.219968 
L 125.28 172.444576 
L 127.309091 172.627326 
L 129.338182 172.843756 
L 131.367273 173.034168 
L 133.396364 173.218535 
L 135.425455 173.390055 
L 137.454545 173.549737 
L 139.483636 173.726437 
L 141.512727 173.901844 
L 143.541818 174.037219 
L 145.570909 174.151204 
L 147.6 174.279582 
L 149.629091 174.396728 
L 151.658182 174.515743 
L 153.687273 174.628359 
L 155.716364 174.749954 
L 157.745455 174.846009 
L 159.774545 174.971234 
L 161.803636 175.061399 
L 163.832727 175.156558 
L 165.861818 175.213104 
L 167.890909 175.285455 
L 169.92 175.382071 
L 171.949091 175.477318 
L 173.978182 175.573605 
L 176.007273 175.649757 
L 178.036364 175.731531 
L 180.065455 175.816771 
L 182.094545 175.901037 
L 184.123636 175.964696 
L 186.152727 176.045286 
L 188.181818 176.106733 
L 190.210909 176.163585 
L 192.24 176.253652 
L 194.269091 176.325203 
L 196.298182 176.390315 
L 198.327273 176.474106 
L 200.356364 176.513928 
L 202.385455 176.54607 
L 204.414545 176.606171 
L 206.443636 176.684112 
L 208.472727 176.752527 
L 210.501818 176.775745 
L 212.530909 176.844468 
L 214.56 176.886993 
L 216.589091 176.932099 
L 218.618182 176.996888 
L 220.647273 177.055743 
L 222.676364 177.102583 
L 224.705455 177.166942 
L 226.734545 177.199916 
L 228.763636 177.235815 
L 230.792727 177.283481 
L 232.821818 177.335234 
L 234.850909 177.360507 
L 236.88 177.40315 
L 238.909091 177.421834 
L 240.938182 177.4797 
L 242.967273 177.536534 
L 244.996364 177.589874 
L 247.025455 177.636168 
L 249.054545 177.688212 
" clip-path="url(#p3eff562166)" style="fill: none; stroke: #ff7f0e; stroke-width: 1.5; stroke-linecap: square"/>
   </g>
   <g id="patch_3">
    <path d="M 36 192.24 
L 36 25.92 
" style="fill: none; stroke: #000000; stroke-width: 0.8; stroke-linejoin: miter; stroke-linecap: square"/>
   </g>
   <g id="patch_4">
    <path d="M 259.2 192.24 
L 259.2 25.92 
" style="fill: none; stroke: #000000; stroke-width: 0.8; stroke-linejoin: miter; stroke-linecap: square"/>
   </g>
   <g id="patch_5">
    <path d="M 36 192.24 
L 259.2 192.24 
" style="fill: none; stroke: #000000; stroke-width: 0.8; stroke-linejoin: miter; stroke-linecap: square"/>
   </g>
   <g id="patch_6">
    <path d="M 36 25.92 
L 259.2 25.92 
" style="fill: none; stroke: #000000; stroke-width: 0.8; stroke-linejoin: miter; stroke-linecap: square"/>
   </g>
  </g>
 </g>
 <defs>
  <clipPath id="p3eff562166">
   <rect x="36" y="25.92" width="223.2" height="166.32"/>
  </clipPath>
 </defs>
</svg>
