<?xml version="1.0" encoding="utf-8" standalone="no"?>
<!DOCTYPE svg PUBLIC "-//W3C//DTD SVG 1.1//EN"
  "http://www.w3.org/Graphics/SVG/1.1/DTD/svg11.dtd">
<svg xmlns:xlink="http://www.w3.org/1999/xlink" width="288pt" height="216pt" viewBox="0 0 288 216" xmlns="http://www.w3.org/2000/svg" version="1.1">
 <metadata>
  <rdf:RDF xmlns:dc="http://purl.org/dc/elements/1.1/" xmlns:cc="http://creativecommons.org/ns#" xmlns:rdf="http://www.w3.org/1999/02/22-rdf-syntax-ns#">
   <cc:Work>
    <dc:type rdf:resource="http://purl.org/dc/dcmitype/StillImage"/>
    <dc:date>2024-12-02T21:09:07.670044</dc:date>
    <dc:format>image/svg+xml</dc:format>
    <dc:creator>
     <cc:Agent>
      <dc:title>Matplotlib v3.8.2, https://matplotlib.org/</dc:title>
     </cc:Agent>
    </dc:creator>
   </cc:Work>
  </rdf:RDF>
 </metadata>
 <defs>
  <style type="text/css">*{stroke-linejoin: round; stroke-linecap: butt}</style>
 </defs>
 <g id="figure_1">
  <g id="patch_1">
   <path d="M 0 216 
L 288 216 
L 288 0 
L 0 0 
z
" style="fill: #ffffff"/>
  </g>
  <g id="axes_1">
   <g id="patch_2">
    <path d="M 36 192.24 
L 259.2 192.24 
L 259.2 25.92 
L 36 25.92 
z
" style="fill: #ffffff"/>
   </g>
   <g id="PolyCollection_1">
    <path d="M 48.174545 70.970313 
L 48.174545 89.920226 
L 50.203636 52.055472 
L 52.232727 47.965673 
L 54.261818 43.425152 
L 56.290909 43.425152 
L 58.32 41.284303 
L 60.349091 41.284303 
L 62.378182 38.915677 
L 64.407273 46.209683 
L 66.436364 41.284303 
L 68.465455 42.635609 
L 70.494545 38.915677 
L 72.523636 52.182131 
L 74.552727 38.915677 
L 76.581818 38.915677 
L 78.610909 38.915677 
L 80.64 38.915677 
L 82.669091 38.915677 
L 84.698182 38.915677 
L 86.727273 38.915677 
L 88.756364 45.115565 
L 90.785455 47.437926 
L 92.814545 42.635609 
L 94.843636 46.708238 
L 96.872727 41.284303 
L 98.901818 38.915677 
L 100.930909 43.565593 
L 102.96 38.915677 
L 104.989091 38.915677 
L 107.018182 38.915677 
L 109.047273 38.915677 
L 111.076364 38.915677 
L 113.105455 38.915677 
L 115.134545 38.915677 
L 117.163636 38.915677 
L 119.192727 38.915677 
L 121.221818 38.915677 
L 123.250909 38.915677 
L 125.28 38.915677 
L 127.309091 38.915677 
L 129.338182 38.915677 
L 131.367273 38.915677 
L 133.396364 38.915677 
L 135.425455 38.915677 
L 137.454545 38.915677 
L 139.483636 38.915677 
L 141.512727 38.915677 
L 143.541818 38.915677 
L 145.570909 43.565593 
L 147.6 41.87646 
L 149.629091 38.915677 
L 151.658182 38.915677 
L 153.687273 38.915677 
L 155.716364 38.915677 
L 157.745455 38.915677 
L 157.745455 33.48 
L 157.745455 33.48 
L 155.716364 38.915677 
L 153.687273 38.213471 
L 151.658182 34.838919 
L 149.629091 38.213471 
L 147.6 38.915677 
L 145.570909 38.915677 
L 143.541818 37.979403 
L 141.512727 38.915677 
L 139.483636 38.915677 
L 137.454545 38.353912 
L 135.425455 38.915677 
L 133.396364 38.915677 
L 131.367273 38.213471 
L 129.338182 38.915677 
L 127.309091 38.213471 
L 125.28 38.915677 
L 123.250909 38.213471 
L 121.221818 38.915677 
L 119.192727 38.915677 
L 117.163636 38.915677 
L 115.134545 38.353912 
L 113.105455 38.915677 
L 111.076364 35.654271 
L 109.047273 37.979403 
L 107.018182 38.915677 
L 104.989091 37.979403 
L 102.96 38.213471 
L 100.930909 38.915677 
L 98.901818 38.353912 
L 96.872727 38.915677 
L 94.843636 34.838919 
L 92.814545 38.915677 
L 90.785455 38.915677 
L 88.756364 38.915677 
L 86.727273 38.213471 
L 84.698182 37.979403 
L 82.669091 38.353912 
L 80.64 38.353912 
L 78.610909 38.213471 
L 76.581818 38.915677 
L 74.552727 37.979403 
L 72.523636 38.915677 
L 70.494545 38.353912 
L 68.465455 38.353912 
L 66.436364 38.915677 
L 64.407273 38.353912 
L 62.378182 38.353912 
L 60.349091 38.915677 
L 58.32 38.915677 
L 56.290909 38.915677 
L 54.261818 38.915677 
L 52.232727 38.915677 
L 50.203636 38.915677 
L 48.174545 70.970313 
z
" clip-path="url(#pb154f76ac9)" style="fill: #1f77b4; fill-opacity: 0.2; stroke: #1f77b4; stroke-opacity: 0.2"/>
    <path d="M 161.803636 38.915677 
L 161.803636 38.915677 
L 163.832727 38.915677 
L 165.861818 38.915677 
L 167.890909 38.915677 
L 169.92 38.915677 
L 171.949091 38.915677 
L 173.978182 38.915677 
L 176.007273 38.915677 
L 178.036364 38.915677 
L 180.065455 38.915677 
L 182.094545 38.915677 
L 184.123636 42.867101 
L 186.152727 51.072353 
L 188.181818 38.915677 
L 188.181818 38.915677 
L 188.181818 38.915677 
L 186.152727 38.915677 
L 184.123636 38.915677 
L 182.094545 38.915677 
L 180.065455 38.283692 
L 178.036364 38.353912 
L 176.007273 38.915677 
L 173.978182 38.915677 
L 171.949091 38.915677 
L 169.92 37.979403 
L 167.890909 38.915677 
L 165.861818 38.915677 
L 163.832727 37.979403 
L 161.803636 38.915677 
z
" clip-path="url(#pb154f76ac9)" style="fill: #1f77b4; fill-opacity: 0.2; stroke: #1f77b4; stroke-opacity: 0.2"/>
    <path d="M 192.24 38.915677 
L 192.24 38.915677 
L 194.269091 38.915677 
L 194.269091 37.979403 
L 194.269091 37.979403 
L 192.24 38.915677 
z
" clip-path="url(#pb154f76ac9)" style="fill: #1f77b4; fill-opacity: 0.2; stroke: #1f77b4; stroke-opacity: 0.2"/>
    <path d="M 200.356364 38.915677 
L 200.356364 38.915677 
L 202.385455 38.915677 
L 202.385455 38.915677 
L 202.385455 38.915677 
L 200.356364 38.915677 
z
" clip-path="url(#pb154f76ac9)" style="fill: #1f77b4; fill-opacity: 0.2; stroke: #1f77b4; stroke-opacity: 0.2"/>
    <path d="M 206.443636 33.48 
L 206.443636 38.915677 
L 206.443636 33.48 
L 206.443636 33.48 
z
" clip-path="url(#pb154f76ac9)" style="fill: #1f77b4; fill-opacity: 0.2; stroke: #1f77b4; stroke-opacity: 0.2"/>
    <path d="M 212.530909 38.915677 
L 212.530909 38.915677 
L 214.56 38.915677 
L 214.56 33.48 
L 214.56 33.48 
L 212.530909 38.915677 
z
" clip-path="url(#pb154f76ac9)" style="fill: #1f77b4; fill-opacity: 0.2; stroke: #1f77b4; stroke-opacity: 0.2"/>
    <path d="M 218.618182 38.915677 
L 218.618182 44.184243 
L 220.647273 38.915677 
L 222.676364 38.915677 
L 224.705455 38.915677 
L 224.705455 38.915677 
L 224.705455 38.915677 
L 222.676364 38.915677 
L 220.647273 38.915677 
L 218.618182 38.915677 
z
" clip-path="url(#pb154f76ac9)" style="fill: #1f77b4; fill-opacity: 0.2; stroke: #1f77b4; stroke-opacity: 0.2"/>
    <path d="M 228.763636 38.915677 
L 228.763636 38.915677 
L 230.792727 38.915677 
L 232.821818 38.915677 
L 234.850909 38.915677 
L 236.88 38.915677 
L 238.909091 38.915677 
L 240.938182 38.915677 
L 240.938182 33.48 
L 240.938182 33.48 
L 238.909091 38.915677 
L 236.88 33.48 
L 234.850909 38.915677 
L 232.821818 38.915677 
L 230.792727 37.979403 
L 228.763636 38.915677 
z
" clip-path="url(#pb154f76ac9)" style="fill: #1f77b4; fill-opacity: 0.2; stroke: #1f77b4; stroke-opacity: 0.2"/>
    <path d="M 244.996364 37.979403 
L 244.996364 38.915677 
L 247.025455 38.915677 
L 249.054545 38.915677 
L 249.054545 37.979403 
L 249.054545 37.979403 
L 247.025455 38.915677 
L 244.996364 37.979403 
z
" clip-path="url(#pb154f76ac9)" style="fill: #1f77b4; fill-opacity: 0.2; stroke: #1f77b4; stroke-opacity: 0.2"/>
   </g>
   <g id="PolyCollection_2">
    <defs>
     <path id="m62879ee806" d="M 46.145455 -33.219725 
L 46.145455 -33.219725 
L 48.174545 -34.000962 
L 50.203636 -33.828242 
L 52.232727 -31.682597 
L 54.261818 -32.168946 
L 56.290909 -31.32 
L 58.32 -32.320517 
L 60.349091 -32.172685 
L 62.378182 -32.787548 
L 64.407273 -31.956618 
L 66.436364 -32.745191 
L 68.465455 -31.984647 
L 70.494545 -32.568092 
L 72.523636 -32.223911 
L 74.552727 -32.223911 
L 76.581818 -32.522993 
L 78.610909 -32.522993 
L 80.64 -32.522993 
L 82.669091 -34.245158 
L 84.698182 -34.961967 
L 86.727273 -35.711871 
L 88.756364 -34.989811 
L 90.785455 -35.259599 
L 92.814545 -36.093786 
L 94.843636 -35.493422 
L 96.872727 -35.493422 
L 98.901818 -35.493422 
L 100.930909 -36.257261 
L 102.96 -35.422917 
L 104.989091 -35.422917 
L 107.018182 -35.422917 
L 109.047273 -33.91993 
L 111.076364 -34.18177 
L 113.105455 -34.18177 
L 115.134545 -34.195193 
L 117.163636 -34.195193 
L 119.192727 -34.195193 
L 121.221818 -34.639249 
L 123.250909 -34.195193 
L 125.28 -34.195193 
L 127.309091 -34.195193 
L 129.338182 -33.91993 
L 131.367273 -33.975173 
L 133.396364 -33.976589 
L 135.425455 -33.976589 
L 137.454545 -31.795932 
L 139.483636 -31.795932 
L 141.512727 -31.795932 
L 143.541818 -31.442384 
L 145.570909 -31.442384 
L 147.6 -31.442384 
L 149.629091 -31.433662 
L 151.658182 -31.442384 
L 153.687273 -33.249544 
L 155.716364 -33.249544 
L 157.745455 -33.249544 
L 159.774545 -33.249544 
L 161.803636 -33.249544 
L 163.832727 -33.249544 
L 165.861818 -33.817738 
L 167.890909 -34.246248 
L 169.92 -34.246248 
L 171.949091 -34.246248 
L 173.978182 -34.246248 
L 176.007273 -34.246248 
L 178.036364 -34.246248 
L 180.065455 -34.246248 
L 182.094545 -34.246248 
L 184.123636 -34.246248 
L 186.152727 -34.246248 
L 188.181818 -34.246248 
L 190.210909 -32.720742 
L 192.24 -32.655103 
L 194.269091 -32.655103 
L 196.298182 -32.655103 
L 198.327273 -32.466501 
L 200.356364 -32.467631 
L 202.385455 -32.467631 
L 204.414545 -32.467631 
L 206.443636 -32.467631 
L 208.472727 -32.467631 
L 210.501818 -32.037759 
L 212.530909 -32.467631 
L 214.56 -32.467631 
L 216.589091 -32.467631 
L 218.618182 -32.467631 
L 220.647273 -32.714788 
L 222.676364 -32.467631 
L 224.705455 -32.467631 
L 226.734545 -32.467631 
L 228.763636 -32.037759 
L 230.792727 -32.592422 
L 232.821818 -32.592422 
L 234.850909 -32.592422 
L 236.88 -32.592422 
L 238.909091 -32.592422 
L 240.938182 -33.518662 
L 242.967273 -33.518662 
L 244.996364 -33.518662 
L 247.025455 -33.518662 
L 249.054545 -33.518662 
L 249.054545 -36.44374 
L 249.054545 -36.44374 
L 247.025455 -36.44374 
L 244.996364 -36.44374 
L 242.967273 -36.44374 
L 240.938182 -36.44374 
L 238.909091 -36.44374 
L 236.88 -36.44374 
L 234.850909 -36.44374 
L 232.821818 -36.44374 
L 230.792727 -36.44374 
L 228.763636 -36.771442 
L 226.734545 -36.44374 
L 224.705455 -36.44374 
L 222.676364 -36.44374 
L 220.647273 -36.44374 
L 218.618182 -36.44374 
L 216.589091 -36.44374 
L 214.56 -36.44374 
L 212.530909 -36.44374 
L 210.501818 -36.44374 
L 208.472727 -36.44374 
L 206.443636 -36.16328 
L 204.414545 -36.16328 
L 202.385455 -36.16328 
L 200.356364 -36.16328 
L 198.327273 -36.360617 
L 196.298182 -37.10671 
L 194.269091 -37.10671 
L 192.24 -37.390952 
L 190.210909 -37.390952 
L 188.181818 -37.390952 
L 186.152727 -37.390952 
L 184.123636 -37.390952 
L 182.094545 -37.45659 
L 180.065455 -37.45659 
L 178.036364 -37.390952 
L 176.007273 -37.390952 
L 173.978182 -37.390952 
L 171.949091 -37.390952 
L 169.92 -37.390952 
L 167.890909 -37.390952 
L 165.861818 -37.390952 
L 163.832727 -37.45659 
L 161.803636 -37.390952 
L 159.774545 -37.390952 
L 157.745455 -37.390952 
L 155.716364 -37.390952 
L 153.687273 -37.45659 
L 151.658182 -37.237987 
L 149.629091 -37.45659 
L 147.6 -37.237987 
L 145.570909 -37.237987 
L 143.541818 -37.237987 
L 141.512727 -37.237987 
L 139.483636 -37.399932 
L 137.454545 -37.399932 
L 135.425455 -37.399932 
L 133.396364 -37.45659 
L 131.367273 -37.237987 
L 129.338182 -37.399932 
L 127.309091 -37.45659 
L 125.28 -37.399932 
L 123.250909 -37.988938 
L 121.221818 -38.732101 
L 119.192727 -38.732101 
L 117.163636 -37.948382 
L 115.134545 -37.948382 
L 113.105455 -37.648349 
L 111.076364 -37.648349 
L 109.047273 -37.365955 
L 107.018182 -37.680783 
L 104.989091 -38.247739 
L 102.96 -38.247739 
L 100.930909 -38.523001 
L 98.901818 -38.523001 
L 96.872727 -38.253213 
L 94.843636 -38.253213 
L 92.814545 -38.234027 
L 90.785455 -38.234027 
L 88.756364 -38.023634 
L 86.727273 -38.023634 
L 84.698182 -36.555297 
L 82.669091 -36.30166 
L 80.64 -35.910941 
L 78.610909 -33.993587 
L 76.581818 -33.993587 
L 74.552727 -33.993587 
L 72.523636 -34.974563 
L 70.494545 -33.346996 
L 68.465455 -34.517785 
L 66.436364 -35.343715 
L 64.407273 -34.171347 
L 62.378182 -34.812586 
L 60.349091 -34.129214 
L 58.32 -35.283929 
L 56.290909 -35.508669 
L 54.261818 -34.892394 
L 52.232727 -33.916543 
L 50.203636 -35.044215 
L 48.174545 -34.000962 
L 46.145455 -33.219725 
z
" style="stroke: #ff7f0e; stroke-opacity: 0.2"/>
    </defs>
    <g clip-path="url(#pb154f76ac9)">
     <use xlink:href="#m62879ee806" x="0" y="216" style="fill: #ff7f0e; fill-opacity: 0.2; stroke: #ff7f0e; stroke-opacity: 0.2"/>
    </g>
   </g>
   <g id="matplotlib.axis_1">
    <g id="xtick_1">
     <g id="line2d_1">
      <defs>
       <path id="mec0cb5814a" d="M 0 0 
L 0 3.5 
" style="stroke: #000000; stroke-width: 0.8"/>
      </defs>
      <g>
       <use xlink:href="#mec0cb5814a" x="46.145455" y="192.24" style="stroke: #000000; stroke-width: 0.8"/>
      </g>
     </g>
     <g id="text_1">
      <!-- 0 -->
      <g transform="translate(42.964205 206.838437) scale(0.1 -0.1)">
       <defs>
        <path id="DejaVuSans-30" d="M 2034 4250 
Q 1547 4250 1301 3770 
Q 1056 3291 1056 2328 
Q 1056 1369 1301 889 
Q 1547 409 2034 409 
Q 2525 409 2770 889 
Q 3016 1369 3016 2328 
Q 3016 3291 2770 3770 
Q 2525 4250 2034 4250 
z
M 2034 4750 
Q 2819 4750 3233 4129 
Q 3647 3509 3647 2328 
Q 3647 1150 3233 529 
Q 2819 -91 2034 -91 
Q 1250 -91 836 529 
Q 422 1150 422 2328 
Q 422 3509 836 4129 
Q 1250 4750 2034 4750 
z
" transform="scale(0.015625)"/>
       </defs>
       <use xlink:href="#DejaVuSans-30"/>
      </g>
     </g>
    </g>
    <g id="xtick_2">
     <g id="line2d_2">
      <g>
       <use xlink:href="#mec0cb5814a" x="86.727273" y="192.24" style="stroke: #000000; stroke-width: 0.8"/>
      </g>
     </g>
     <g id="text_2">
      <!-- 20 -->
      <g transform="translate(80.364773 206.838437) scale(0.1 -0.1)">
       <defs>
        <path id="DejaVuSans-32" d="M 1228 531 
L 3431 531 
L 3431 0 
L 469 0 
L 469 531 
Q 828 903 1448 1529 
Q 2069 2156 2228 2338 
Q 2531 2678 2651 2914 
Q 2772 3150 2772 3378 
Q 2772 3750 2511 3984 
Q 2250 4219 1831 4219 
Q 1534 4219 1204 4116 
Q 875 4013 500 3803 
L 500 4441 
Q 881 4594 1212 4672 
Q 1544 4750 1819 4750 
Q 2544 4750 2975 4387 
Q 3406 4025 3406 3419 
Q 3406 3131 3298 2873 
Q 3191 2616 2906 2266 
Q 2828 2175 2409 1742 
Q 1991 1309 1228 531 
z
" transform="scale(0.015625)"/>
       </defs>
       <use xlink:href="#DejaVuSans-32"/>
       <use xlink:href="#DejaVuSans-30" x="63.623047"/>
      </g>
     </g>
    </g>
    <g id="xtick_3">
     <g id="line2d_3">
      <g>
       <use xlink:href="#mec0cb5814a" x="127.309091" y="192.24" style="stroke: #000000; stroke-width: 0.8"/>
      </g>
     </g>
     <g id="text_3">
      <!-- 40 -->
      <g transform="translate(120.946591 206.838437) scale(0.1 -0.1)">
       <defs>
        <path id="DejaVuSans-34" d="M 2419 4116 
L 825 1625 
L 2419 1625 
L 2419 4116 
z
M 2253 4666 
L 3047 4666 
L 3047 1625 
L 3713 1625 
L 3713 1100 
L 3047 1100 
L 3047 0 
L 2419 0 
L 2419 1100 
L 313 1100 
L 313 1709 
L 2253 4666 
z
" transform="scale(0.015625)"/>
       </defs>
       <use xlink:href="#DejaVuSans-34"/>
       <use xlink:href="#DejaVuSans-30" x="63.623047"/>
      </g>
     </g>
    </g>
    <g id="xtick_4">
     <g id="line2d_4">
      <g>
       <use xlink:href="#mec0cb5814a" x="167.890909" y="192.24" style="stroke: #000000; stroke-width: 0.8"/>
      </g>
     </g>
     <g id="text_4">
      <!-- 60 -->
      <g transform="translate(161.528409 206.838437) scale(0.1 -0.1)">
       <defs>
        <path id="DejaVuSans-36" d="M 2113 2584 
Q 1688 2584 1439 2293 
Q 1191 2003 1191 1497 
Q 1191 994 1439 701 
Q 1688 409 2113 409 
Q 2538 409 2786 701 
Q 3034 994 3034 1497 
Q 3034 2003 2786 2293 
Q 2538 2584 2113 2584 
z
M 3366 4563 
L 3366 3988 
Q 3128 4100 2886 4159 
Q 2644 4219 2406 4219 
Q 1781 4219 1451 3797 
Q 1122 3375 1075 2522 
Q 1259 2794 1537 2939 
Q 1816 3084 2150 3084 
Q 2853 3084 3261 2657 
Q 3669 2231 3669 1497 
Q 3669 778 3244 343 
Q 2819 -91 2113 -91 
Q 1303 -91 875 529 
Q 447 1150 447 2328 
Q 447 3434 972 4092 
Q 1497 4750 2381 4750 
Q 2619 4750 2861 4703 
Q 3103 4656 3366 4563 
z
" transform="scale(0.015625)"/>
       </defs>
       <use xlink:href="#DejaVuSans-36"/>
       <use xlink:href="#DejaVuSans-30" x="63.623047"/>
      </g>
     </g>
    </g>
    <g id="xtick_5">
     <g id="line2d_5">
      <g>
       <use xlink:href="#mec0cb5814a" x="208.472727" y="192.24" style="stroke: #000000; stroke-width: 0.8"/>
      </g>
     </g>
     <g id="text_5">
      <!-- 80 -->
      <g transform="translate(202.110227 206.838437) scale(0.1 -0.1)">
       <defs>
        <path id="DejaVuSans-38" d="M 2034 2216 
Q 1584 2216 1326 1975 
Q 1069 1734 1069 1313 
Q 1069 891 1326 650 
Q 1584 409 2034 409 
Q 2484 409 2743 651 
Q 3003 894 3003 1313 
Q 3003 1734 2745 1975 
Q 2488 2216 2034 2216 
z
M 1403 2484 
Q 997 2584 770 2862 
Q 544 3141 544 3541 
Q 544 4100 942 4425 
Q 1341 4750 2034 4750 
Q 2731 4750 3128 4425 
Q 3525 4100 3525 3541 
Q 3525 3141 3298 2862 
Q 3072 2584 2669 2484 
Q 3125 2378 3379 2068 
Q 3634 1759 3634 1313 
Q 3634 634 3220 271 
Q 2806 -91 2034 -91 
Q 1263 -91 848 271 
Q 434 634 434 1313 
Q 434 1759 690 2068 
Q 947 2378 1403 2484 
z
M 1172 3481 
Q 1172 3119 1398 2916 
Q 1625 2713 2034 2713 
Q 2441 2713 2670 2916 
Q 2900 3119 2900 3481 
Q 2900 3844 2670 4047 
Q 2441 4250 2034 4250 
Q 1625 4250 1398 4047 
Q 1172 3844 1172 3481 
z
" transform="scale(0.015625)"/>
       </defs>
       <use xlink:href="#DejaVuSans-38"/>
       <use xlink:href="#DejaVuSans-30" x="63.623047"/>
      </g>
     </g>
    </g>
    <g id="xtick_6">
     <g id="line2d_6">
      <g>
       <use xlink:href="#mec0cb5814a" x="249.054545" y="192.24" style="stroke: #000000; stroke-width: 0.8"/>
      </g>
     </g>
     <g id="text_6">
      <!-- 100 -->
      <g transform="translate(239.510795 206.838437) scale(0.1 -0.1)">
       <defs>
        <path id="DejaVuSans-31" d="M 794 531 
L 1825 531 
L 1825 4091 
L 703 3866 
L 703 4441 
L 1819 4666 
L 2450 4666 
L 2450 531 
L 3481 531 
L 3481 0 
L 794 0 
L 794 531 
z
" transform="scale(0.015625)"/>
       </defs>
       <use xlink:href="#DejaVuSans-31"/>
       <use xlink:href="#DejaVuSans-30" x="63.623047"/>
       <use xlink:href="#DejaVuSans-30" x="127.246094"/>
      </g>
     </g>
    </g>
    <g id="text_7">
     <!-- None -->
     <g transform="translate(134.554688 220.516562) scale(0.1 -0.1)">
      <defs>
       <path id="DejaVuSans-4e" d="M 628 4666 
L 1478 4666 
L 3547 763 
L 3547 4666 
L 4159 4666 
L 4159 0 
L 3309 0 
L 1241 3903 
L 1241 0 
L 628 0 
L 628 4666 
z
" transform="scale(0.015625)"/>
       <path id="DejaVuSans-6f" d="M 1959 3097 
Q 1497 3097 1228 2736 
Q 959 2375 959 1747 
Q 959 1119 1226 758 
Q 1494 397 1959 397 
Q 2419 397 2687 759 
Q 2956 1122 2956 1747 
Q 2956 2369 2687 2733 
Q 2419 3097 1959 3097 
z
M 1959 3584 
Q 2709 3584 3137 3096 
Q 3566 2609 3566 1747 
Q 3566 888 3137 398 
Q 2709 -91 1959 -91 
Q 1206 -91 779 398 
Q 353 888 353 1747 
Q 353 2609 779 3096 
Q 1206 3584 1959 3584 
z
" transform="scale(0.015625)"/>
       <path id="DejaVuSans-6e" d="M 3513 2113 
L 3513 0 
L 2938 0 
L 2938 2094 
Q 2938 2591 2744 2837 
Q 2550 3084 2163 3084 
Q 1697 3084 1428 2787 
Q 1159 2491 1159 1978 
L 1159 0 
L 581 0 
L 581 3500 
L 1159 3500 
L 1159 2956 
Q 1366 3272 1645 3428 
Q 1925 3584 2291 3584 
Q 2894 3584 3203 3211 
Q 3513 2838 3513 2113 
z
" transform="scale(0.015625)"/>
       <path id="DejaVuSans-65" d="M 3597 1894 
L 3597 1613 
L 953 1613 
Q 991 1019 1311 708 
Q 1631 397 2203 397 
Q 2534 397 2845 478 
Q 3156 559 3463 722 
L 3463 178 
Q 3153 47 2828 -22 
Q 2503 -91 2169 -91 
Q 1331 -91 842 396 
Q 353 884 353 1716 
Q 353 2575 817 3079 
Q 1281 3584 2069 3584 
Q 2775 3584 3186 3129 
Q 3597 2675 3597 1894 
z
M 3022 2063 
Q 3016 2534 2758 2815 
Q 2500 3097 2075 3097 
Q 1594 3097 1305 2825 
Q 1016 2553 972 2059 
L 3022 2063 
z
" transform="scale(0.015625)"/>
      </defs>
      <use xlink:href="#DejaVuSans-4e"/>
      <use xlink:href="#DejaVuSans-6f" x="74.804688"/>
      <use xlink:href="#DejaVuSans-6e" x="135.986328"/>
      <use xlink:href="#DejaVuSans-65" x="199.365234"/>
     </g>
    </g>
   </g>
   <g id="matplotlib.axis_2">
    <g id="ytick_1">
     <g id="line2d_7">
      <defs>
       <path id="medfb5af1b1" d="M 0 0 
L -3.5 0 
" style="stroke: #000000; stroke-width: 0.8"/>
      </defs>
      <g>
       <use xlink:href="#medfb5af1b1" x="36" y="177.893544" style="stroke: #000000; stroke-width: 0.8"/>
      </g>
     </g>
     <g id="text_8">
      <!-- 0.8 -->
      <g transform="translate(13.096875 181.692763) scale(0.1 -0.1)">
       <defs>
        <path id="DejaVuSans-2e" d="M 684 794 
L 1344 794 
L 1344 0 
L 684 0 
L 684 794 
z
" transform="scale(0.015625)"/>
       </defs>
       <use xlink:href="#DejaVuSans-30"/>
       <use xlink:href="#DejaVuSans-2e" x="63.623047"/>
       <use xlink:href="#DejaVuSans-38" x="95.410156"/>
      </g>
     </g>
    </g>
    <g id="ytick_2">
     <g id="line2d_8">
      <g>
       <use xlink:href="#medfb5af1b1" x="36" y="145.013663" style="stroke: #000000; stroke-width: 0.8"/>
      </g>
     </g>
     <g id="text_9">
      <!-- 0.9 -->
      <g transform="translate(13.096875 148.812882) scale(0.1 -0.1)">
       <defs>
        <path id="DejaVuSans-39" d="M 703 97 
L 703 672 
Q 941 559 1184 500 
Q 1428 441 1663 441 
Q 2288 441 2617 861 
Q 2947 1281 2994 2138 
Q 2813 1869 2534 1725 
Q 2256 1581 1919 1581 
Q 1219 1581 811 2004 
Q 403 2428 403 3163 
Q 403 3881 828 4315 
Q 1253 4750 1959 4750 
Q 2769 4750 3195 4129 
Q 3622 3509 3622 2328 
Q 3622 1225 3098 567 
Q 2575 -91 1691 -91 
Q 1453 -91 1209 -44 
Q 966 3 703 97 
z
M 1959 2075 
Q 2384 2075 2632 2365 
Q 2881 2656 2881 3163 
Q 2881 3666 2632 3958 
Q 2384 4250 1959 4250 
Q 1534 4250 1286 3958 
Q 1038 3666 1038 3163 
Q 1038 2656 1286 2365 
Q 1534 2075 1959 2075 
z
" transform="scale(0.015625)"/>
       </defs>
       <use xlink:href="#DejaVuSans-30"/>
       <use xlink:href="#DejaVuSans-2e" x="63.623047"/>
       <use xlink:href="#DejaVuSans-39" x="95.410156"/>
      </g>
     </g>
    </g>
    <g id="ytick_3">
     <g id="line2d_9">
      <g>
       <use xlink:href="#medfb5af1b1" x="36" y="112.133782" style="stroke: #000000; stroke-width: 0.8"/>
      </g>
     </g>
     <g id="text_10">
      <!-- 1.0 -->
      <g transform="translate(13.096875 115.933001) scale(0.1 -0.1)">
       <use xlink:href="#DejaVuSans-31"/>
       <use xlink:href="#DejaVuSans-2e" x="63.623047"/>
       <use xlink:href="#DejaVuSans-30" x="95.410156"/>
      </g>
     </g>
    </g>
    <g id="ytick_4">
     <g id="line2d_10">
      <g>
       <use xlink:href="#medfb5af1b1" x="36" y="79.253901" style="stroke: #000000; stroke-width: 0.8"/>
      </g>
     </g>
     <g id="text_11">
      <!-- 1.1 -->
      <g transform="translate(13.096875 83.05312) scale(0.1 -0.1)">
       <use xlink:href="#DejaVuSans-31"/>
       <use xlink:href="#DejaVuSans-2e" x="63.623047"/>
       <use xlink:href="#DejaVuSans-31" x="95.410156"/>
      </g>
     </g>
    </g>
    <g id="ytick_5">
     <g id="line2d_11">
      <g>
       <use xlink:href="#medfb5af1b1" x="36" y="46.37402" style="stroke: #000000; stroke-width: 0.8"/>
      </g>
     </g>
     <g id="text_12">
      <!-- 1.2 -->
      <g transform="translate(13.096875 50.173239) scale(0.1 -0.1)">
       <use xlink:href="#DejaVuSans-31"/>
       <use xlink:href="#DejaVuSans-2e" x="63.623047"/>
       <use xlink:href="#DejaVuSans-32" x="95.410156"/>
      </g>
     </g>
    </g>
    <g id="text_13">
     <!-- mean_fitness -->
     <g transform="translate(6.739062 142.32375) rotate(-90) scale(0.1 -0.1)">
      <defs>
       <path id="DejaVuSans-6d" d="M 3328 2828 
Q 3544 3216 3844 3400 
Q 4144 3584 4550 3584 
Q 5097 3584 5394 3201 
Q 5691 2819 5691 2113 
L 5691 0 
L 5113 0 
L 5113 2094 
Q 5113 2597 4934 2840 
Q 4756 3084 4391 3084 
Q 3944 3084 3684 2787 
Q 3425 2491 3425 1978 
L 3425 0 
L 2847 0 
L 2847 2094 
Q 2847 2600 2669 2842 
Q 2491 3084 2119 3084 
Q 1678 3084 1418 2786 
Q 1159 2488 1159 1978 
L 1159 0 
L 581 0 
L 581 3500 
L 1159 3500 
L 1159 2956 
Q 1356 3278 1631 3431 
Q 1906 3584 2284 3584 
Q 2666 3584 2933 3390 
Q 3200 3197 3328 2828 
z
" transform="scale(0.015625)"/>
       <path id="DejaVuSans-61" d="M 2194 1759 
Q 1497 1759 1228 1600 
Q 959 1441 959 1056 
Q 959 750 1161 570 
Q 1363 391 1709 391 
Q 2188 391 2477 730 
Q 2766 1069 2766 1631 
L 2766 1759 
L 2194 1759 
z
M 3341 1997 
L 3341 0 
L 2766 0 
L 2766 531 
Q 2569 213 2275 61 
Q 1981 -91 1556 -91 
Q 1019 -91 701 211 
Q 384 513 384 1019 
Q 384 1609 779 1909 
Q 1175 2209 1959 2209 
L 2766 2209 
L 2766 2266 
Q 2766 2663 2505 2880 
Q 2244 3097 1772 3097 
Q 1472 3097 1187 3025 
Q 903 2953 641 2809 
L 641 3341 
Q 956 3463 1253 3523 
Q 1550 3584 1831 3584 
Q 2591 3584 2966 3190 
Q 3341 2797 3341 1997 
z
" transform="scale(0.015625)"/>
       <path id="DejaVuSans-5f" d="M 3263 -1063 
L 3263 -1509 
L -63 -1509 
L -63 -1063 
L 3263 -1063 
z
" transform="scale(0.015625)"/>
       <path id="DejaVuSans-66" d="M 2375 4863 
L 2375 4384 
L 1825 4384 
Q 1516 4384 1395 4259 
Q 1275 4134 1275 3809 
L 1275 3500 
L 2222 3500 
L 2222 3053 
L 1275 3053 
L 1275 0 
L 697 0 
L 697 3053 
L 147 3053 
L 147 3500 
L 697 3500 
L 697 3744 
Q 697 4328 969 4595 
Q 1241 4863 1831 4863 
L 2375 4863 
z
" transform="scale(0.015625)"/>
       <path id="DejaVuSans-69" d="M 603 3500 
L 1178 3500 
L 1178 0 
L 603 0 
L 603 3500 
z
M 603 4863 
L 1178 4863 
L 1178 4134 
L 603 4134 
L 603 4863 
z
" transform="scale(0.015625)"/>
       <path id="DejaVuSans-74" d="M 1172 4494 
L 1172 3500 
L 2356 3500 
L 2356 3053 
L 1172 3053 
L 1172 1153 
Q 1172 725 1289 603 
Q 1406 481 1766 481 
L 2356 481 
L 2356 0 
L 1766 0 
Q 1100 0 847 248 
Q 594 497 594 1153 
L 594 3053 
L 172 3053 
L 172 3500 
L 594 3500 
L 594 4494 
L 1172 4494 
z
" transform="scale(0.015625)"/>
       <path id="DejaVuSans-73" d="M 2834 3397 
L 2834 2853 
Q 2591 2978 2328 3040 
Q 2066 3103 1784 3103 
Q 1356 3103 1142 2972 
Q 928 2841 928 2578 
Q 928 2378 1081 2264 
Q 1234 2150 1697 2047 
L 1894 2003 
Q 2506 1872 2764 1633 
Q 3022 1394 3022 966 
Q 3022 478 2636 193 
Q 2250 -91 1575 -91 
Q 1294 -91 989 -36 
Q 684 19 347 128 
L 347 722 
Q 666 556 975 473 
Q 1284 391 1588 391 
Q 1994 391 2212 530 
Q 2431 669 2431 922 
Q 2431 1156 2273 1281 
Q 2116 1406 1581 1522 
L 1381 1569 
Q 847 1681 609 1914 
Q 372 2147 372 2553 
Q 372 3047 722 3315 
Q 1072 3584 1716 3584 
Q 2034 3584 2315 3537 
Q 2597 3491 2834 3397 
z
" transform="scale(0.015625)"/>
      </defs>
      <use xlink:href="#DejaVuSans-6d"/>
      <use xlink:href="#DejaVuSans-65" x="97.412109"/>
      <use xlink:href="#DejaVuSans-61" x="158.935547"/>
      <use xlink:href="#DejaVuSans-6e" x="220.214844"/>
      <use xlink:href="#DejaVuSans-5f" x="283.59375"/>
      <use xlink:href="#DejaVuSans-66" x="333.59375"/>
      <use xlink:href="#DejaVuSans-69" x="368.798828"/>
      <use xlink:href="#DejaVuSans-74" x="396.582031"/>
      <use xlink:href="#DejaVuSans-6e" x="435.791016"/>
      <use xlink:href="#DejaVuSans-65" x="499.169922"/>
      <use xlink:href="#DejaVuSans-73" x="560.693359"/>
      <use xlink:href="#DejaVuSans-73" x="612.792969"/>
     </g>
    </g>
   </g>
   <g id="line2d_12">
    <path d="M 48.174545 81.421149 
L 50.203636 44.085151 
L 52.232727 42.458703 
L 54.261818 40.945196 
L 56.290909 40.945196 
L 58.32 39.705219 
L 60.349091 39.705219 
L 62.378182 38.728422 
L 64.407273 41.159757 
L 66.436364 39.705219 
L 68.465455 39.968399 
L 70.494545 38.728422 
L 72.523636 43.99578 
L 74.552727 38.603585 
L 76.581818 38.915677 
L 78.610909 38.681608 
L 80.64 38.728422 
L 82.669091 38.728422 
L 84.698182 38.603585 
L 86.727273 38.681608 
L 88.756364 40.982306 
L 90.785455 41.756427 
L 92.814545 40.155654 
L 94.843636 40.595927 
L 96.872727 39.705219 
L 98.901818 38.728422 
L 100.930909 40.465649 
L 102.96 38.681608 
L 104.989091 38.603585 
L 107.018182 38.915677 
L 109.047273 38.603585 
L 111.076364 37.828541 
L 113.105455 38.915677 
L 115.134545 38.728422 
L 117.163636 38.915677 
L 119.192727 38.915677 
L 121.221818 38.915677 
L 123.250909 38.681608 
L 125.28 38.915677 
L 127.309091 38.681608 
L 129.338182 38.915677 
L 131.367273 38.681608 
L 133.396364 38.915677 
L 135.425455 38.915677 
L 137.454545 38.728422 
L 139.483636 38.915677 
L 141.512727 38.915677 
L 143.541818 38.603585 
L 145.570909 40.465649 
L 147.6 39.902604 
L 149.629091 38.681608 
L 151.658182 37.556758 
L 153.687273 38.681608 
L 155.716364 38.915677 
L 157.745455 37.103784 
L 159.774545 38.915677 
L 161.803636 38.915677 
L 163.832727 38.44754 
L 165.861818 38.915677 
L 167.890909 38.915677 
L 169.92 38.603585 
L 171.949091 38.915677 
L 173.978182 38.915677 
L 176.007273 38.915677 
L 178.036364 38.728422 
L 180.065455 38.603585 
L 182.094545 38.915677 
L 184.123636 40.232818 
L 186.152727 44.994015 
L 188.181818 38.915677 
L 190.210909 38.915677 
L 192.24 38.915677 
L 194.269091 38.603585 
L 196.298182 38.915677 
L 200.356364 38.915677 
L 202.385455 38.915677 
L 204.414545 38.915677 
L 206.443636 37.103784 
L 208.472727 38.915677 
L 210.501818 38.915677 
L 212.530909 38.915677 
L 214.56 36.197838 
L 216.589091 37.979403 
L 218.618182 41.54996 
L 220.647273 38.915677 
L 222.676364 38.915677 
L 224.705455 38.915677 
L 226.734545 38.915677 
L 228.763636 38.915677 
L 230.792727 38.603585 
L 232.821818 38.915677 
L 234.850909 38.915677 
L 236.88 36.197838 
L 238.909091 38.915677 
L 240.938182 36.197838 
L 242.967273 33.48 
L 244.996364 38.603585 
L 247.025455 38.915677 
L 249.054545 38.44754 
" clip-path="url(#pb154f76ac9)" style="fill: none; stroke: #1f77b4; stroke-width: 1.5; stroke-linecap: square"/>
   </g>
   <g id="line2d_13">
    <path d="M 46.145455 182.780275 
L 48.174545 181.999038 
L 50.203636 181.401224 
L 52.232727 183.149539 
L 54.261818 182.460017 
L 56.290909 182.476977 
L 58.32 182.361439 
L 60.349091 182.661676 
L 62.378182 182.284388 
L 64.407273 182.818137 
L 66.436364 182.104972 
L 68.465455 182.890326 
L 70.494545 182.952185 
L 72.523636 182.400763 
L 74.552727 182.891251 
L 76.581818 182.694521 
L 78.610909 182.694521 
L 80.64 182.034115 
L 82.669091 180.729733 
L 84.698182 180.249776 
L 86.727273 179.299786 
L 88.756364 179.603767 
L 90.785455 179.123585 
L 92.814545 178.839303 
L 94.843636 179.039249 
L 96.872727 179.039249 
L 98.901818 179.044723 
L 100.930909 178.75117 
L 102.96 179.068225 
L 104.989091 179.068225 
L 107.018182 179.348032 
L 109.047273 180.069308 
L 111.076364 179.773491 
L 113.105455 179.773491 
L 115.134545 179.623475 
L 117.163636 179.623475 
L 119.192727 179.316012 
L 121.221818 179.316012 
L 123.250909 179.603196 
L 125.28 179.978672 
L 127.309091 179.978672 
L 129.338182 179.978672 
L 131.367273 179.978672 
L 133.396364 179.978672 
L 135.425455 179.978672 
L 137.454545 180.705558 
L 139.483636 180.705558 
L 141.512727 180.997762 
L 143.541818 181.115612 
L 145.570909 181.115612 
L 147.6 181.115612 
L 149.629091 181.115612 
L 151.658182 181.115612 
L 153.687273 180.230001 
L 155.716364 180.230001 
L 157.745455 180.230001 
L 159.774545 180.230001 
L 161.803636 180.230001 
L 163.832727 180.230001 
L 165.861818 180.040602 
L 167.890909 179.897766 
L 169.92 179.897766 
L 171.949091 179.897766 
L 173.978182 179.897766 
L 176.007273 179.897766 
L 178.036364 179.897766 
L 180.065455 179.897766 
L 182.094545 179.897766 
L 184.123636 179.897766 
L 186.152727 179.897766 
L 188.181818 179.897766 
L 190.210909 180.406268 
L 192.24 181.089251 
L 194.269091 181.089251 
L 196.298182 181.089251 
L 198.327273 181.551102 
L 200.356364 181.560966 
L 202.385455 181.560966 
L 204.414545 181.560966 
L 206.443636 181.560966 
L 208.472727 181.420736 
L 210.501818 181.420736 
L 212.530909 181.420736 
L 214.56 181.420736 
L 216.589091 181.420736 
L 218.618182 181.420736 
L 220.647273 181.420736 
L 222.676364 181.420736 
L 224.705455 181.420736 
L 226.734545 181.420736 
L 228.763636 181.420736 
L 230.792727 181.379139 
L 232.821818 181.379139 
L 234.850909 181.379139 
L 236.88 181.379139 
L 238.909091 181.379139 
L 240.938182 181.018799 
L 242.967273 181.018799 
L 244.996364 181.018799 
L 247.025455 181.018799 
L 249.054545 181.018799 
" clip-path="url(#pb154f76ac9)" style="fill: none; stroke: #ff7f0e; stroke-width: 1.5; stroke-linecap: square"/>
   </g>
   <g id="patch_3">
    <path d="M 36 192.24 
L 36 25.92 
" style="fill: none; stroke: #000000; stroke-width: 0.8; stroke-linejoin: miter; stroke-linecap: square"/>
   </g>
   <g id="patch_4">
    <path d="M 259.2 192.24 
L 259.2 25.92 
" style="fill: none; stroke: #000000; stroke-width: 0.8; stroke-linejoin: miter; stroke-linecap: square"/>
   </g>
   <g id="patch_5">
    <path d="M 36 192.24 
L 259.2 192.24 
" style="fill: none; stroke: #000000; stroke-width: 0.8; stroke-linejoin: miter; stroke-linecap: square"/>
   </g>
   <g id="patch_6">
    <path d="M 36 25.92 
L 259.2 25.92 
" style="fill: none; stroke: #000000; stroke-width: 0.8; stroke-linejoin: miter; stroke-linecap: square"/>
   </g>
  </g>
 </g>
 <defs>
  <clipPath id="pb154f76ac9">
   <rect x="36" y="25.92" width="223.2" height="166.32"/>
  </clipPath>
 </defs>
</svg>
