<?xml version="1.0" encoding="utf-8" standalone="no"?>
<!DOCTYPE svg PUBLIC "-//W3C//DTD SVG 1.1//EN"
  "http://www.w3.org/Graphics/SVG/1.1/DTD/svg11.dtd">
<svg xmlns:xlink="http://www.w3.org/1999/xlink" width="288pt" height="216pt" viewBox="0 0 288 216" xmlns="http://www.w3.org/2000/svg" version="1.1">
 <metadata>
  <rdf:RDF xmlns:dc="http://purl.org/dc/elements/1.1/" xmlns:cc="http://creativecommons.org/ns#" xmlns:rdf="http://www.w3.org/1999/02/22-rdf-syntax-ns#">
   <cc:Work>
    <dc:type rdf:resource="http://purl.org/dc/dcmitype/StillImage"/>
    <dc:date>2024-12-02T20:01:24.054043</dc:date>
    <dc:format>image/svg+xml</dc:format>
    <dc:creator>
     <cc:Agent>
      <dc:title>Matplotlib v3.8.2, https://matplotlib.org/</dc:title>
     </cc:Agent>
    </dc:creator>
   </cc:Work>
  </rdf:RDF>
 </metadata>
 <defs>
  <style type="text/css">*{stroke-linejoin: round; stroke-linecap: butt}</style>
 </defs>
 <g id="figure_1">
  <g id="patch_1">
   <path d="M 0 216 
L 288 216 
L 288 0 
L 0 0 
z
" style="fill: #ffffff"/>
  </g>
  <g id="axes_1">
   <g id="patch_2">
    <path d="M 36 192.24 
L 259.2 192.24 
L 259.2 25.92 
L 36 25.92 
z
" style="fill: #ffffff"/>
   </g>
   <g id="PolyCollection_1">
    <path d="M 48.174545 33.48 
L 48.174545 62.09017 
L 50.203636 83.942615 
L 52.232727 133.694196 
L 54.261818 145.493829 
L 56.290909 175.742778 
L 58.32 161.437492 
L 60.349091 178.419894 
L 62.378182 181.461666 
L 64.407273 183.183298 
L 66.436364 182.625669 
L 68.465455 180.383124 
L 70.494545 179.459957 
L 72.523636 180.54217 
L 74.552727 182.72982 
L 76.581818 168.507478 
L 78.610909 182.544738 
L 80.64 181.042861 
L 82.669091 183.266325 
L 84.698182 181.808812 
L 86.727273 183.276229 
L 88.756364 183.866447 
L 90.785455 184.393213 
L 92.814545 184.315189 
L 94.843636 182.953887 
L 96.872727 183.066109 
L 98.901818 183.849232 
L 100.930909 183.90617 
L 102.96 182.109728 
L 104.989091 181.508367 
L 107.018182 184.35414 
L 109.047273 180.661968 
L 111.076364 182.619085 
L 113.105455 182.56156 
L 115.134545 183.201498 
L 117.163636 182.16523 
L 119.192727 184.649566 
L 121.221818 184.164853 
L 123.250909 184.624879 
L 125.28 183.751794 
L 127.309091 183.648496 
L 129.338182 184.296803 
L 131.367273 183.983428 
L 133.396364 184.321915 
L 135.425455 183.536332 
L 137.454545 184.072073 
L 139.483636 184.374785 
L 141.512727 184.000539 
L 143.541818 184.085222 
L 145.570909 183.662387 
L 147.6 183.791793 
L 149.629091 183.640929 
L 151.658182 184.186923 
L 153.687273 183.877056 
L 155.716364 184.520987 
L 157.745455 184.103356 
L 157.745455 183.825426 
L 157.745455 183.825426 
L 155.716364 167.83812 
L 153.687273 172.504939 
L 151.658182 176.016515 
L 149.629091 180.654453 
L 147.6 179.105472 
L 145.570909 180.78987 
L 143.541818 173.083101 
L 141.512727 151.732005 
L 139.483636 181.027268 
L 137.454545 180.421151 
L 135.425455 176.67978 
L 133.396364 181.526277 
L 131.367273 180.665381 
L 129.338182 172.798861 
L 127.309091 178.574217 
L 125.28 166.993662 
L 123.250909 180.398699 
L 121.221818 173.840284 
L 119.192727 182.95814 
L 117.163636 174.267118 
L 115.134545 179.726237 
L 113.105455 179.388048 
L 111.076364 164.487503 
L 109.047273 173.489083 
L 107.018182 183.069093 
L 104.989091 180.648996 
L 102.96 158.756245 
L 100.930909 179.624595 
L 98.901818 160.179095 
L 96.872727 175.122172 
L 94.843636 180.246228 
L 92.814545 180.381975 
L 90.785455 176.087492 
L 88.756364 148.160359 
L 86.727273 162.035125 
L 84.698182 134.123999 
L 82.669091 166.392832 
L 80.64 176.689236 
L 78.610909 146.121259 
L 76.581818 112.740448 
L 74.552727 97.004763 
L 72.523636 140.503283 
L 70.494545 168.473359 
L 68.465455 144.509253 
L 66.436364 168.443681 
L 64.407273 127.086304 
L 62.378182 152.862023 
L 60.349091 119.466207 
L 58.32 99.38295 
L 56.290909 90.036691 
L 54.261818 56.839322 
L 52.232727 49.093274 
L 50.203636 40.355617 
L 48.174545 33.48 
z
" clip-path="url(#pc71424f7be)" style="fill: #1f77b4; fill-opacity: 0.2; stroke: #1f77b4; stroke-opacity: 0.2"/>
    <path d="M 161.803636 179.430329 
L 161.803636 184.188695 
L 163.832727 184.36401 
L 165.861818 182.917903 
L 167.890909 183.992663 
L 169.92 184.614771 
L 171.949091 183.025866 
L 173.978182 184.367645 
L 176.007273 184.457198 
L 178.036364 183.81576 
L 180.065455 184.260913 
L 182.094545 184.447727 
L 184.123636 184.147298 
L 186.152727 181.721983 
L 188.181818 184.646343 
L 188.181818 179.139031 
L 188.181818 179.139031 
L 186.152727 180.687908 
L 184.123636 181.49576 
L 182.094545 181.962228 
L 180.065455 177.794157 
L 178.036364 179.292235 
L 176.007273 179.992802 
L 173.978182 183.525022 
L 171.949091 180.071328 
L 169.92 175.058222 
L 167.890909 182.917266 
L 165.861818 181.712932 
L 163.832727 168.735181 
L 161.803636 179.430329 
z
" clip-path="url(#pc71424f7be)" style="fill: #1f77b4; fill-opacity: 0.2; stroke: #1f77b4; stroke-opacity: 0.2"/>
    <path d="M 192.24 167.588602 
L 192.24 184.222888 
L 194.269091 184.431904 
L 194.269091 169.861488 
L 194.269091 169.861488 
L 192.24 167.588602 
z
" clip-path="url(#pc71424f7be)" style="fill: #1f77b4; fill-opacity: 0.2; stroke: #1f77b4; stroke-opacity: 0.2"/>
    <path d="M 200.356364 178.90882 
L 200.356364 184.516734 
L 202.385455 183.957493 
L 202.385455 179.52862 
L 202.385455 179.52862 
L 200.356364 178.90882 
z
" clip-path="url(#pc71424f7be)" style="fill: #1f77b4; fill-opacity: 0.2; stroke: #1f77b4; stroke-opacity: 0.2"/>
    <path d="M 206.443636 144.172133 
L 206.443636 184.088955 
L 206.443636 144.172133 
L 206.443636 144.172133 
z
" clip-path="url(#pc71424f7be)" style="fill: #1f77b4; fill-opacity: 0.2; stroke: #1f77b4; stroke-opacity: 0.2"/>
    <path d="M 212.530909 179.925334 
L 212.530909 184.38325 
L 214.56 180.107481 
L 214.56 177.791589 
L 214.56 177.791589 
L 212.530909 179.925334 
z
" clip-path="url(#pc71424f7be)" style="fill: #1f77b4; fill-opacity: 0.2; stroke: #1f77b4; stroke-opacity: 0.2"/>
    <path d="M 218.618182 176.51524 
L 218.618182 184.410637 
L 220.647273 183.919241 
L 222.676364 183.938408 
L 224.705455 184.650312 
L 224.705455 182.317113 
L 224.705455 182.317113 
L 222.676364 183.690977 
L 220.647273 179.714731 
L 218.618182 176.51524 
z
" clip-path="url(#pc71424f7be)" style="fill: #1f77b4; fill-opacity: 0.2; stroke: #1f77b4; stroke-opacity: 0.2"/>
    <path d="M 228.763636 178.045837 
L 228.763636 184.621878 
L 230.792727 182.449555 
L 232.821818 182.996118 
L 234.850909 183.407342 
L 236.88 183.26914 
L 238.909091 183.785374 
L 240.938182 184.485269 
L 240.938182 183.159543 
L 240.938182 183.159543 
L 238.909091 174.252615 
L 236.88 174.744803 
L 234.850909 179.678988 
L 232.821818 181.162243 
L 230.792727 181.54605 
L 228.763636 178.045837 
z
" clip-path="url(#pc71424f7be)" style="fill: #1f77b4; fill-opacity: 0.2; stroke: #1f77b4; stroke-opacity: 0.2"/>
    <path d="M 244.996364 161.752032 
L 244.996364 184.68 
L 247.025455 182.928427 
L 249.054545 184.420317 
L 249.054545 179.581239 
L 249.054545 179.581239 
L 247.025455 181.007751 
L 244.996364 161.752032 
z
" clip-path="url(#pc71424f7be)" style="fill: #1f77b4; fill-opacity: 0.2; stroke: #1f77b4; stroke-opacity: 0.2"/>
   </g>
   <g id="PolyCollection_2">
    <defs>
     <path id="m8044d024d0" d="M 46.145455 -169.365824 
L 46.145455 -169.365824 
L 48.174545 -84.593073 
L 50.203636 -77.499237 
L 52.232727 -70.003028 
L 54.261818 -65.009221 
L 56.290909 -61.010667 
L 58.32 -58.148113 
L 60.349091 -55.766439 
L 62.378182 -53.805152 
L 64.407273 -52.191175 
L 66.436364 -50.849579 
L 68.465455 -49.497609 
L 70.494545 -48.570236 
L 72.523636 -47.738678 
L 74.552727 -46.883688 
L 76.581818 -46.336936 
L 78.610909 -45.304238 
L 80.64 -44.979716 
L 82.669091 -44.429827 
L 84.698182 -43.922518 
L 86.727273 -43.467426 
L 88.756364 -43.037421 
L 90.785455 -42.653798 
L 92.814545 -42.303421 
L 94.843636 -42.000848 
L 96.872727 -41.66246 
L 98.901818 -41.367784 
L 100.930909 -40.920071 
L 102.96 -40.860647 
L 104.989091 -40.433192 
L 107.018182 -40.346813 
L 109.047273 -40.144078 
L 111.076364 -39.927257 
L 113.105455 -39.718003 
L 115.134545 -39.520356 
L 117.163636 -39.328484 
L 119.192727 -38.998536 
L 121.221818 -38.968352 
L 123.250909 -38.800225 
L 125.28 -38.647179 
L 127.309091 -38.49429 
L 129.338182 -38.206465 
L 131.367273 -38.204289 
L 133.396364 -38.070953 
L 135.425455 -37.955858 
L 137.454545 -37.853393 
L 139.483636 -37.735324 
L 141.512727 -37.619049 
L 143.541818 -37.52898 
L 145.570909 -37.425807 
L 147.6 -37.321233 
L 149.629091 -37.220657 
L 151.658182 -37.12431 
L 153.687273 -37.071157 
L 155.716364 -36.883884 
L 157.745455 -36.890521 
L 159.774545 -36.803255 
L 161.803636 -36.719806 
L 163.832727 -36.638839 
L 165.861818 -36.586094 
L 167.890909 -36.533079 
L 169.92 -36.458503 
L 171.949091 -36.387793 
L 173.978182 -36.317966 
L 176.007273 -36.253446 
L 178.036364 -36.194653 
L 180.065455 -36.129943 
L 182.094545 -36.066728 
L 184.123636 -36.007112 
L 186.152727 -35.947047 
L 188.181818 -35.888428 
L 190.210909 -35.851854 
L 192.24 -35.795912 
L 194.269091 -35.740334 
L 196.298182 -35.688546 
L 198.327273 -35.649187 
L 200.356364 -35.614196 
L 202.385455 -35.563847 
L 204.414545 -35.516706 
L 206.443636 -35.468981 
L 208.472727 -35.422331 
L 210.501818 -35.376665 
L 212.530909 -35.267077 
L 214.56 -35.288338 
L 216.589091 -35.245535 
L 218.618182 -35.142974 
L 220.647273 -35.109044 
L 222.676364 -35.133706 
L 224.705455 -35.094238 
L 226.734545 -35.060583 
L 228.763636 -34.957674 
L 230.792727 -35.00234 
L 232.821818 -34.96568 
L 234.850909 -34.873412 
L 236.88 -34.895108 
L 238.909091 -34.860588 
L 240.938182 -34.844072 
L 242.967273 -34.810528 
L 244.996364 -34.777927 
L 247.025455 -34.745555 
L 249.054545 -34.716807 
L 249.054545 -39.099464 
L 249.054545 -39.099464 
L 247.025455 -39.651539 
L 244.996364 -39.220881 
L 242.967273 -39.742749 
L 240.938182 -39.296411 
L 238.909091 -39.365506 
L 236.88 -39.953632 
L 234.850909 -39.499405 
L 232.821818 -39.574251 
L 230.792727 -39.650016 
L 228.763636 -40.258657 
L 226.734545 -39.809146 
L 224.705455 -39.873305 
L 222.676364 -39.954341 
L 220.647273 -40.037272 
L 218.618182 -40.136438 
L 216.589091 -40.205861 
L 214.56 -40.290293 
L 212.530909 -40.312207 
L 210.501818 -40.467931 
L 208.472727 -40.562383 
L 206.443636 -41.253994 
L 204.414545 -41.284613 
L 202.385455 -40.783735 
L 200.356364 -41.493232 
L 198.327273 -41.597188 
L 196.298182 -41.069469 
L 194.269091 -41.179345 
L 192.24 -41.25696 
L 190.210909 -41.25284 
L 188.181818 -41.424197 
L 186.152727 -41.538026 
L 184.123636 -41.660704 
L 182.094545 -41.782493 
L 180.065455 -41.926458 
L 178.036364 -42.739992 
L 176.007273 -42.150093 
L 173.978182 -42.282791 
L 171.949091 -42.444385 
L 169.92 -42.568709 
L 167.890909 -42.698756 
L 165.861818 -42.852517 
L 163.832727 -43.009879 
L 161.803636 -43.125045 
L 159.774545 -43.295543 
L 157.745455 -43.470646 
L 155.716364 -43.649875 
L 153.687273 -43.808872 
L 151.658182 -43.979268 
L 149.629091 -44.155514 
L 147.6 -44.347574 
L 145.570909 -44.53161 
L 143.541818 -44.745276 
L 141.512727 -44.933132 
L 139.483636 -46.077951 
L 137.454545 -45.407773 
L 135.425455 -46.593951 
L 133.396364 -45.771633 
L 131.367273 -46.179773 
L 129.338182 -46.45492 
L 127.309091 -46.729186 
L 125.28 -46.867505 
L 123.250909 -47.231632 
L 121.221818 -47.480077 
L 119.192727 -47.773604 
L 117.163636 -48.037859 
L 115.134545 -48.405708 
L 113.105455 -48.67945 
L 111.076364 -49.090628 
L 109.047273 -49.32416 
L 107.018182 -49.63685 
L 104.989091 -50.019939 
L 102.96 -50.511626 
L 100.930909 -50.822041 
L 98.901818 -51.418879 
L 96.872727 -51.708977 
L 94.843636 -53.842818 
L 92.814545 -52.877863 
L 90.785455 -53.585158 
L 88.756364 -54.335836 
L 86.727273 -55.167275 
L 84.698182 -55.753687 
L 82.669091 -56.348584 
L 80.64 -57.239764 
L 78.610909 -58.30587 
L 76.581818 -59.172379 
L 74.552727 -61.906101 
L 72.523636 -61.695865 
L 70.494545 -62.752082 
L 68.465455 -64.541823 
L 66.436364 -66.164727 
L 64.407273 -68.327834 
L 62.378182 -71.021306 
L 60.349091 -73.554443 
L 58.32 -77.038956 
L 56.290909 -80.618052 
L 54.261818 -85.593683 
L 52.232727 -90.541893 
L 50.203636 -98.203534 
L 48.174545 -108.973228 
L 46.145455 -169.365824 
z
" style="stroke: #ff7f0e; stroke-opacity: 0.2"/>
    </defs>
    <g clip-path="url(#pc71424f7be)">
     <use xlink:href="#m8044d024d0" x="0" y="216" style="fill: #ff7f0e; fill-opacity: 0.2; stroke: #ff7f0e; stroke-opacity: 0.2"/>
    </g>
   </g>
   <g id="matplotlib.axis_1">
    <g id="xtick_1">
     <g id="line2d_1">
      <defs>
       <path id="m7029ca14db" d="M 0 0 
L 0 3.5 
" style="stroke: #000000; stroke-width: 0.8"/>
      </defs>
      <g>
       <use xlink:href="#m7029ca14db" x="46.145455" y="192.24" style="stroke: #000000; stroke-width: 0.8"/>
      </g>
     </g>
     <g id="text_1">
      <!-- 0 -->
      <g transform="translate(42.964205 206.838437) scale(0.1 -0.1)">
       <defs>
        <path id="DejaVuSans-30" d="M 2034 4250 
Q 1547 4250 1301 3770 
Q 1056 3291 1056 2328 
Q 1056 1369 1301 889 
Q 1547 409 2034 409 
Q 2525 409 2770 889 
Q 3016 1369 3016 2328 
Q 3016 3291 2770 3770 
Q 2525 4250 2034 4250 
z
M 2034 4750 
Q 2819 4750 3233 4129 
Q 3647 3509 3647 2328 
Q 3647 1150 3233 529 
Q 2819 -91 2034 -91 
Q 1250 -91 836 529 
Q 422 1150 422 2328 
Q 422 3509 836 4129 
Q 1250 4750 2034 4750 
z
" transform="scale(0.015625)"/>
       </defs>
       <use xlink:href="#DejaVuSans-30"/>
      </g>
     </g>
    </g>
    <g id="xtick_2">
     <g id="line2d_2">
      <g>
       <use xlink:href="#m7029ca14db" x="86.727273" y="192.24" style="stroke: #000000; stroke-width: 0.8"/>
      </g>
     </g>
     <g id="text_2">
      <!-- 20 -->
      <g transform="translate(80.364773 206.838437) scale(0.1 -0.1)">
       <defs>
        <path id="DejaVuSans-32" d="M 1228 531 
L 3431 531 
L 3431 0 
L 469 0 
L 469 531 
Q 828 903 1448 1529 
Q 2069 2156 2228 2338 
Q 2531 2678 2651 2914 
Q 2772 3150 2772 3378 
Q 2772 3750 2511 3984 
Q 2250 4219 1831 4219 
Q 1534 4219 1204 4116 
Q 875 4013 500 3803 
L 500 4441 
Q 881 4594 1212 4672 
Q 1544 4750 1819 4750 
Q 2544 4750 2975 4387 
Q 3406 4025 3406 3419 
Q 3406 3131 3298 2873 
Q 3191 2616 2906 2266 
Q 2828 2175 2409 1742 
Q 1991 1309 1228 531 
z
" transform="scale(0.015625)"/>
       </defs>
       <use xlink:href="#DejaVuSans-32"/>
       <use xlink:href="#DejaVuSans-30" x="63.623047"/>
      </g>
     </g>
    </g>
    <g id="xtick_3">
     <g id="line2d_3">
      <g>
       <use xlink:href="#m7029ca14db" x="127.309091" y="192.24" style="stroke: #000000; stroke-width: 0.8"/>
      </g>
     </g>
     <g id="text_3">
      <!-- 40 -->
      <g transform="translate(120.946591 206.838437) scale(0.1 -0.1)">
       <defs>
        <path id="DejaVuSans-34" d="M 2419 4116 
L 825 1625 
L 2419 1625 
L 2419 4116 
z
M 2253 4666 
L 3047 4666 
L 3047 1625 
L 3713 1625 
L 3713 1100 
L 3047 1100 
L 3047 0 
L 2419 0 
L 2419 1100 
L 313 1100 
L 313 1709 
L 2253 4666 
z
" transform="scale(0.015625)"/>
       </defs>
       <use xlink:href="#DejaVuSans-34"/>
       <use xlink:href="#DejaVuSans-30" x="63.623047"/>
      </g>
     </g>
    </g>
    <g id="xtick_4">
     <g id="line2d_4">
      <g>
       <use xlink:href="#m7029ca14db" x="167.890909" y="192.24" style="stroke: #000000; stroke-width: 0.8"/>
      </g>
     </g>
     <g id="text_4">
      <!-- 60 -->
      <g transform="translate(161.528409 206.838437) scale(0.1 -0.1)">
       <defs>
        <path id="DejaVuSans-36" d="M 2113 2584 
Q 1688 2584 1439 2293 
Q 1191 2003 1191 1497 
Q 1191 994 1439 701 
Q 1688 409 2113 409 
Q 2538 409 2786 701 
Q 3034 994 3034 1497 
Q 3034 2003 2786 2293 
Q 2538 2584 2113 2584 
z
M 3366 4563 
L 3366 3988 
Q 3128 4100 2886 4159 
Q 2644 4219 2406 4219 
Q 1781 4219 1451 3797 
Q 1122 3375 1075 2522 
Q 1259 2794 1537 2939 
Q 1816 3084 2150 3084 
Q 2853 3084 3261 2657 
Q 3669 2231 3669 1497 
Q 3669 778 3244 343 
Q 2819 -91 2113 -91 
Q 1303 -91 875 529 
Q 447 1150 447 2328 
Q 447 3434 972 4092 
Q 1497 4750 2381 4750 
Q 2619 4750 2861 4703 
Q 3103 4656 3366 4563 
z
" transform="scale(0.015625)"/>
       </defs>
       <use xlink:href="#DejaVuSans-36"/>
       <use xlink:href="#DejaVuSans-30" x="63.623047"/>
      </g>
     </g>
    </g>
    <g id="xtick_5">
     <g id="line2d_5">
      <g>
       <use xlink:href="#m7029ca14db" x="208.472727" y="192.24" style="stroke: #000000; stroke-width: 0.8"/>
      </g>
     </g>
     <g id="text_5">
      <!-- 80 -->
      <g transform="translate(202.110227 206.838437) scale(0.1 -0.1)">
       <defs>
        <path id="DejaVuSans-38" d="M 2034 2216 
Q 1584 2216 1326 1975 
Q 1069 1734 1069 1313 
Q 1069 891 1326 650 
Q 1584 409 2034 409 
Q 2484 409 2743 651 
Q 3003 894 3003 1313 
Q 3003 1734 2745 1975 
Q 2488 2216 2034 2216 
z
M 1403 2484 
Q 997 2584 770 2862 
Q 544 3141 544 3541 
Q 544 4100 942 4425 
Q 1341 4750 2034 4750 
Q 2731 4750 3128 4425 
Q 3525 4100 3525 3541 
Q 3525 3141 3298 2862 
Q 3072 2584 2669 2484 
Q 3125 2378 3379 2068 
Q 3634 1759 3634 1313 
Q 3634 634 3220 271 
Q 2806 -91 2034 -91 
Q 1263 -91 848 271 
Q 434 634 434 1313 
Q 434 1759 690 2068 
Q 947 2378 1403 2484 
z
M 1172 3481 
Q 1172 3119 1398 2916 
Q 1625 2713 2034 2713 
Q 2441 2713 2670 2916 
Q 2900 3119 2900 3481 
Q 2900 3844 2670 4047 
Q 2441 4250 2034 4250 
Q 1625 4250 1398 4047 
Q 1172 3844 1172 3481 
z
" transform="scale(0.015625)"/>
       </defs>
       <use xlink:href="#DejaVuSans-38"/>
       <use xlink:href="#DejaVuSans-30" x="63.623047"/>
      </g>
     </g>
    </g>
    <g id="xtick_6">
     <g id="line2d_6">
      <g>
       <use xlink:href="#m7029ca14db" x="249.054545" y="192.24" style="stroke: #000000; stroke-width: 0.8"/>
      </g>
     </g>
     <g id="text_6">
      <!-- 100 -->
      <g transform="translate(239.510795 206.838437) scale(0.1 -0.1)">
       <defs>
        <path id="DejaVuSans-31" d="M 794 531 
L 1825 531 
L 1825 4091 
L 703 3866 
L 703 4441 
L 1819 4666 
L 2450 4666 
L 2450 531 
L 3481 531 
L 3481 0 
L 794 0 
L 794 531 
z
" transform="scale(0.015625)"/>
       </defs>
       <use xlink:href="#DejaVuSans-31"/>
       <use xlink:href="#DejaVuSans-30" x="63.623047"/>
       <use xlink:href="#DejaVuSans-30" x="127.246094"/>
      </g>
     </g>
    </g>
    <g id="text_7">
     <!-- None -->
     <g transform="translate(134.554688 220.516562) scale(0.1 -0.1)">
      <defs>
       <path id="DejaVuSans-4e" d="M 628 4666 
L 1478 4666 
L 3547 763 
L 3547 4666 
L 4159 4666 
L 4159 0 
L 3309 0 
L 1241 3903 
L 1241 0 
L 628 0 
L 628 4666 
z
" transform="scale(0.015625)"/>
       <path id="DejaVuSans-6f" d="M 1959 3097 
Q 1497 3097 1228 2736 
Q 959 2375 959 1747 
Q 959 1119 1226 758 
Q 1494 397 1959 397 
Q 2419 397 2687 759 
Q 2956 1122 2956 1747 
Q 2956 2369 2687 2733 
Q 2419 3097 1959 3097 
z
M 1959 3584 
Q 2709 3584 3137 3096 
Q 3566 2609 3566 1747 
Q 3566 888 3137 398 
Q 2709 -91 1959 -91 
Q 1206 -91 779 398 
Q 353 888 353 1747 
Q 353 2609 779 3096 
Q 1206 3584 1959 3584 
z
" transform="scale(0.015625)"/>
       <path id="DejaVuSans-6e" d="M 3513 2113 
L 3513 0 
L 2938 0 
L 2938 2094 
Q 2938 2591 2744 2837 
Q 2550 3084 2163 3084 
Q 1697 3084 1428 2787 
Q 1159 2491 1159 1978 
L 1159 0 
L 581 0 
L 581 3500 
L 1159 3500 
L 1159 2956 
Q 1366 3272 1645 3428 
Q 1925 3584 2291 3584 
Q 2894 3584 3203 3211 
Q 3513 2838 3513 2113 
z
" transform="scale(0.015625)"/>
       <path id="DejaVuSans-65" d="M 3597 1894 
L 3597 1613 
L 953 1613 
Q 991 1019 1311 708 
Q 1631 397 2203 397 
Q 2534 397 2845 478 
Q 3156 559 3463 722 
L 3463 178 
Q 3153 47 2828 -22 
Q 2503 -91 2169 -91 
Q 1331 -91 842 396 
Q 353 884 353 1716 
Q 353 2575 817 3079 
Q 1281 3584 2069 3584 
Q 2775 3584 3186 3129 
Q 3597 2675 3597 1894 
z
M 3022 2063 
Q 3016 2534 2758 2815 
Q 2500 3097 2075 3097 
Q 1594 3097 1305 2825 
Q 1016 2553 972 2059 
L 3022 2063 
z
" transform="scale(0.015625)"/>
      </defs>
      <use xlink:href="#DejaVuSans-4e"/>
      <use xlink:href="#DejaVuSans-6f" x="74.804688"/>
      <use xlink:href="#DejaVuSans-6e" x="135.986328"/>
      <use xlink:href="#DejaVuSans-65" x="199.365234"/>
     </g>
    </g>
   </g>
   <g id="matplotlib.axis_2">
    <g id="ytick_1">
     <g id="line2d_7">
      <defs>
       <path id="m9d7ee3860d" d="M 0 0 
L -3.5 0 
" style="stroke: #000000; stroke-width: 0.8"/>
      </defs>
      <g>
       <use xlink:href="#m9d7ee3860d" x="36" y="184.700829" style="stroke: #000000; stroke-width: 0.8"/>
      </g>
     </g>
     <g id="text_8">
      <!-- 0.0 -->
      <g transform="translate(13.096875 188.500048) scale(0.1 -0.1)">
       <defs>
        <path id="DejaVuSans-2e" d="M 684 794 
L 1344 794 
L 1344 0 
L 684 0 
L 684 794 
z
" transform="scale(0.015625)"/>
       </defs>
       <use xlink:href="#DejaVuSans-30"/>
       <use xlink:href="#DejaVuSans-2e" x="63.623047"/>
       <use xlink:href="#DejaVuSans-30" x="95.410156"/>
      </g>
     </g>
    </g>
    <g id="ytick_2">
     <g id="line2d_8">
      <g>
       <use xlink:href="#m9d7ee3860d" x="36" y="149.238652" style="stroke: #000000; stroke-width: 0.8"/>
      </g>
     </g>
     <g id="text_9">
      <!-- 0.2 -->
      <g transform="translate(13.096875 153.037871) scale(0.1 -0.1)">
       <use xlink:href="#DejaVuSans-30"/>
       <use xlink:href="#DejaVuSans-2e" x="63.623047"/>
       <use xlink:href="#DejaVuSans-32" x="95.410156"/>
      </g>
     </g>
    </g>
    <g id="ytick_3">
     <g id="line2d_9">
      <g>
       <use xlink:href="#m9d7ee3860d" x="36" y="113.776475" style="stroke: #000000; stroke-width: 0.8"/>
      </g>
     </g>
     <g id="text_10">
      <!-- 0.4 -->
      <g transform="translate(13.096875 117.575694) scale(0.1 -0.1)">
       <use xlink:href="#DejaVuSans-30"/>
       <use xlink:href="#DejaVuSans-2e" x="63.623047"/>
       <use xlink:href="#DejaVuSans-34" x="95.410156"/>
      </g>
     </g>
    </g>
    <g id="ytick_4">
     <g id="line2d_10">
      <g>
       <use xlink:href="#m9d7ee3860d" x="36" y="78.314298" style="stroke: #000000; stroke-width: 0.8"/>
      </g>
     </g>
     <g id="text_11">
      <!-- 0.6 -->
      <g transform="translate(13.096875 82.113517) scale(0.1 -0.1)">
       <use xlink:href="#DejaVuSans-30"/>
       <use xlink:href="#DejaVuSans-2e" x="63.623047"/>
       <use xlink:href="#DejaVuSans-36" x="95.410156"/>
      </g>
     </g>
    </g>
    <g id="ytick_5">
     <g id="line2d_11">
      <g>
       <use xlink:href="#m9d7ee3860d" x="36" y="42.852122" style="stroke: #000000; stroke-width: 0.8"/>
      </g>
     </g>
     <g id="text_12">
      <!-- 0.8 -->
      <g transform="translate(13.096875 46.65134) scale(0.1 -0.1)">
       <use xlink:href="#DejaVuSans-30"/>
       <use xlink:href="#DejaVuSans-2e" x="63.623047"/>
       <use xlink:href="#DejaVuSans-38" x="95.410156"/>
      </g>
     </g>
    </g>
    <g id="text_13">
     <!-- eveness -->
     <g transform="translate(7.017187 129.647187) rotate(-90) scale(0.1 -0.1)">
      <defs>
       <path id="DejaVuSans-76" d="M 191 3500 
L 800 3500 
L 1894 563 
L 2988 3500 
L 3597 3500 
L 2284 0 
L 1503 0 
L 191 3500 
z
" transform="scale(0.015625)"/>
       <path id="DejaVuSans-73" d="M 2834 3397 
L 2834 2853 
Q 2591 2978 2328 3040 
Q 2066 3103 1784 3103 
Q 1356 3103 1142 2972 
Q 928 2841 928 2578 
Q 928 2378 1081 2264 
Q 1234 2150 1697 2047 
L 1894 2003 
Q 2506 1872 2764 1633 
Q 3022 1394 3022 966 
Q 3022 478 2636 193 
Q 2250 -91 1575 -91 
Q 1294 -91 989 -36 
Q 684 19 347 128 
L 347 722 
Q 666 556 975 473 
Q 1284 391 1588 391 
Q 1994 391 2212 530 
Q 2431 669 2431 922 
Q 2431 1156 2273 1281 
Q 2116 1406 1581 1522 
L 1381 1569 
Q 847 1681 609 1914 
Q 372 2147 372 2553 
Q 372 3047 722 3315 
Q 1072 3584 1716 3584 
Q 2034 3584 2315 3537 
Q 2597 3491 2834 3397 
z
" transform="scale(0.015625)"/>
      </defs>
      <use xlink:href="#DejaVuSans-65"/>
      <use xlink:href="#DejaVuSans-76" x="61.523438"/>
      <use xlink:href="#DejaVuSans-65" x="120.703125"/>
      <use xlink:href="#DejaVuSans-6e" x="182.226562"/>
      <use xlink:href="#DejaVuSans-65" x="245.605469"/>
      <use xlink:href="#DejaVuSans-73" x="307.128906"/>
      <use xlink:href="#DejaVuSans-73" x="359.228516"/>
     </g>
    </g>
   </g>
   <g id="line2d_12">
    <path d="M 48.174545 50.015243 
L 50.203636 63.312647 
L 52.232727 91.787112 
L 54.261818 99.930319 
L 56.290909 139.969466 
L 58.32 126.844232 
L 60.349091 151.94304 
L 62.378182 167.397244 
L 64.407273 162.045828 
L 66.436364 176.56524 
L 68.465455 162.626606 
L 70.494545 174.217552 
L 72.523636 164.716029 
L 74.552727 144.051811 
L 76.581818 140.131041 
L 78.610909 165.69242 
L 80.64 178.911663 
L 82.669091 175.796178 
L 84.698182 158.949722 
L 86.727273 175.22661 
L 88.756364 171.70203 
L 90.785455 181.152409 
L 92.814545 182.585066 
L 94.843636 181.544151 
L 96.872727 179.489447 
L 98.901818 174.41854 
L 100.930909 181.765382 
L 102.96 171.810769 
L 104.989091 181.140026 
L 107.018182 183.797447 
L 109.047273 178.148728 
L 111.076364 175.361814 
L 113.105455 181.057902 
L 115.134545 181.714584 
L 117.163636 178.522988 
L 119.192727 184.00776 
L 121.221818 180.514092 
L 123.250909 183.187801 
L 125.28 176.458148 
L 127.309091 181.242158 
L 129.338182 180.454926 
L 131.367273 182.324404 
L 133.396364 182.924096 
L 135.425455 180.719725 
L 137.454545 182.413255 
L 139.483636 182.820258 
L 141.512727 172.999791 
L 143.541818 180.15039 
L 145.570909 182.135376 
L 147.6 181.566168 
L 149.629091 182.439084 
L 151.658182 181.361049 
L 153.687273 179.035794 
L 155.716364 178.837591 
L 157.745455 183.995924 
L 159.774545 101.358411 
L 161.803636 181.809512 
L 163.832727 176.549596 
L 165.861818 182.195662 
L 167.890909 183.627804 
L 169.92 181.311887 
L 171.949091 181.54984 
L 173.978182 183.946333 
L 176.007273 182.228553 
L 178.036364 181.658971 
L 180.065455 182.066045 
L 182.094545 183.034902 
L 184.123636 182.821529 
L 186.152727 181.204946 
L 188.181818 182.664606 
L 190.210909 183.738815 
L 192.24 175.905745 
L 194.269091 179.52495 
L 196.298182 182.543269 
L 200.356364 182.163137 
L 202.385455 181.843115 
L 204.414545 183.356865 
L 206.443636 170.283849 
L 208.472727 184.555759 
L 210.501818 183.576046 
L 212.530909 182.154292 
L 214.56 178.949535 
L 216.589091 181.310717 
L 218.618182 180.462938 
L 220.647273 182.310955 
L 222.676364 183.814693 
L 224.705455 183.56041 
L 226.734545 177.309046 
L 228.763636 181.891049 
L 230.792727 182.063385 
L 232.821818 182.079181 
L 234.850909 181.543165 
L 236.88 179.006971 
L 238.909091 179.77005 
L 240.938182 183.822406 
L 242.967273 173.557164 
L 244.996364 176.803662 
L 247.025455 181.968089 
L 249.054545 182.000778 
" clip-path="url(#pc71424f7be)" style="fill: none; stroke: #1f77b4; stroke-width: 1.5; stroke-linecap: square"/>
   </g>
   <g id="line2d_13">
    <path d="M 46.145455 46.634176 
L 48.174545 119.134948 
L 50.203636 128.148614 
L 52.232727 135.72754 
L 54.261818 140.698548 
L 56.290909 145.18564 
L 58.32 148.406465 
L 60.349091 151.339559 
L 62.378182 153.586771 
L 64.407273 155.740495 
L 66.436364 157.492847 
L 68.465455 158.922074 
L 70.494545 160.338841 
L 72.523636 161.28022 
L 74.552727 162.41508 
L 76.581818 163.245343 
L 78.610909 164.038653 
L 80.64 164.89026 
L 82.669091 165.610794 
L 84.698182 166.200062 
L 86.727273 166.757926 
L 88.756364 167.395706 
L 90.785455 167.979232 
L 92.814545 168.516421 
L 94.843636 168.965573 
L 96.872727 169.44442 
L 98.901818 169.778527 
L 100.930909 170.190599 
L 102.96 170.507175 
L 104.989091 170.885232 
L 107.018182 171.218905 
L 109.047273 171.500085 
L 111.076364 171.757671 
L 113.105455 172.061419 
L 115.134545 172.315231 
L 117.163636 172.590468 
L 119.192727 172.828416 
L 121.221818 173.077556 
L 123.250909 173.287634 
L 125.28 173.476098 
L 127.309091 173.694332 
L 129.338182 173.904911 
L 131.367273 174.111926 
L 133.396364 174.309266 
L 135.425455 174.491759 
L 137.454545 174.662135 
L 139.483636 174.836971 
L 141.512727 174.969108 
L 143.541818 175.112127 
L 145.570909 175.268872 
L 147.6 175.415225 
L 149.629091 175.560697 
L 151.658182 175.698365 
L 153.687273 175.800712 
L 155.716364 175.928103 
L 157.745455 176.059902 
L 159.774545 176.188695 
L 161.803636 176.313266 
L 163.832727 176.417506 
L 165.861818 176.521318 
L 167.890909 176.622956 
L 169.92 176.726766 
L 171.949091 176.829976 
L 173.978182 176.93454 
L 176.007273 177.032889 
L 178.036364 177.124753 
L 180.065455 177.216116 
L 182.094545 177.308877 
L 184.123636 177.398742 
L 186.152727 177.485629 
L 188.181818 177.570917 
L 190.210909 177.645605 
L 192.24 177.707949 
L 194.269091 177.778178 
L 196.298182 177.857402 
L 198.327273 177.928844 
L 200.356364 177.994238 
L 202.385455 178.06501 
L 204.414545 178.137743 
L 206.443636 178.183871 
L 208.472727 178.243543 
L 210.501818 178.311932 
L 212.530909 178.378809 
L 214.56 178.442526 
L 216.589091 178.505153 
L 218.618182 178.564831 
L 220.647273 178.624025 
L 222.676364 178.683889 
L 224.705455 178.74274 
L 226.734545 178.798171 
L 228.763636 178.853075 
L 230.792727 178.898028 
L 232.821818 178.952316 
L 234.850909 179.005976 
L 236.88 179.055272 
L 238.909091 179.105658 
L 240.938182 179.147339 
L 242.967273 179.193573 
L 244.996364 179.225833 
L 247.025455 179.273367 
L 249.054545 179.315783 
" clip-path="url(#pc71424f7be)" style="fill: none; stroke: #ff7f0e; stroke-width: 1.5; stroke-linecap: square"/>
   </g>
   <g id="patch_3">
    <path d="M 36 192.24 
L 36 25.92 
" style="fill: none; stroke: #000000; stroke-width: 0.8; stroke-linejoin: miter; stroke-linecap: square"/>
   </g>
   <g id="patch_4">
    <path d="M 259.2 192.24 
L 259.2 25.92 
" style="fill: none; stroke: #000000; stroke-width: 0.8; stroke-linejoin: miter; stroke-linecap: square"/>
   </g>
   <g id="patch_5">
    <path d="M 36 192.24 
L 259.2 192.24 
" style="fill: none; stroke: #000000; stroke-width: 0.8; stroke-linejoin: miter; stroke-linecap: square"/>
   </g>
   <g id="patch_6">
    <path d="M 36 25.92 
L 259.2 25.92 
" style="fill: none; stroke: #000000; stroke-width: 0.8; stroke-linejoin: miter; stroke-linecap: square"/>
   </g>
  </g>
 </g>
 <defs>
  <clipPath id="pc71424f7be">
   <rect x="36" y="25.92" width="223.2" height="166.32"/>
  </clipPath>
 </defs>
</svg>
