<?xml version="1.0" encoding="utf-8" standalone="no"?>
<!DOCTYPE svg PUBLIC "-//W3C//DTD SVG 1.1//EN"
  "http://www.w3.org/Graphics/SVG/1.1/DTD/svg11.dtd">
<svg xmlns:xlink="http://www.w3.org/1999/xlink" width="288pt" height="216pt" viewBox="0 0 288 216" xmlns="http://www.w3.org/2000/svg" version="1.1">
 <metadata>
  <rdf:RDF xmlns:dc="http://purl.org/dc/elements/1.1/" xmlns:cc="http://creativecommons.org/ns#" xmlns:rdf="http://www.w3.org/1999/02/22-rdf-syntax-ns#">
   <cc:Work>
    <dc:type rdf:resource="http://purl.org/dc/dcmitype/StillImage"/>
    <dc:date>2024-12-02T21:09:37.892114</dc:date>
    <dc:format>image/svg+xml</dc:format>
    <dc:creator>
     <cc:Agent>
      <dc:title>Matplotlib v3.8.2, https://matplotlib.org/</dc:title>
     </cc:Agent>
    </dc:creator>
   </cc:Work>
  </rdf:RDF>
 </metadata>
 <defs>
  <style type="text/css">*{stroke-linejoin: round; stroke-linecap: butt}</style>
 </defs>
 <g id="figure_1">
  <g id="patch_1">
   <path d="M 0 216 
L 288 216 
L 288 0 
L 0 0 
z
" style="fill: #ffffff"/>
  </g>
  <g id="axes_1">
   <g id="patch_2">
    <path d="M 36 192.24 
L 259.2 192.24 
L 259.2 25.92 
L 36 25.92 
z
" style="fill: #ffffff"/>
   </g>
   <g id="PolyCollection_1">
    <path d="M 48.174545 98.241554 
L 48.174545 139.534387 
L 50.203636 105.860988 
L 52.232727 39.780017 
L 54.261818 38.212658 
L 56.290909 38.876648 
L 58.32 40.264351 
L 60.349091 39.262765 
L 62.378182 40.62105 
L 64.407273 36.847289 
L 66.436364 39.03445 
L 68.465455 38.241256 
L 70.494545 40.600367 
L 72.523636 39.103041 
L 74.552727 39.321016 
L 76.581818 38.41045 
L 76.581818 36.61152 
L 76.581818 36.61152 
L 74.552727 33.48 
L 72.523636 36.41103 
L 70.494545 35.859613 
L 68.465455 37.162262 
L 66.436364 37.881255 
L 64.407273 36.423933 
L 62.378182 36.780923 
L 60.349091 38.589148 
L 58.32 36.014275 
L 56.290909 37.686071 
L 54.261818 37.192509 
L 52.232727 37.085392 
L 50.203636 39.670685 
L 48.174545 98.241554 
z
" clip-path="url(#pbbb15f9357)" style="fill: #1f77b4; fill-opacity: 0.2; stroke: #1f77b4; stroke-opacity: 0.2"/>
    <path d="M 80.64 37.061052 
L 80.64 40.082958 
L 82.669091 38.882375 
L 84.698182 37.718984 
L 86.727273 40.178585 
L 88.756364 36.060004 
L 90.785455 40.80273 
L 92.814545 38.195942 
L 94.843636 41.469632 
L 96.872727 39.28603 
L 98.901818 38.526248 
L 98.901818 37.624447 
L 98.901818 37.624447 
L 96.872727 36.752883 
L 94.843636 37.836036 
L 92.814545 37.791625 
L 90.785455 37.119903 
L 88.756364 35.481747 
L 86.727273 38.016355 
L 84.698182 36.264584 
L 82.669091 37.388161 
L 80.64 37.061052 
z
" clip-path="url(#pbbb15f9357)" style="fill: #1f77b4; fill-opacity: 0.2; stroke: #1f77b4; stroke-opacity: 0.2"/>
    <path d="M 107.018182 38.732887 
L 107.018182 39.397597 
L 109.047273 40.798885 
L 111.076364 38.382297 
L 113.105455 38.551642 
L 115.134545 39.962312 
L 117.163636 39.695498 
L 119.192727 38.800626 
L 119.192727 35.343192 
L 119.192727 35.343192 
L 117.163636 36.766559 
L 115.134545 35.955591 
L 113.105455 36.376898 
L 111.076364 33.573731 
L 109.047273 37.007049 
L 107.018182 38.732887 
z
" clip-path="url(#pbbb15f9357)" style="fill: #1f77b4; fill-opacity: 0.2; stroke: #1f77b4; stroke-opacity: 0.2"/>
    <path d="M 123.250909 37.212632 
L 123.250909 39.054466 
L 125.28 39.529107 
L 127.309091 40.902484 
L 129.338182 37.846773 
L 131.367273 39.032612 
L 131.367273 38.952794 
L 131.367273 38.952794 
L 129.338182 37.761534 
L 127.309091 37.960862 
L 125.28 37.780974 
L 123.250909 37.212632 
z
" clip-path="url(#pbbb15f9357)" style="fill: #1f77b4; fill-opacity: 0.2; stroke: #1f77b4; stroke-opacity: 0.2"/>
    <path d="M 135.425455 36.230296 
L 135.425455 38.136733 
L 137.454545 38.759421 
L 139.483636 36.74656 
L 141.512727 39.050587 
L 143.541818 37.981379 
L 145.570909 38.330351 
L 147.6 38.918544 
L 147.6 37.235008 
L 147.6 37.235008 
L 145.570909 37.792254 
L 143.541818 36.750951 
L 141.512727 38.526179 
L 139.483636 35.162626 
L 137.454545 36.602949 
L 135.425455 36.230296 
z
" clip-path="url(#pbbb15f9357)" style="fill: #1f77b4; fill-opacity: 0.2; stroke: #1f77b4; stroke-opacity: 0.2"/>
    <path d="M 151.658182 38.18048 
L 151.658182 39.159403 
L 153.687273 37.856371 
L 155.716364 38.964188 
L 157.745455 37.734241 
L 159.774545 37.386101 
L 161.803636 38.442268 
L 163.832727 39.261576 
L 165.861818 39.356543 
L 167.890909 40.230719 
L 169.92 38.166649 
L 171.949091 40.153155 
L 171.949091 38.972119 
L 171.949091 38.972119 
L 169.92 34.297761 
L 167.890909 39.028251 
L 165.861818 36.74278 
L 163.832727 36.646484 
L 161.803636 35.114219 
L 159.774545 36.0921 
L 157.745455 37.461676 
L 155.716364 37.172284 
L 153.687273 37.299052 
L 151.658182 38.18048 
z
" clip-path="url(#pbbb15f9357)" style="fill: #1f77b4; fill-opacity: 0.2; stroke: #1f77b4; stroke-opacity: 0.2"/>
    <path d="M 176.007273 36.913863 
L 176.007273 38.001182 
L 178.036364 39.903239 
L 180.065455 38.74581 
L 182.094545 40.66495 
L 184.123636 38.561327 
L 184.123636 36.458449 
L 184.123636 36.458449 
L 182.094545 38.524634 
L 180.065455 35.501156 
L 178.036364 38.012071 
L 176.007273 36.913863 
z
" clip-path="url(#pbbb15f9357)" style="fill: #1f77b4; fill-opacity: 0.2; stroke: #1f77b4; stroke-opacity: 0.2"/>
    <path d="M 188.181818 37.626642 
L 188.181818 39.772335 
L 190.210909 40.538419 
L 192.24 41.38134 
L 194.269091 40.052829 
L 196.298182 38.358648 
L 198.327273 38.606372 
L 200.356364 36.513035 
L 202.385455 38.418335 
L 204.414545 39.68494 
L 206.443636 39.394511 
L 208.472727 40.148706 
L 210.501818 40.691883 
L 214.56 38.180666 
L 214.56 35.693604 
L 214.56 35.693604 
L 210.501818 37.566587 
L 208.472727 36.652351 
L 206.443636 36.828957 
L 204.414545 36.31995 
L 202.385455 37.101901 
L 200.356364 35.35368 
L 198.327273 36.907988 
L 196.298182 38.018456 
L 194.269091 38.021256 
L 192.24 35.310981 
L 190.210909 38.426625 
L 188.181818 37.626642 
z
" clip-path="url(#pbbb15f9357)" style="fill: #1f77b4; fill-opacity: 0.2; stroke: #1f77b4; stroke-opacity: 0.2"/>
    <path d="M 218.618182 37.768002 
L 218.618182 39.738608 
L 218.618182 37.768002 
L 218.618182 37.768002 
z
" clip-path="url(#pbbb15f9357)" style="fill: #1f77b4; fill-opacity: 0.2; stroke: #1f77b4; stroke-opacity: 0.2"/>
    <path d="M 222.676364 37.089866 
L 222.676364 38.681174 
L 224.705455 39.722128 
L 226.734545 39.496891 
L 228.763636 40.160201 
L 230.792727 37.376393 
L 232.821818 39.413836 
L 234.850909 38.113272 
L 236.88 39.199606 
L 238.909091 39.683027 
L 238.909091 37.187919 
L 238.909091 37.187919 
L 236.88 37.085266 
L 234.850909 37.264301 
L 232.821818 37.573058 
L 230.792727 35.255658 
L 228.763636 37.592668 
L 226.734545 37.04776 
L 224.705455 38.090631 
L 222.676364 37.089866 
z
" clip-path="url(#pbbb15f9357)" style="fill: #1f77b4; fill-opacity: 0.2; stroke: #1f77b4; stroke-opacity: 0.2"/>
    <path d="M 242.967273 36.59514 
L 242.967273 38.042094 
L 244.996364 37.542642 
L 247.025455 38.562553 
L 249.054545 37.337181 
L 249.054545 35.865834 
L 249.054545 35.865834 
L 247.025455 34.380948 
L 244.996364 36.333402 
L 242.967273 36.59514 
z
" clip-path="url(#pbbb15f9357)" style="fill: #1f77b4; fill-opacity: 0.2; stroke: #1f77b4; stroke-opacity: 0.2"/>
   </g>
   <g id="PolyCollection_2">
    <defs>
     <path id="mcd31d06b1a" d="M 46.145455 -32.169821 
L 46.145455 -32.169821 
L 48.174545 -31.32 
L 50.203636 -32.289148 
L 52.232727 -32.361622 
L 54.261818 -32.891268 
L 56.290909 -33.013568 
L 58.32 -33.253137 
L 60.349091 -33.636603 
L 62.378182 -34.32659 
L 64.407273 -34.745507 
L 66.436364 -36.830472 
L 68.465455 -37.402384 
L 70.494545 -33.052433 
L 72.523636 -33.590164 
L 74.552727 -32.783543 
L 76.581818 -34.236872 
L 78.610909 -34.201117 
L 80.64 -33.977576 
L 82.669091 -33.951021 
L 84.698182 -32.643595 
L 86.727273 -34.040559 
L 88.756364 -35.917072 
L 90.785455 -35.657933 
L 92.814545 -37.416345 
L 94.843636 -37.600767 
L 96.872727 -38.45756 
L 98.901818 -39.379754 
L 100.930909 -38.355852 
L 102.96 -38.333942 
L 104.989091 -39.585254 
L 107.018182 -39.268301 
L 109.047273 -39.268301 
L 111.076364 -39.268301 
L 113.105455 -39.159666 
L 115.134545 -39.268301 
L 117.163636 -39.159666 
L 119.192727 -40.48549 
L 121.221818 -40.48549 
L 123.250909 -40.48549 
L 125.28 -42.546836 
L 127.309091 -42.546836 
L 129.338182 -42.546836 
L 131.367273 -42.546836 
L 133.396364 -42.546836 
L 135.425455 -43.224255 
L 137.454545 -43.224255 
L 139.483636 -43.224255 
L 141.512727 -43.224255 
L 143.541818 -43.930892 
L 145.570909 -43.930892 
L 147.6 -43.930892 
L 149.629091 -44.272598 
L 151.658182 -44.272598 
L 153.687273 -44.272598 
L 155.716364 -47.589642 
L 157.745455 -47.589642 
L 159.774545 -47.589642 
L 161.803636 -47.787148 
L 163.832727 -47.174033 
L 165.861818 -47.174033 
L 167.890909 -47.174033 
L 169.92 -48.952958 
L 171.949091 -49.104221 
L 173.978182 -49.104221 
L 176.007273 -49.104221 
L 178.036364 -50.302821 
L 180.065455 -50.34928 
L 182.094545 -50.34928 
L 184.123636 -50.842517 
L 186.152727 -50.761235 
L 188.181818 -51.103178 
L 190.210909 -51.07822 
L 192.24 -51.773556 
L 194.269091 -51.773556 
L 196.298182 -51.773556 
L 198.327273 -51.928961 
L 200.356364 -51.893237 
L 202.385455 -51.893237 
L 204.414545 -52.233992 
L 206.443636 -52.233992 
L 208.472727 -52.233992 
L 210.501818 -52.233992 
L 212.530909 -52.233992 
L 214.56 -52.233992 
L 216.589091 -52.233992 
L 218.618182 -52.233992 
L 220.647273 -51.773556 
L 222.676364 -52.233992 
L 224.705455 -52.233992 
L 226.734545 -54.173196 
L 228.763636 -54.053814 
L 230.792727 -54.173196 
L 232.821818 -54.173196 
L 234.850909 -54.173196 
L 236.88 -54.173196 
L 238.909091 -54.173196 
L 240.938182 -54.173196 
L 242.967273 -54.173196 
L 244.996364 -54.173196 
L 247.025455 -54.173196 
L 249.054545 -54.173196 
L 249.054545 -58.453653 
L 249.054545 -58.453653 
L 247.025455 -57.999323 
L 244.996364 -57.999323 
L 242.967273 -57.999323 
L 240.938182 -58.010681 
L 238.909091 -57.999323 
L 236.88 -57.783977 
L 234.850909 -57.317266 
L 232.821818 -56.261766 
L 230.792727 -57.65468 
L 228.763636 -58.647307 
L 226.734545 -58.647307 
L 224.705455 -58.527925 
L 222.676364 -58.527925 
L 220.647273 -58.527925 
L 218.618182 -58.527925 
L 216.589091 -58.094106 
L 214.56 -58.094106 
L 212.530909 -58.094106 
L 210.501818 -57.329649 
L 208.472727 -57.329649 
L 206.443636 -57.790085 
L 204.414545 -55.888987 
L 202.385455 -55.315741 
L 200.356364 -55.315741 
L 198.327273 -55.315741 
L 196.298182 -54.985738 
L 194.269091 -54.993988 
L 192.24 -54.985738 
L 190.210909 -55.315741 
L 188.181818 -54.855305 
L 186.152727 -54.855305 
L 184.123636 -54.855305 
L 182.094545 -52.601649 
L 180.065455 -52.601649 
L 178.036364 -52.537521 
L 176.007273 -50.882505 
L 173.978182 -50.882505 
L 171.949091 -50.882505 
L 169.92 -50.882505 
L 167.890909 -50.882505 
L 165.861818 -50.882505 
L 163.832727 -50.884639 
L 161.803636 -50.653222 
L 159.774545 -50.653222 
L 157.745455 -50.853243 
L 155.716364 -50.653222 
L 153.687273 -49.908011 
L 151.658182 -49.562927 
L 149.629091 -49.562841 
L 147.6 -48.523551 
L 145.570909 -48.523551 
L 143.541818 -48.523551 
L 141.512727 -48.1746 
L 139.483636 -48.1746 
L 137.454545 -48.1746 
L 135.425455 -47.37086 
L 133.396364 -45.974833 
L 131.367273 -45.980895 
L 129.338182 -44.623445 
L 127.309091 -44.623445 
L 125.28 -43.597231 
L 123.250909 -43.597231 
L 121.221818 -43.597231 
L 119.192727 -43.597231 
L 117.163636 -43.597231 
L 115.134545 -43.597231 
L 113.105455 -43.597231 
L 111.076364 -43.597231 
L 109.047273 -43.597231 
L 107.018182 -43.597231 
L 104.989091 -42.703144 
L 102.96 -42.66612 
L 100.930909 -42.66612 
L 98.901818 -41.088662 
L 96.872727 -41.089908 
L 94.843636 -41.007818 
L 92.814545 -40.54692 
L 90.785455 -40.403282 
L 88.756364 -40.794703 
L 86.727273 -39.505149 
L 84.698182 -39.460333 
L 82.669091 -39.411599 
L 80.64 -39.411599 
L 78.610909 -39.411599 
L 76.581818 -39.090176 
L 74.552727 -41.000384 
L 72.523636 -41.155236 
L 70.494545 -41.468336 
L 68.465455 -40.614438 
L 66.436364 -39.13812 
L 64.407273 -39.365813 
L 62.378182 -37.682737 
L 60.349091 -36.521295 
L 58.32 -35.670538 
L 56.290909 -33.876597 
L 54.261818 -34.503355 
L 52.232727 -34.991213 
L 50.203636 -34.462769 
L 48.174545 -32.528622 
L 46.145455 -32.169821 
z
" style="stroke: #ff7f0e; stroke-opacity: 0.2"/>
    </defs>
    <g clip-path="url(#pbbb15f9357)">
     <use xlink:href="#mcd31d06b1a" x="0" y="216" style="fill: #ff7f0e; fill-opacity: 0.2; stroke: #ff7f0e; stroke-opacity: 0.2"/>
    </g>
   </g>
   <g id="matplotlib.axis_1">
    <g id="xtick_1">
     <g id="line2d_1">
      <defs>
       <path id="m26031b7191" d="M 0 0 
L 0 3.5 
" style="stroke: #000000; stroke-width: 0.8"/>
      </defs>
      <g>
       <use xlink:href="#m26031b7191" x="46.145455" y="192.24" style="stroke: #000000; stroke-width: 0.8"/>
      </g>
     </g>
     <g id="text_1">
      <!-- 0 -->
      <g transform="translate(42.964205 206.838437) scale(0.1 -0.1)">
       <defs>
        <path id="DejaVuSans-30" d="M 2034 4250 
Q 1547 4250 1301 3770 
Q 1056 3291 1056 2328 
Q 1056 1369 1301 889 
Q 1547 409 2034 409 
Q 2525 409 2770 889 
Q 3016 1369 3016 2328 
Q 3016 3291 2770 3770 
Q 2525 4250 2034 4250 
z
M 2034 4750 
Q 2819 4750 3233 4129 
Q 3647 3509 3647 2328 
Q 3647 1150 3233 529 
Q 2819 -91 2034 -91 
Q 1250 -91 836 529 
Q 422 1150 422 2328 
Q 422 3509 836 4129 
Q 1250 4750 2034 4750 
z
" transform="scale(0.015625)"/>
       </defs>
       <use xlink:href="#DejaVuSans-30"/>
      </g>
     </g>
    </g>
    <g id="xtick_2">
     <g id="line2d_2">
      <g>
       <use xlink:href="#m26031b7191" x="86.727273" y="192.24" style="stroke: #000000; stroke-width: 0.8"/>
      </g>
     </g>
     <g id="text_2">
      <!-- 20 -->
      <g transform="translate(80.364773 206.838437) scale(0.1 -0.1)">
       <defs>
        <path id="DejaVuSans-32" d="M 1228 531 
L 3431 531 
L 3431 0 
L 469 0 
L 469 531 
Q 828 903 1448 1529 
Q 2069 2156 2228 2338 
Q 2531 2678 2651 2914 
Q 2772 3150 2772 3378 
Q 2772 3750 2511 3984 
Q 2250 4219 1831 4219 
Q 1534 4219 1204 4116 
Q 875 4013 500 3803 
L 500 4441 
Q 881 4594 1212 4672 
Q 1544 4750 1819 4750 
Q 2544 4750 2975 4387 
Q 3406 4025 3406 3419 
Q 3406 3131 3298 2873 
Q 3191 2616 2906 2266 
Q 2828 2175 2409 1742 
Q 1991 1309 1228 531 
z
" transform="scale(0.015625)"/>
       </defs>
       <use xlink:href="#DejaVuSans-32"/>
       <use xlink:href="#DejaVuSans-30" x="63.623047"/>
      </g>
     </g>
    </g>
    <g id="xtick_3">
     <g id="line2d_3">
      <g>
       <use xlink:href="#m26031b7191" x="127.309091" y="192.24" style="stroke: #000000; stroke-width: 0.8"/>
      </g>
     </g>
     <g id="text_3">
      <!-- 40 -->
      <g transform="translate(120.946591 206.838437) scale(0.1 -0.1)">
       <defs>
        <path id="DejaVuSans-34" d="M 2419 4116 
L 825 1625 
L 2419 1625 
L 2419 4116 
z
M 2253 4666 
L 3047 4666 
L 3047 1625 
L 3713 1625 
L 3713 1100 
L 3047 1100 
L 3047 0 
L 2419 0 
L 2419 1100 
L 313 1100 
L 313 1709 
L 2253 4666 
z
" transform="scale(0.015625)"/>
       </defs>
       <use xlink:href="#DejaVuSans-34"/>
       <use xlink:href="#DejaVuSans-30" x="63.623047"/>
      </g>
     </g>
    </g>
    <g id="xtick_4">
     <g id="line2d_4">
      <g>
       <use xlink:href="#m26031b7191" x="167.890909" y="192.24" style="stroke: #000000; stroke-width: 0.8"/>
      </g>
     </g>
     <g id="text_4">
      <!-- 60 -->
      <g transform="translate(161.528409 206.838437) scale(0.1 -0.1)">
       <defs>
        <path id="DejaVuSans-36" d="M 2113 2584 
Q 1688 2584 1439 2293 
Q 1191 2003 1191 1497 
Q 1191 994 1439 701 
Q 1688 409 2113 409 
Q 2538 409 2786 701 
Q 3034 994 3034 1497 
Q 3034 2003 2786 2293 
Q 2538 2584 2113 2584 
z
M 3366 4563 
L 3366 3988 
Q 3128 4100 2886 4159 
Q 2644 4219 2406 4219 
Q 1781 4219 1451 3797 
Q 1122 3375 1075 2522 
Q 1259 2794 1537 2939 
Q 1816 3084 2150 3084 
Q 2853 3084 3261 2657 
Q 3669 2231 3669 1497 
Q 3669 778 3244 343 
Q 2819 -91 2113 -91 
Q 1303 -91 875 529 
Q 447 1150 447 2328 
Q 447 3434 972 4092 
Q 1497 4750 2381 4750 
Q 2619 4750 2861 4703 
Q 3103 4656 3366 4563 
z
" transform="scale(0.015625)"/>
       </defs>
       <use xlink:href="#DejaVuSans-36"/>
       <use xlink:href="#DejaVuSans-30" x="63.623047"/>
      </g>
     </g>
    </g>
    <g id="xtick_5">
     <g id="line2d_5">
      <g>
       <use xlink:href="#m26031b7191" x="208.472727" y="192.24" style="stroke: #000000; stroke-width: 0.8"/>
      </g>
     </g>
     <g id="text_5">
      <!-- 80 -->
      <g transform="translate(202.110227 206.838437) scale(0.1 -0.1)">
       <defs>
        <path id="DejaVuSans-38" d="M 2034 2216 
Q 1584 2216 1326 1975 
Q 1069 1734 1069 1313 
Q 1069 891 1326 650 
Q 1584 409 2034 409 
Q 2484 409 2743 651 
Q 3003 894 3003 1313 
Q 3003 1734 2745 1975 
Q 2488 2216 2034 2216 
z
M 1403 2484 
Q 997 2584 770 2862 
Q 544 3141 544 3541 
Q 544 4100 942 4425 
Q 1341 4750 2034 4750 
Q 2731 4750 3128 4425 
Q 3525 4100 3525 3541 
Q 3525 3141 3298 2862 
Q 3072 2584 2669 2484 
Q 3125 2378 3379 2068 
Q 3634 1759 3634 1313 
Q 3634 634 3220 271 
Q 2806 -91 2034 -91 
Q 1263 -91 848 271 
Q 434 634 434 1313 
Q 434 1759 690 2068 
Q 947 2378 1403 2484 
z
M 1172 3481 
Q 1172 3119 1398 2916 
Q 1625 2713 2034 2713 
Q 2441 2713 2670 2916 
Q 2900 3119 2900 3481 
Q 2900 3844 2670 4047 
Q 2441 4250 2034 4250 
Q 1625 4250 1398 4047 
Q 1172 3844 1172 3481 
z
" transform="scale(0.015625)"/>
       </defs>
       <use xlink:href="#DejaVuSans-38"/>
       <use xlink:href="#DejaVuSans-30" x="63.623047"/>
      </g>
     </g>
    </g>
    <g id="xtick_6">
     <g id="line2d_6">
      <g>
       <use xlink:href="#m26031b7191" x="249.054545" y="192.24" style="stroke: #000000; stroke-width: 0.8"/>
      </g>
     </g>
     <g id="text_6">
      <!-- 100 -->
      <g transform="translate(239.510795 206.838437) scale(0.1 -0.1)">
       <defs>
        <path id="DejaVuSans-31" d="M 794 531 
L 1825 531 
L 1825 4091 
L 703 3866 
L 703 4441 
L 1819 4666 
L 2450 4666 
L 2450 531 
L 3481 531 
L 3481 0 
L 794 0 
L 794 531 
z
" transform="scale(0.015625)"/>
       </defs>
       <use xlink:href="#DejaVuSans-31"/>
       <use xlink:href="#DejaVuSans-30" x="63.623047"/>
       <use xlink:href="#DejaVuSans-30" x="127.246094"/>
      </g>
     </g>
    </g>
    <g id="text_7">
     <!-- None -->
     <g transform="translate(134.554688 220.516562) scale(0.1 -0.1)">
      <defs>
       <path id="DejaVuSans-4e" d="M 628 4666 
L 1478 4666 
L 3547 763 
L 3547 4666 
L 4159 4666 
L 4159 0 
L 3309 0 
L 1241 3903 
L 1241 0 
L 628 0 
L 628 4666 
z
" transform="scale(0.015625)"/>
       <path id="DejaVuSans-6f" d="M 1959 3097 
Q 1497 3097 1228 2736 
Q 959 2375 959 1747 
Q 959 1119 1226 758 
Q 1494 397 1959 397 
Q 2419 397 2687 759 
Q 2956 1122 2956 1747 
Q 2956 2369 2687 2733 
Q 2419 3097 1959 3097 
z
M 1959 3584 
Q 2709 3584 3137 3096 
Q 3566 2609 3566 1747 
Q 3566 888 3137 398 
Q 2709 -91 1959 -91 
Q 1206 -91 779 398 
Q 353 888 353 1747 
Q 353 2609 779 3096 
Q 1206 3584 1959 3584 
z
" transform="scale(0.015625)"/>
       <path id="DejaVuSans-6e" d="M 3513 2113 
L 3513 0 
L 2938 0 
L 2938 2094 
Q 2938 2591 2744 2837 
Q 2550 3084 2163 3084 
Q 1697 3084 1428 2787 
Q 1159 2491 1159 1978 
L 1159 0 
L 581 0 
L 581 3500 
L 1159 3500 
L 1159 2956 
Q 1366 3272 1645 3428 
Q 1925 3584 2291 3584 
Q 2894 3584 3203 3211 
Q 3513 2838 3513 2113 
z
" transform="scale(0.015625)"/>
       <path id="DejaVuSans-65" d="M 3597 1894 
L 3597 1613 
L 953 1613 
Q 991 1019 1311 708 
Q 1631 397 2203 397 
Q 2534 397 2845 478 
Q 3156 559 3463 722 
L 3463 178 
Q 3153 47 2828 -22 
Q 2503 -91 2169 -91 
Q 1331 -91 842 396 
Q 353 884 353 1716 
Q 353 2575 817 3079 
Q 1281 3584 2069 3584 
Q 2775 3584 3186 3129 
Q 3597 2675 3597 1894 
z
M 3022 2063 
Q 3016 2534 2758 2815 
Q 2500 3097 2075 3097 
Q 1594 3097 1305 2825 
Q 1016 2553 972 2059 
L 3022 2063 
z
" transform="scale(0.015625)"/>
      </defs>
      <use xlink:href="#DejaVuSans-4e"/>
      <use xlink:href="#DejaVuSans-6f" x="74.804688"/>
      <use xlink:href="#DejaVuSans-6e" x="135.986328"/>
      <use xlink:href="#DejaVuSans-65" x="199.365234"/>
     </g>
    </g>
   </g>
   <g id="matplotlib.axis_2">
    <g id="ytick_1">
     <g id="line2d_7">
      <defs>
       <path id="mf0518ef1de" d="M 0 0 
L -3.5 0 
" style="stroke: #000000; stroke-width: 0.8"/>
      </defs>
      <g>
       <use xlink:href="#mf0518ef1de" x="36" y="184.712454" style="stroke: #000000; stroke-width: 0.8"/>
      </g>
     </g>
     <g id="text_8">
      <!-- 0.8 -->
      <g transform="translate(13.096875 188.511673) scale(0.1 -0.1)">
       <defs>
        <path id="DejaVuSans-2e" d="M 684 794 
L 1344 794 
L 1344 0 
L 684 0 
L 684 794 
z
" transform="scale(0.015625)"/>
       </defs>
       <use xlink:href="#DejaVuSans-30"/>
       <use xlink:href="#DejaVuSans-2e" x="63.623047"/>
       <use xlink:href="#DejaVuSans-38" x="95.410156"/>
      </g>
     </g>
    </g>
    <g id="ytick_2">
     <g id="line2d_8">
      <g>
       <use xlink:href="#mf0518ef1de" x="36" y="154.696885" style="stroke: #000000; stroke-width: 0.8"/>
      </g>
     </g>
     <g id="text_9">
      <!-- 0.9 -->
      <g transform="translate(13.096875 158.496104) scale(0.1 -0.1)">
       <defs>
        <path id="DejaVuSans-39" d="M 703 97 
L 703 672 
Q 941 559 1184 500 
Q 1428 441 1663 441 
Q 2288 441 2617 861 
Q 2947 1281 2994 2138 
Q 2813 1869 2534 1725 
Q 2256 1581 1919 1581 
Q 1219 1581 811 2004 
Q 403 2428 403 3163 
Q 403 3881 828 4315 
Q 1253 4750 1959 4750 
Q 2769 4750 3195 4129 
Q 3622 3509 3622 2328 
Q 3622 1225 3098 567 
Q 2575 -91 1691 -91 
Q 1453 -91 1209 -44 
Q 966 3 703 97 
z
M 1959 2075 
Q 2384 2075 2632 2365 
Q 2881 2656 2881 3163 
Q 2881 3666 2632 3958 
Q 2384 4250 1959 4250 
Q 1534 4250 1286 3958 
Q 1038 3666 1038 3163 
Q 1038 2656 1286 2365 
Q 1534 2075 1959 2075 
z
" transform="scale(0.015625)"/>
       </defs>
       <use xlink:href="#DejaVuSans-30"/>
       <use xlink:href="#DejaVuSans-2e" x="63.623047"/>
       <use xlink:href="#DejaVuSans-39" x="95.410156"/>
      </g>
     </g>
    </g>
    <g id="ytick_3">
     <g id="line2d_9">
      <g>
       <use xlink:href="#mf0518ef1de" x="36" y="124.681315" style="stroke: #000000; stroke-width: 0.8"/>
      </g>
     </g>
     <g id="text_10">
      <!-- 1.0 -->
      <g transform="translate(13.096875 128.480534) scale(0.1 -0.1)">
       <use xlink:href="#DejaVuSans-31"/>
       <use xlink:href="#DejaVuSans-2e" x="63.623047"/>
       <use xlink:href="#DejaVuSans-30" x="95.410156"/>
      </g>
     </g>
    </g>
    <g id="ytick_4">
     <g id="line2d_10">
      <g>
       <use xlink:href="#mf0518ef1de" x="36" y="94.665746" style="stroke: #000000; stroke-width: 0.8"/>
      </g>
     </g>
     <g id="text_11">
      <!-- 1.1 -->
      <g transform="translate(13.096875 98.464965) scale(0.1 -0.1)">
       <use xlink:href="#DejaVuSans-31"/>
       <use xlink:href="#DejaVuSans-2e" x="63.623047"/>
       <use xlink:href="#DejaVuSans-31" x="95.410156"/>
      </g>
     </g>
    </g>
    <g id="ytick_5">
     <g id="line2d_11">
      <g>
       <use xlink:href="#mf0518ef1de" x="36" y="64.650176" style="stroke: #000000; stroke-width: 0.8"/>
      </g>
     </g>
     <g id="text_12">
      <!-- 1.2 -->
      <g transform="translate(13.096875 68.449395) scale(0.1 -0.1)">
       <use xlink:href="#DejaVuSans-31"/>
       <use xlink:href="#DejaVuSans-2e" x="63.623047"/>
       <use xlink:href="#DejaVuSans-32" x="95.410156"/>
      </g>
     </g>
    </g>
    <g id="ytick_6">
     <g id="line2d_12">
      <g>
       <use xlink:href="#mf0518ef1de" x="36" y="34.634607" style="stroke: #000000; stroke-width: 0.8"/>
      </g>
     </g>
     <g id="text_13">
      <!-- 1.3 -->
      <g transform="translate(13.096875 38.433825) scale(0.1 -0.1)">
       <defs>
        <path id="DejaVuSans-33" d="M 2597 2516 
Q 3050 2419 3304 2112 
Q 3559 1806 3559 1356 
Q 3559 666 3084 287 
Q 2609 -91 1734 -91 
Q 1441 -91 1130 -33 
Q 819 25 488 141 
L 488 750 
Q 750 597 1062 519 
Q 1375 441 1716 441 
Q 2309 441 2620 675 
Q 2931 909 2931 1356 
Q 2931 1769 2642 2001 
Q 2353 2234 1838 2234 
L 1294 2234 
L 1294 2753 
L 1863 2753 
Q 2328 2753 2575 2939 
Q 2822 3125 2822 3475 
Q 2822 3834 2567 4026 
Q 2313 4219 1838 4219 
Q 1578 4219 1281 4162 
Q 984 4106 628 3988 
L 628 4550 
Q 988 4650 1302 4700 
Q 1616 4750 1894 4750 
Q 2613 4750 3031 4423 
Q 3450 4097 3450 3541 
Q 3450 3153 3228 2886 
Q 3006 2619 2597 2516 
z
" transform="scale(0.015625)"/>
       </defs>
       <use xlink:href="#DejaVuSans-31"/>
       <use xlink:href="#DejaVuSans-2e" x="63.623047"/>
       <use xlink:href="#DejaVuSans-33" x="95.410156"/>
      </g>
     </g>
    </g>
    <g id="text_14">
     <!-- mean_fitness -->
     <g transform="translate(6.739062 142.32375) rotate(-90) scale(0.1 -0.1)">
      <defs>
       <path id="DejaVuSans-6d" d="M 3328 2828 
Q 3544 3216 3844 3400 
Q 4144 3584 4550 3584 
Q 5097 3584 5394 3201 
Q 5691 2819 5691 2113 
L 5691 0 
L 5113 0 
L 5113 2094 
Q 5113 2597 4934 2840 
Q 4756 3084 4391 3084 
Q 3944 3084 3684 2787 
Q 3425 2491 3425 1978 
L 3425 0 
L 2847 0 
L 2847 2094 
Q 2847 2600 2669 2842 
Q 2491 3084 2119 3084 
Q 1678 3084 1418 2786 
Q 1159 2488 1159 1978 
L 1159 0 
L 581 0 
L 581 3500 
L 1159 3500 
L 1159 2956 
Q 1356 3278 1631 3431 
Q 1906 3584 2284 3584 
Q 2666 3584 2933 3390 
Q 3200 3197 3328 2828 
z
" transform="scale(0.015625)"/>
       <path id="DejaVuSans-61" d="M 2194 1759 
Q 1497 1759 1228 1600 
Q 959 1441 959 1056 
Q 959 750 1161 570 
Q 1363 391 1709 391 
Q 2188 391 2477 730 
Q 2766 1069 2766 1631 
L 2766 1759 
L 2194 1759 
z
M 3341 1997 
L 3341 0 
L 2766 0 
L 2766 531 
Q 2569 213 2275 61 
Q 1981 -91 1556 -91 
Q 1019 -91 701 211 
Q 384 513 384 1019 
Q 384 1609 779 1909 
Q 1175 2209 1959 2209 
L 2766 2209 
L 2766 2266 
Q 2766 2663 2505 2880 
Q 2244 3097 1772 3097 
Q 1472 3097 1187 3025 
Q 903 2953 641 2809 
L 641 3341 
Q 956 3463 1253 3523 
Q 1550 3584 1831 3584 
Q 2591 3584 2966 3190 
Q 3341 2797 3341 1997 
z
" transform="scale(0.015625)"/>
       <path id="DejaVuSans-5f" d="M 3263 -1063 
L 3263 -1509 
L -63 -1509 
L -63 -1063 
L 3263 -1063 
z
" transform="scale(0.015625)"/>
       <path id="DejaVuSans-66" d="M 2375 4863 
L 2375 4384 
L 1825 4384 
Q 1516 4384 1395 4259 
Q 1275 4134 1275 3809 
L 1275 3500 
L 2222 3500 
L 2222 3053 
L 1275 3053 
L 1275 0 
L 697 0 
L 697 3053 
L 147 3053 
L 147 3500 
L 697 3500 
L 697 3744 
Q 697 4328 969 4595 
Q 1241 4863 1831 4863 
L 2375 4863 
z
" transform="scale(0.015625)"/>
       <path id="DejaVuSans-69" d="M 603 3500 
L 1178 3500 
L 1178 0 
L 603 0 
L 603 3500 
z
M 603 4863 
L 1178 4863 
L 1178 4134 
L 603 4134 
L 603 4863 
z
" transform="scale(0.015625)"/>
       <path id="DejaVuSans-74" d="M 1172 4494 
L 1172 3500 
L 2356 3500 
L 2356 3053 
L 1172 3053 
L 1172 1153 
Q 1172 725 1289 603 
Q 1406 481 1766 481 
L 2356 481 
L 2356 0 
L 1766 0 
Q 1100 0 847 248 
Q 594 497 594 1153 
L 594 3053 
L 172 3053 
L 172 3500 
L 594 3500 
L 594 4494 
L 1172 4494 
z
" transform="scale(0.015625)"/>
       <path id="DejaVuSans-73" d="M 2834 3397 
L 2834 2853 
Q 2591 2978 2328 3040 
Q 2066 3103 1784 3103 
Q 1356 3103 1142 2972 
Q 928 2841 928 2578 
Q 928 2378 1081 2264 
Q 1234 2150 1697 2047 
L 1894 2003 
Q 2506 1872 2764 1633 
Q 3022 1394 3022 966 
Q 3022 478 2636 193 
Q 2250 -91 1575 -91 
Q 1294 -91 989 -36 
Q 684 19 347 128 
L 347 722 
Q 666 556 975 473 
Q 1284 391 1588 391 
Q 1994 391 2212 530 
Q 2431 669 2431 922 
Q 2431 1156 2273 1281 
Q 2116 1406 1581 1522 
L 1381 1569 
Q 847 1681 609 1914 
Q 372 2147 372 2553 
Q 372 3047 722 3315 
Q 1072 3584 1716 3584 
Q 2034 3584 2315 3537 
Q 2597 3491 2834 3397 
z
" transform="scale(0.015625)"/>
      </defs>
      <use xlink:href="#DejaVuSans-6d"/>
      <use xlink:href="#DejaVuSans-65" x="97.412109"/>
      <use xlink:href="#DejaVuSans-61" x="158.935547"/>
      <use xlink:href="#DejaVuSans-6e" x="220.214844"/>
      <use xlink:href="#DejaVuSans-5f" x="283.59375"/>
      <use xlink:href="#DejaVuSans-66" x="333.59375"/>
      <use xlink:href="#DejaVuSans-69" x="368.798828"/>
      <use xlink:href="#DejaVuSans-74" x="396.582031"/>
      <use xlink:href="#DejaVuSans-6e" x="435.791016"/>
      <use xlink:href="#DejaVuSans-65" x="499.169922"/>
      <use xlink:href="#DejaVuSans-73" x="560.693359"/>
      <use xlink:href="#DejaVuSans-73" x="612.792969"/>
     </g>
    </g>
   </g>
   <g id="line2d_13">
    <path d="M 48.174545 117.954774 
L 50.203636 72.765837 
L 52.232727 38.432704 
L 54.261818 37.691516 
L 56.290909 38.28136 
L 58.32 38.139313 
L 60.349091 38.925957 
L 62.378182 38.311793 
L 64.407273 36.635611 
L 66.436364 38.465095 
L 68.465455 37.701759 
L 70.494545 38.393904 
L 72.523636 37.390965 
L 74.552727 37.319159 
L 76.581818 37.510985 
L 78.610909 38.06089 
L 80.64 38.526241 
L 82.669091 38.135268 
L 84.698182 36.991784 
L 86.727273 38.85517 
L 88.756364 35.770876 
L 90.785455 38.644641 
L 92.814545 37.993784 
L 94.843636 39.652834 
L 96.872727 38.098372 
L 98.901818 38.075348 
L 100.930909 35.962683 
L 102.96 37.811373 
L 104.989091 35.731222 
L 107.018182 39.146673 
L 109.047273 38.902967 
L 111.076364 36.123435 
L 113.105455 37.525025 
L 115.134545 38.013584 
L 117.163636 38.231028 
L 119.192727 36.949852 
L 121.221818 38.599215 
L 123.250909 38.133549 
L 125.28 38.925552 
L 127.309091 39.431673 
L 129.338182 37.804153 
L 131.367273 38.992703 
L 133.396364 36.887197 
L 135.425455 37.25481 
L 137.454545 37.681185 
L 139.483636 35.954593 
L 141.512727 38.788383 
L 143.541818 37.335953 
L 145.570909 38.078181 
L 147.6 38.076776 
L 149.629091 35.856055 
L 151.658182 38.706549 
L 153.687273 37.567243 
L 155.716364 38.003101 
L 157.745455 37.597958 
L 159.774545 36.691025 
L 161.803636 37.09525 
L 163.832727 37.888281 
L 165.861818 37.756936 
L 167.890909 39.629485 
L 169.92 36.232205 
L 171.949091 39.562637 
L 173.978182 36.559335 
L 176.007273 37.457523 
L 178.036364 38.957655 
L 180.065455 37.03978 
L 182.094545 39.361352 
L 184.123636 37.490549 
L 186.152727 36.264078 
L 188.181818 38.550229 
L 190.210909 39.363385 
L 192.24 37.947546 
L 194.269091 38.829636 
L 196.298182 38.241587 
L 198.327273 37.793991 
L 200.356364 35.933358 
L 202.385455 37.760861 
L 204.414545 37.980198 
L 206.443636 38.099874 
L 208.472727 38.400529 
L 210.501818 38.822364 
L 214.56 36.937135 
L 216.589091 37.321097 
L 218.618182 38.649906 
L 220.647273 37.466411 
L 222.676364 38.034034 
L 224.705455 38.739927 
L 226.734545 38.035452 
L 228.763636 38.513137 
L 230.792727 36.402651 
L 232.821818 38.679131 
L 234.850909 37.688787 
L 236.88 38.142436 
L 238.909091 38.239629 
L 240.938182 40.534292 
L 242.967273 37.441135 
L 244.996364 36.938022 
L 247.025455 36.471751 
L 249.054545 36.601508 
" clip-path="url(#pbbb15f9357)" style="fill: none; stroke: #1f77b4; stroke-width: 1.5; stroke-linecap: square"/>
   </g>
   <g id="line2d_14">
    <path d="M 46.145455 183.830179 
L 48.174545 183.992036 
L 50.203636 182.631777 
L 52.232727 182.323582 
L 54.261818 182.227285 
L 56.290909 182.554232 
L 58.32 181.538163 
L 60.349091 180.921051 
L 62.378182 180.100162 
L 64.407273 178.727468 
L 66.436364 177.915372 
L 68.465455 177.104037 
L 70.494545 178.566937 
L 72.523636 178.125219 
L 74.552727 178.558045 
L 76.581818 178.897788 
L 78.610909 179.193642 
L 80.64 178.846841 
L 82.669091 178.801133 
L 84.698182 179.18175 
L 86.727273 178.605942 
L 88.756364 177.373862 
L 90.785455 178.211964 
L 92.814545 176.979691 
L 94.843636 176.91453 
L 96.872727 176.289508 
L 98.901818 175.98211 
L 100.930909 175.478849 
L 102.96 175.486152 
L 104.989091 174.874313 
L 107.018182 174.567234 
L 109.047273 174.567234 
L 111.076364 174.567234 
L 113.105455 174.567234 
L 115.134545 174.567234 
L 117.163636 174.567234 
L 119.192727 173.581315 
L 121.221818 173.581315 
L 123.250909 173.645168 
L 125.28 172.927966 
L 127.309091 172.486405 
L 129.338182 172.486405 
L 131.367273 172.035942 
L 133.396364 172.035942 
L 135.425455 170.755362 
L 137.454545 170.300572 
L 139.483636 170.300572 
L 141.512727 170.300572 
L 143.541818 169.351457 
L 145.570909 169.351457 
L 147.6 169.351457 
L 149.629091 168.657337 
L 151.658182 168.657337 
L 153.687273 168.657337 
L 155.716364 166.779815 
L 157.745455 166.779815 
L 159.774545 166.779815 
L 161.803636 166.779815 
L 163.832727 166.971731 
L 165.861818 166.971731 
L 167.890909 166.971731 
L 169.92 165.938419 
L 171.949091 165.887998 
L 173.978182 165.887998 
L 176.007273 165.887998 
L 178.036364 164.780352 
L 180.065455 164.716223 
L 182.094545 164.716223 
L 184.123636 163.151089 
L 186.152727 163.19173 
L 188.181818 163.020759 
L 190.210909 163.020759 
L 192.24 162.655426 
L 194.269091 162.655426 
L 196.298182 162.655426 
L 198.327273 162.170018 
L 200.356364 162.205743 
L 202.385455 162.205743 
L 204.414545 161.808583 
L 206.443636 161.193685 
L 208.472727 161.193685 
L 210.501818 161.193685 
L 212.530909 160.938866 
L 214.56 160.938866 
L 216.589091 160.938866 
L 218.618182 160.794259 
L 220.647273 160.794259 
L 222.676364 160.794259 
L 224.705455 160.794259 
L 226.734545 159.954586 
L 228.763636 159.954586 
L 230.792727 160.285461 
L 232.821818 160.782519 
L 234.850909 160.519773 
L 236.88 160.364203 
L 238.909091 159.913741 
L 240.938182 159.913741 
L 242.967273 159.913741 
L 244.996364 159.913741 
L 247.025455 159.913741 
L 249.054545 159.913741 
" clip-path="url(#pbbb15f9357)" style="fill: none; stroke: #ff7f0e; stroke-width: 1.5; stroke-linecap: square"/>
   </g>
   <g id="patch_3">
    <path d="M 36 192.24 
L 36 25.92 
" style="fill: none; stroke: #000000; stroke-width: 0.8; stroke-linejoin: miter; stroke-linecap: square"/>
   </g>
   <g id="patch_4">
    <path d="M 259.2 192.24 
L 259.2 25.92 
" style="fill: none; stroke: #000000; stroke-width: 0.8; stroke-linejoin: miter; stroke-linecap: square"/>
   </g>
   <g id="patch_5">
    <path d="M 36 192.24 
L 259.2 192.24 
" style="fill: none; stroke: #000000; stroke-width: 0.8; stroke-linejoin: miter; stroke-linecap: square"/>
   </g>
   <g id="patch_6">
    <path d="M 36 25.92 
L 259.2 25.92 
" style="fill: none; stroke: #000000; stroke-width: 0.8; stroke-linejoin: miter; stroke-linecap: square"/>
   </g>
  </g>
 </g>
 <defs>
  <clipPath id="pbbb15f9357">
   <rect x="36" y="25.92" width="223.2" height="166.32"/>
  </clipPath>
 </defs>
</svg>
